%TF.GenerationSoftware,KiCad,Pcbnew,8.0.2*%
%TF.CreationDate,2025-02-26T22:38:59-05:00*%
%TF.ProjectId,MainPCB,4d61696e-5043-4422-9e6b-696361645f70,rev?*%
%TF.SameCoordinates,Original*%
%TF.FileFunction,Paste,Top*%
%TF.FilePolarity,Positive*%
%FSLAX46Y46*%
G04 Gerber Fmt 4.6, Leading zero omitted, Abs format (unit mm)*
G04 Created by KiCad (PCBNEW 8.0.2) date 2025-02-26 22:38:59*
%MOMM*%
%LPD*%
G01*
G04 APERTURE LIST*
G04 Aperture macros list*
%AMRoundRect*
0 Rectangle with rounded corners*
0 $1 Rounding radius*
0 $2 $3 $4 $5 $6 $7 $8 $9 X,Y pos of 4 corners*
0 Add a 4 corners polygon primitive as box body*
4,1,4,$2,$3,$4,$5,$6,$7,$8,$9,$2,$3,0*
0 Add four circle primitives for the rounded corners*
1,1,$1+$1,$2,$3*
1,1,$1+$1,$4,$5*
1,1,$1+$1,$6,$7*
1,1,$1+$1,$8,$9*
0 Add four rect primitives between the rounded corners*
20,1,$1+$1,$2,$3,$4,$5,0*
20,1,$1+$1,$4,$5,$6,$7,0*
20,1,$1+$1,$6,$7,$8,$9,0*
20,1,$1+$1,$8,$9,$2,$3,0*%
G04 Aperture macros list end*
%ADD10RoundRect,0.250000X-0.250000X-0.475000X0.250000X-0.475000X0.250000X0.475000X-0.250000X0.475000X0*%
%ADD11RoundRect,0.250000X0.250000X0.475000X-0.250000X0.475000X-0.250000X-0.475000X0.250000X-0.475000X0*%
%ADD12RoundRect,0.250000X-0.450000X0.350000X-0.450000X-0.350000X0.450000X-0.350000X0.450000X0.350000X0*%
%ADD13RoundRect,0.250000X0.450000X-0.350000X0.450000X0.350000X-0.450000X0.350000X-0.450000X-0.350000X0*%
%ADD14RoundRect,0.250000X-0.350000X-0.450000X0.350000X-0.450000X0.350000X0.450000X-0.350000X0.450000X0*%
%ADD15RoundRect,0.250000X-0.337500X-0.475000X0.337500X-0.475000X0.337500X0.475000X-0.337500X0.475000X0*%
%ADD16RoundRect,0.250000X0.475000X-0.337500X0.475000X0.337500X-0.475000X0.337500X-0.475000X-0.337500X0*%
%ADD17RoundRect,0.250000X0.337500X0.475000X-0.337500X0.475000X-0.337500X-0.475000X0.337500X-0.475000X0*%
%ADD18R,1.525000X0.650000*%
%ADD19R,0.650000X1.525000*%
%ADD20RoundRect,0.250000X-0.475000X0.337500X-0.475000X-0.337500X0.475000X-0.337500X0.475000X0.337500X0*%
G04 APERTURE END LIST*
D10*
%TO.C,R22*%
X63450000Y-88060000D03*
X65350000Y-88060000D03*
%TD*%
%TO.C,R21*%
X63450000Y-85050000D03*
X65350000Y-85050000D03*
%TD*%
%TO.C,C8*%
X96650000Y-69820000D03*
X98550000Y-69820000D03*
%TD*%
D11*
%TO.C,C3*%
X148524000Y-111506000D03*
X146624000Y-111506000D03*
%TD*%
D12*
%TO.C,R12*%
X92990000Y-83440000D03*
X92990000Y-85440000D03*
%TD*%
D13*
%TO.C,R20*%
X104150000Y-97430000D03*
X104150000Y-95430000D03*
%TD*%
D14*
%TO.C,R17*%
X58928000Y-115570000D03*
X60928000Y-115570000D03*
%TD*%
D15*
%TO.C,R18*%
X83960000Y-137760000D03*
X86035000Y-137760000D03*
%TD*%
D16*
%TO.C,C14*%
X83820000Y-114046000D03*
X83820000Y-111971000D03*
%TD*%
D13*
%TO.C,R19*%
X97760000Y-97460000D03*
X97760000Y-95460000D03*
%TD*%
D17*
%TO.C,C13*%
X91487500Y-71520000D03*
X89412500Y-71520000D03*
%TD*%
D12*
%TO.C,R14*%
X92990000Y-87218000D03*
X92990000Y-89218000D03*
%TD*%
D14*
%TO.C,R15*%
X58960000Y-111506000D03*
X60960000Y-111506000D03*
%TD*%
D18*
%TO.C,IC3*%
X78822000Y-75565000D03*
X78822000Y-76835000D03*
X78822000Y-78105000D03*
X78822000Y-79375000D03*
X78822000Y-80645000D03*
X78822000Y-81915000D03*
X78822000Y-83185000D03*
X78822000Y-84455000D03*
X84246000Y-84455000D03*
X84246000Y-83185000D03*
X84246000Y-81915000D03*
X84246000Y-80645000D03*
X84246000Y-79375000D03*
X84246000Y-78105000D03*
X84246000Y-76835000D03*
X84246000Y-75565000D03*
%TD*%
D19*
%TO.C,IC2*%
X103378000Y-77978000D03*
X104648000Y-77978000D03*
X105918000Y-77978000D03*
X107188000Y-77978000D03*
X108458000Y-77978000D03*
X109728000Y-77978000D03*
X110998000Y-77978000D03*
X112268000Y-77978000D03*
X112268000Y-72554000D03*
X110998000Y-72554000D03*
X109728000Y-72554000D03*
X108458000Y-72554000D03*
X107188000Y-72554000D03*
X105918000Y-72554000D03*
X104648000Y-72554000D03*
X103378000Y-72554000D03*
%TD*%
D11*
%TO.C,C4*%
X148458000Y-108712000D03*
X146558000Y-108712000D03*
%TD*%
D18*
%TO.C,IC1*%
X107278000Y-125222000D03*
X107278000Y-123952000D03*
X107278000Y-122682000D03*
X107278000Y-121412000D03*
X107278000Y-120142000D03*
X107278000Y-118872000D03*
X107278000Y-117602000D03*
X107278000Y-116332000D03*
X101854000Y-116332000D03*
X101854000Y-117602000D03*
X101854000Y-118872000D03*
X101854000Y-120142000D03*
X101854000Y-121412000D03*
X101854000Y-122682000D03*
X101854000Y-123952000D03*
X101854000Y-125222000D03*
%TD*%
D10*
%TO.C,C7*%
X96620000Y-72310000D03*
X98520000Y-72310000D03*
%TD*%
D18*
%TO.C,IC4*%
X70530000Y-120523000D03*
X70530000Y-119253000D03*
X70530000Y-117983000D03*
X70530000Y-116713000D03*
X70530000Y-115443000D03*
X70530000Y-114173000D03*
X70530000Y-112903000D03*
X70530000Y-111633000D03*
X65106000Y-111633000D03*
X65106000Y-112903000D03*
X65106000Y-114173000D03*
X65106000Y-115443000D03*
X65106000Y-116713000D03*
X65106000Y-117983000D03*
X65106000Y-119253000D03*
X65106000Y-120523000D03*
%TD*%
D20*
%TO.C,C11*%
X120142000Y-111992500D03*
X120142000Y-114067500D03*
%TD*%
D12*
%TO.C,R13*%
X90958000Y-83440000D03*
X90958000Y-85440000D03*
%TD*%
D14*
%TO.C,R16*%
X58960000Y-113538000D03*
X60960000Y-113538000D03*
%TD*%
D16*
%TO.C,C12*%
X113300000Y-82117500D03*
X113300000Y-80042500D03*
%TD*%
D18*
%TO.C,IC5*%
X128098000Y-79375000D03*
X128098000Y-80645000D03*
X128098000Y-81915000D03*
X128098000Y-83185000D03*
X128098000Y-84455000D03*
X128098000Y-85725000D03*
X128098000Y-86995000D03*
X128098000Y-88265000D03*
X133522000Y-88265000D03*
X133522000Y-86995000D03*
X133522000Y-85725000D03*
X133522000Y-84455000D03*
X133522000Y-83185000D03*
X133522000Y-81915000D03*
X133522000Y-80645000D03*
X133522000Y-79375000D03*
%TD*%
M02*
