%TF.GenerationSoftware,KiCad,Pcbnew,8.0.2*%
%TF.CreationDate,2025-02-26T22:38:59-05:00*%
%TF.ProjectId,MainPCB,4d61696e-5043-4422-9e6b-696361645f70,rev?*%
%TF.SameCoordinates,Original*%
%TF.FileFunction,Paste,Bot*%
%TF.FilePolarity,Positive*%
%FSLAX46Y46*%
G04 Gerber Fmt 4.6, Leading zero omitted, Abs format (unit mm)*
G04 Created by KiCad (PCBNEW 8.0.2) date 2025-02-26 22:38:59*
%MOMM*%
%LPD*%
G01*
G04 APERTURE LIST*
G04 Aperture macros list*
%AMRoundRect*
0 Rectangle with rounded corners*
0 $1 Rounding radius*
0 $2 $3 $4 $5 $6 $7 $8 $9 X,Y pos of 4 corners*
0 Add a 4 corners polygon primitive as box body*
4,1,4,$2,$3,$4,$5,$6,$7,$8,$9,$2,$3,0*
0 Add four circle primitives for the rounded corners*
1,1,$1+$1,$2,$3*
1,1,$1+$1,$4,$5*
1,1,$1+$1,$6,$7*
1,1,$1+$1,$8,$9*
0 Add four rect primitives between the rounded corners*
20,1,$1+$1,$2,$3,$4,$5,0*
20,1,$1+$1,$4,$5,$6,$7,0*
20,1,$1+$1,$6,$7,$8,$9,0*
20,1,$1+$1,$8,$9,$2,$3,0*%
G04 Aperture macros list end*
%ADD10RoundRect,0.250000X0.350000X0.450000X-0.350000X0.450000X-0.350000X-0.450000X0.350000X-0.450000X0*%
%ADD11RoundRect,0.250000X-0.450000X0.350000X-0.450000X-0.350000X0.450000X-0.350000X0.450000X0.350000X0*%
%ADD12RoundRect,0.250000X-0.337500X-0.475000X0.337500X-0.475000X0.337500X0.475000X-0.337500X0.475000X0*%
%ADD13RoundRect,0.250000X0.337500X0.475000X-0.337500X0.475000X-0.337500X-0.475000X0.337500X-0.475000X0*%
%ADD14RoundRect,0.250000X-0.350000X-0.450000X0.350000X-0.450000X0.350000X0.450000X-0.350000X0.450000X0*%
%ADD15RoundRect,0.250000X0.250000X0.475000X-0.250000X0.475000X-0.250000X-0.475000X0.250000X-0.475000X0*%
%ADD16RoundRect,0.250000X-0.475000X0.250000X-0.475000X-0.250000X0.475000X-0.250000X0.475000X0.250000X0*%
G04 APERTURE END LIST*
D10*
%TO.C,R25*%
X137668000Y-91186000D03*
X135668000Y-91186000D03*
%TD*%
%TO.C,R24*%
X129778000Y-90932000D03*
X127778000Y-90932000D03*
%TD*%
D11*
%TO.C,R23*%
X119126000Y-84344000D03*
X119126000Y-86344000D03*
%TD*%
D12*
%TO.C,C15*%
X138662500Y-80264000D03*
X140737500Y-80264000D03*
%TD*%
D13*
%TO.C,R2*%
X135128000Y-121070000D03*
X133053000Y-121070000D03*
%TD*%
D14*
%TO.C,R11*%
X99346000Y-76708000D03*
X101346000Y-76708000D03*
%TD*%
D12*
%TO.C,R3*%
X48238500Y-89662000D03*
X50313500Y-89662000D03*
%TD*%
D10*
%TO.C,R7*%
X97996000Y-113030000D03*
X95996000Y-113030000D03*
%TD*%
D15*
%TO.C,C9*%
X61910000Y-96012000D03*
X60010000Y-96012000D03*
%TD*%
%TO.C,C6*%
X137348000Y-77724000D03*
X135448000Y-77724000D03*
%TD*%
D12*
%TO.C,R4*%
X48492500Y-104140000D03*
X50567500Y-104140000D03*
%TD*%
D10*
%TO.C,R8*%
X98012000Y-115062000D03*
X96012000Y-115062000D03*
%TD*%
D16*
%TO.C,C1*%
X132842000Y-95890000D03*
X132842000Y-97790000D03*
%TD*%
D12*
%TO.C,R6*%
X48746500Y-117348000D03*
X50821500Y-117348000D03*
%TD*%
D10*
%TO.C,R9*%
X99346000Y-72644000D03*
X101346000Y-72644000D03*
%TD*%
D15*
%TO.C,C5*%
X137160000Y-74930000D03*
X135260000Y-74930000D03*
%TD*%
D12*
%TO.C,R5*%
X48492500Y-130810000D03*
X50567500Y-130810000D03*
%TD*%
D16*
%TO.C,C2*%
X135636000Y-95890000D03*
X135636000Y-97790000D03*
%TD*%
D10*
%TO.C,R10*%
X101346000Y-74676000D03*
X99346000Y-74676000D03*
%TD*%
D15*
%TO.C,C10*%
X61976000Y-99314000D03*
X60076000Y-99314000D03*
%TD*%
D10*
%TO.C,R1*%
X98012000Y-110998000D03*
X96012000Y-110998000D03*
%TD*%
M02*
