%TF.GenerationSoftware,KiCad,Pcbnew,8.0.2*%
%TF.CreationDate,2025-02-26T22:38:59-05:00*%
%TF.ProjectId,MainPCB,4d61696e-5043-4422-9e6b-696361645f70,rev?*%
%TF.SameCoordinates,Original*%
%TF.FileFunction,Legend,Top*%
%TF.FilePolarity,Positive*%
%FSLAX46Y46*%
G04 Gerber Fmt 4.6, Leading zero omitted, Abs format (unit mm)*
G04 Created by KiCad (PCBNEW 8.0.2) date 2025-02-26 22:38:59*
%MOMM*%
%LPD*%
G01*
G04 APERTURE LIST*
%ADD10C,0.300000*%
%ADD11C,0.100000*%
%ADD12C,0.150000*%
%ADD13C,0.254000*%
%ADD14C,0.120000*%
%ADD15C,0.152400*%
%ADD16C,0.127000*%
%ADD17C,0.200000*%
G04 APERTURE END LIST*
D10*
X78643653Y-84660828D02*
X79572225Y-84660828D01*
X79572225Y-84660828D02*
X79072225Y-85232257D01*
X79072225Y-85232257D02*
X79286510Y-85232257D01*
X79286510Y-85232257D02*
X79429368Y-85303685D01*
X79429368Y-85303685D02*
X79500796Y-85375114D01*
X79500796Y-85375114D02*
X79572225Y-85517971D01*
X79572225Y-85517971D02*
X79572225Y-85875114D01*
X79572225Y-85875114D02*
X79500796Y-86017971D01*
X79500796Y-86017971D02*
X79429368Y-86089400D01*
X79429368Y-86089400D02*
X79286510Y-86160828D01*
X79286510Y-86160828D02*
X78857939Y-86160828D01*
X78857939Y-86160828D02*
X78715082Y-86089400D01*
X78715082Y-86089400D02*
X78643653Y-86017971D01*
X80215081Y-86017971D02*
X80286510Y-86089400D01*
X80286510Y-86089400D02*
X80215081Y-86160828D01*
X80215081Y-86160828D02*
X80143653Y-86089400D01*
X80143653Y-86089400D02*
X80215081Y-86017971D01*
X80215081Y-86017971D02*
X80215081Y-86160828D01*
X80786510Y-84660828D02*
X81715082Y-84660828D01*
X81715082Y-84660828D02*
X81215082Y-85232257D01*
X81215082Y-85232257D02*
X81429367Y-85232257D01*
X81429367Y-85232257D02*
X81572225Y-85303685D01*
X81572225Y-85303685D02*
X81643653Y-85375114D01*
X81643653Y-85375114D02*
X81715082Y-85517971D01*
X81715082Y-85517971D02*
X81715082Y-85875114D01*
X81715082Y-85875114D02*
X81643653Y-86017971D01*
X81643653Y-86017971D02*
X81572225Y-86089400D01*
X81572225Y-86089400D02*
X81429367Y-86160828D01*
X81429367Y-86160828D02*
X81000796Y-86160828D01*
X81000796Y-86160828D02*
X80857939Y-86089400D01*
X80857939Y-86089400D02*
X80786510Y-86017971D01*
X83286510Y-84660828D02*
X83786510Y-86160828D01*
X83786510Y-86160828D02*
X84286510Y-84660828D01*
X85072224Y-84660828D02*
X85357938Y-84660828D01*
X85357938Y-84660828D02*
X85500795Y-84732257D01*
X85500795Y-84732257D02*
X85643652Y-84875114D01*
X85643652Y-84875114D02*
X85715081Y-85160828D01*
X85715081Y-85160828D02*
X85715081Y-85660828D01*
X85715081Y-85660828D02*
X85643652Y-85946542D01*
X85643652Y-85946542D02*
X85500795Y-86089400D01*
X85500795Y-86089400D02*
X85357938Y-86160828D01*
X85357938Y-86160828D02*
X85072224Y-86160828D01*
X85072224Y-86160828D02*
X84929367Y-86089400D01*
X84929367Y-86089400D02*
X84786509Y-85946542D01*
X84786509Y-85946542D02*
X84715081Y-85660828D01*
X84715081Y-85660828D02*
X84715081Y-85160828D01*
X84715081Y-85160828D02*
X84786509Y-84875114D01*
X84786509Y-84875114D02*
X84929367Y-84732257D01*
X84929367Y-84732257D02*
X85072224Y-84660828D01*
X87072224Y-86160828D02*
X86357938Y-86160828D01*
X86357938Y-86160828D02*
X86357938Y-84660828D01*
X87357939Y-84660828D02*
X88215082Y-84660828D01*
X87786510Y-86160828D02*
X87786510Y-84660828D01*
X88643653Y-86089400D02*
X88857939Y-86160828D01*
X88857939Y-86160828D02*
X89215081Y-86160828D01*
X89215081Y-86160828D02*
X89357939Y-86089400D01*
X89357939Y-86089400D02*
X89429367Y-86017971D01*
X89429367Y-86017971D02*
X89500796Y-85875114D01*
X89500796Y-85875114D02*
X89500796Y-85732257D01*
X89500796Y-85732257D02*
X89429367Y-85589400D01*
X89429367Y-85589400D02*
X89357939Y-85517971D01*
X89357939Y-85517971D02*
X89215081Y-85446542D01*
X89215081Y-85446542D02*
X88929367Y-85375114D01*
X88929367Y-85375114D02*
X88786510Y-85303685D01*
X88786510Y-85303685D02*
X88715081Y-85232257D01*
X88715081Y-85232257D02*
X88643653Y-85089400D01*
X88643653Y-85089400D02*
X88643653Y-84946542D01*
X88643653Y-84946542D02*
X88715081Y-84803685D01*
X88715081Y-84803685D02*
X88786510Y-84732257D01*
X88786510Y-84732257D02*
X88929367Y-84660828D01*
X88929367Y-84660828D02*
X89286510Y-84660828D01*
X89286510Y-84660828D02*
X89500796Y-84732257D01*
X123585114Y-108255489D02*
X123585114Y-107755489D01*
X124370828Y-107541203D02*
X124370828Y-108255489D01*
X124370828Y-108255489D02*
X122870828Y-108255489D01*
X122870828Y-108255489D02*
X122870828Y-107541203D01*
X124299400Y-106969774D02*
X124370828Y-106755489D01*
X124370828Y-106755489D02*
X124370828Y-106398346D01*
X124370828Y-106398346D02*
X124299400Y-106255489D01*
X124299400Y-106255489D02*
X124227971Y-106184060D01*
X124227971Y-106184060D02*
X124085114Y-106112631D01*
X124085114Y-106112631D02*
X123942257Y-106112631D01*
X123942257Y-106112631D02*
X123799400Y-106184060D01*
X123799400Y-106184060D02*
X123727971Y-106255489D01*
X123727971Y-106255489D02*
X123656542Y-106398346D01*
X123656542Y-106398346D02*
X123585114Y-106684060D01*
X123585114Y-106684060D02*
X123513685Y-106826917D01*
X123513685Y-106826917D02*
X123442257Y-106898346D01*
X123442257Y-106898346D02*
X123299400Y-106969774D01*
X123299400Y-106969774D02*
X123156542Y-106969774D01*
X123156542Y-106969774D02*
X123013685Y-106898346D01*
X123013685Y-106898346D02*
X122942257Y-106826917D01*
X122942257Y-106826917D02*
X122870828Y-106684060D01*
X122870828Y-106684060D02*
X122870828Y-106326917D01*
X122870828Y-106326917D02*
X122942257Y-106112631D01*
X124227971Y-104612632D02*
X124299400Y-104684060D01*
X124299400Y-104684060D02*
X124370828Y-104898346D01*
X124370828Y-104898346D02*
X124370828Y-105041203D01*
X124370828Y-105041203D02*
X124299400Y-105255489D01*
X124299400Y-105255489D02*
X124156542Y-105398346D01*
X124156542Y-105398346D02*
X124013685Y-105469775D01*
X124013685Y-105469775D02*
X123727971Y-105541203D01*
X123727971Y-105541203D02*
X123513685Y-105541203D01*
X123513685Y-105541203D02*
X123227971Y-105469775D01*
X123227971Y-105469775D02*
X123085114Y-105398346D01*
X123085114Y-105398346D02*
X122942257Y-105255489D01*
X122942257Y-105255489D02*
X122870828Y-105041203D01*
X122870828Y-105041203D02*
X122870828Y-104898346D01*
X122870828Y-104898346D02*
X122942257Y-104684060D01*
X122942257Y-104684060D02*
X123013685Y-104612632D01*
X122799400Y-102898346D02*
X124727971Y-104184060D01*
X124370828Y-101684060D02*
X124370828Y-102398346D01*
X124370828Y-102398346D02*
X122870828Y-102398346D01*
X124299400Y-100612631D02*
X124370828Y-100755488D01*
X124370828Y-100755488D02*
X124370828Y-101041203D01*
X124370828Y-101041203D02*
X124299400Y-101184060D01*
X124299400Y-101184060D02*
X124156542Y-101255488D01*
X124156542Y-101255488D02*
X123585114Y-101255488D01*
X123585114Y-101255488D02*
X123442257Y-101184060D01*
X123442257Y-101184060D02*
X123370828Y-101041203D01*
X123370828Y-101041203D02*
X123370828Y-100755488D01*
X123370828Y-100755488D02*
X123442257Y-100612631D01*
X123442257Y-100612631D02*
X123585114Y-100541203D01*
X123585114Y-100541203D02*
X123727971Y-100541203D01*
X123727971Y-100541203D02*
X123870828Y-101255488D01*
X123370828Y-100041203D02*
X124370828Y-99684060D01*
X124370828Y-99684060D02*
X123370828Y-99326917D01*
X124299400Y-98184060D02*
X124370828Y-98326917D01*
X124370828Y-98326917D02*
X124370828Y-98612632D01*
X124370828Y-98612632D02*
X124299400Y-98755489D01*
X124299400Y-98755489D02*
X124156542Y-98826917D01*
X124156542Y-98826917D02*
X123585114Y-98826917D01*
X123585114Y-98826917D02*
X123442257Y-98755489D01*
X123442257Y-98755489D02*
X123370828Y-98612632D01*
X123370828Y-98612632D02*
X123370828Y-98326917D01*
X123370828Y-98326917D02*
X123442257Y-98184060D01*
X123442257Y-98184060D02*
X123585114Y-98112632D01*
X123585114Y-98112632D02*
X123727971Y-98112632D01*
X123727971Y-98112632D02*
X123870828Y-98826917D01*
X124370828Y-97255489D02*
X124299400Y-97398346D01*
X124299400Y-97398346D02*
X124156542Y-97469775D01*
X124156542Y-97469775D02*
X122870828Y-97469775D01*
X124299400Y-95612632D02*
X124370828Y-95398347D01*
X124370828Y-95398347D02*
X124370828Y-95041204D01*
X124370828Y-95041204D02*
X124299400Y-94898347D01*
X124299400Y-94898347D02*
X124227971Y-94826918D01*
X124227971Y-94826918D02*
X124085114Y-94755489D01*
X124085114Y-94755489D02*
X123942257Y-94755489D01*
X123942257Y-94755489D02*
X123799400Y-94826918D01*
X123799400Y-94826918D02*
X123727971Y-94898347D01*
X123727971Y-94898347D02*
X123656542Y-95041204D01*
X123656542Y-95041204D02*
X123585114Y-95326918D01*
X123585114Y-95326918D02*
X123513685Y-95469775D01*
X123513685Y-95469775D02*
X123442257Y-95541204D01*
X123442257Y-95541204D02*
X123299400Y-95612632D01*
X123299400Y-95612632D02*
X123156542Y-95612632D01*
X123156542Y-95612632D02*
X123013685Y-95541204D01*
X123013685Y-95541204D02*
X122942257Y-95469775D01*
X122942257Y-95469775D02*
X122870828Y-95326918D01*
X122870828Y-95326918D02*
X122870828Y-94969775D01*
X122870828Y-94969775D02*
X122942257Y-94755489D01*
X124370828Y-94112633D02*
X122870828Y-94112633D01*
X124370828Y-93469776D02*
X123585114Y-93469776D01*
X123585114Y-93469776D02*
X123442257Y-93541204D01*
X123442257Y-93541204D02*
X123370828Y-93684061D01*
X123370828Y-93684061D02*
X123370828Y-93898347D01*
X123370828Y-93898347D02*
X123442257Y-94041204D01*
X123442257Y-94041204D02*
X123513685Y-94112633D01*
X124370828Y-92755490D02*
X123370828Y-92755490D01*
X122870828Y-92755490D02*
X122942257Y-92826918D01*
X122942257Y-92826918D02*
X123013685Y-92755490D01*
X123013685Y-92755490D02*
X122942257Y-92684061D01*
X122942257Y-92684061D02*
X122870828Y-92755490D01*
X122870828Y-92755490D02*
X123013685Y-92755490D01*
X123370828Y-92255489D02*
X123370828Y-91684061D01*
X124370828Y-92041204D02*
X123085114Y-92041204D01*
X123085114Y-92041204D02*
X122942257Y-91969775D01*
X122942257Y-91969775D02*
X122870828Y-91826918D01*
X122870828Y-91826918D02*
X122870828Y-91684061D01*
X123370828Y-91398346D02*
X123370828Y-90826918D01*
X122870828Y-91184061D02*
X124156542Y-91184061D01*
X124156542Y-91184061D02*
X124299400Y-91112632D01*
X124299400Y-91112632D02*
X124370828Y-90969775D01*
X124370828Y-90969775D02*
X124370828Y-90826918D01*
X124299400Y-89755489D02*
X124370828Y-89898346D01*
X124370828Y-89898346D02*
X124370828Y-90184061D01*
X124370828Y-90184061D02*
X124299400Y-90326918D01*
X124299400Y-90326918D02*
X124156542Y-90398346D01*
X124156542Y-90398346D02*
X123585114Y-90398346D01*
X123585114Y-90398346D02*
X123442257Y-90326918D01*
X123442257Y-90326918D02*
X123370828Y-90184061D01*
X123370828Y-90184061D02*
X123370828Y-89898346D01*
X123370828Y-89898346D02*
X123442257Y-89755489D01*
X123442257Y-89755489D02*
X123585114Y-89684061D01*
X123585114Y-89684061D02*
X123727971Y-89684061D01*
X123727971Y-89684061D02*
X123870828Y-90398346D01*
X124370828Y-89041204D02*
X123370828Y-89041204D01*
X123656542Y-89041204D02*
X123513685Y-88969775D01*
X123513685Y-88969775D02*
X123442257Y-88898347D01*
X123442257Y-88898347D02*
X123370828Y-88755489D01*
X123370828Y-88755489D02*
X123370828Y-88612632D01*
D11*
X95327217Y-102578665D02*
X95470074Y-102626284D01*
X95470074Y-102626284D02*
X95517693Y-102673903D01*
X95517693Y-102673903D02*
X95565312Y-102769141D01*
X95565312Y-102769141D02*
X95565312Y-102911998D01*
X95565312Y-102911998D02*
X95517693Y-103007236D01*
X95517693Y-103007236D02*
X95470074Y-103054856D01*
X95470074Y-103054856D02*
X95374836Y-103102475D01*
X95374836Y-103102475D02*
X94993884Y-103102475D01*
X94993884Y-103102475D02*
X94993884Y-102102475D01*
X94993884Y-102102475D02*
X95327217Y-102102475D01*
X95327217Y-102102475D02*
X95422455Y-102150094D01*
X95422455Y-102150094D02*
X95470074Y-102197713D01*
X95470074Y-102197713D02*
X95517693Y-102292951D01*
X95517693Y-102292951D02*
X95517693Y-102388189D01*
X95517693Y-102388189D02*
X95470074Y-102483427D01*
X95470074Y-102483427D02*
X95422455Y-102531046D01*
X95422455Y-102531046D02*
X95327217Y-102578665D01*
X95327217Y-102578665D02*
X94993884Y-102578665D01*
X95993884Y-103102475D02*
X95993884Y-102435808D01*
X95993884Y-102626284D02*
X96041503Y-102531046D01*
X96041503Y-102531046D02*
X96089122Y-102483427D01*
X96089122Y-102483427D02*
X96184360Y-102435808D01*
X96184360Y-102435808D02*
X96279598Y-102435808D01*
X96612932Y-103102475D02*
X96612932Y-102435808D01*
X96612932Y-102102475D02*
X96565313Y-102150094D01*
X96565313Y-102150094D02*
X96612932Y-102197713D01*
X96612932Y-102197713D02*
X96660551Y-102150094D01*
X96660551Y-102150094D02*
X96612932Y-102102475D01*
X96612932Y-102102475D02*
X96612932Y-102197713D01*
X97517693Y-103102475D02*
X97517693Y-102102475D01*
X97517693Y-103054856D02*
X97422455Y-103102475D01*
X97422455Y-103102475D02*
X97231979Y-103102475D01*
X97231979Y-103102475D02*
X97136741Y-103054856D01*
X97136741Y-103054856D02*
X97089122Y-103007236D01*
X97089122Y-103007236D02*
X97041503Y-102911998D01*
X97041503Y-102911998D02*
X97041503Y-102626284D01*
X97041503Y-102626284D02*
X97089122Y-102531046D01*
X97089122Y-102531046D02*
X97136741Y-102483427D01*
X97136741Y-102483427D02*
X97231979Y-102435808D01*
X97231979Y-102435808D02*
X97422455Y-102435808D01*
X97422455Y-102435808D02*
X97517693Y-102483427D01*
X98422455Y-102435808D02*
X98422455Y-103245332D01*
X98422455Y-103245332D02*
X98374836Y-103340570D01*
X98374836Y-103340570D02*
X98327217Y-103388189D01*
X98327217Y-103388189D02*
X98231979Y-103435808D01*
X98231979Y-103435808D02*
X98089122Y-103435808D01*
X98089122Y-103435808D02*
X97993884Y-103388189D01*
X98422455Y-103054856D02*
X98327217Y-103102475D01*
X98327217Y-103102475D02*
X98136741Y-103102475D01*
X98136741Y-103102475D02*
X98041503Y-103054856D01*
X98041503Y-103054856D02*
X97993884Y-103007236D01*
X97993884Y-103007236D02*
X97946265Y-102911998D01*
X97946265Y-102911998D02*
X97946265Y-102626284D01*
X97946265Y-102626284D02*
X97993884Y-102531046D01*
X97993884Y-102531046D02*
X98041503Y-102483427D01*
X98041503Y-102483427D02*
X98136741Y-102435808D01*
X98136741Y-102435808D02*
X98327217Y-102435808D01*
X98327217Y-102435808D02*
X98422455Y-102483427D01*
X99279598Y-103054856D02*
X99184360Y-103102475D01*
X99184360Y-103102475D02*
X98993884Y-103102475D01*
X98993884Y-103102475D02*
X98898646Y-103054856D01*
X98898646Y-103054856D02*
X98851027Y-102959617D01*
X98851027Y-102959617D02*
X98851027Y-102578665D01*
X98851027Y-102578665D02*
X98898646Y-102483427D01*
X98898646Y-102483427D02*
X98993884Y-102435808D01*
X98993884Y-102435808D02*
X99184360Y-102435808D01*
X99184360Y-102435808D02*
X99279598Y-102483427D01*
X99279598Y-102483427D02*
X99327217Y-102578665D01*
X99327217Y-102578665D02*
X99327217Y-102673903D01*
X99327217Y-102673903D02*
X98851027Y-102769141D01*
X101089122Y-103102475D02*
X100755789Y-102626284D01*
X100517694Y-103102475D02*
X100517694Y-102102475D01*
X100517694Y-102102475D02*
X100898646Y-102102475D01*
X100898646Y-102102475D02*
X100993884Y-102150094D01*
X100993884Y-102150094D02*
X101041503Y-102197713D01*
X101041503Y-102197713D02*
X101089122Y-102292951D01*
X101089122Y-102292951D02*
X101089122Y-102435808D01*
X101089122Y-102435808D02*
X101041503Y-102531046D01*
X101041503Y-102531046D02*
X100993884Y-102578665D01*
X100993884Y-102578665D02*
X100898646Y-102626284D01*
X100898646Y-102626284D02*
X100517694Y-102626284D01*
X102041503Y-103102475D02*
X101470075Y-103102475D01*
X101755789Y-103102475D02*
X101755789Y-102102475D01*
X101755789Y-102102475D02*
X101660551Y-102245332D01*
X101660551Y-102245332D02*
X101565313Y-102340570D01*
X101565313Y-102340570D02*
X101470075Y-102388189D01*
X102517694Y-103102475D02*
X102708170Y-103102475D01*
X102708170Y-103102475D02*
X102803408Y-103054856D01*
X102803408Y-103054856D02*
X102851027Y-103007236D01*
X102851027Y-103007236D02*
X102946265Y-102864379D01*
X102946265Y-102864379D02*
X102993884Y-102673903D01*
X102993884Y-102673903D02*
X102993884Y-102292951D01*
X102993884Y-102292951D02*
X102946265Y-102197713D01*
X102946265Y-102197713D02*
X102898646Y-102150094D01*
X102898646Y-102150094D02*
X102803408Y-102102475D01*
X102803408Y-102102475D02*
X102612932Y-102102475D01*
X102612932Y-102102475D02*
X102517694Y-102150094D01*
X102517694Y-102150094D02*
X102470075Y-102197713D01*
X102470075Y-102197713D02*
X102422456Y-102292951D01*
X102422456Y-102292951D02*
X102422456Y-102531046D01*
X102422456Y-102531046D02*
X102470075Y-102626284D01*
X102470075Y-102626284D02*
X102517694Y-102673903D01*
X102517694Y-102673903D02*
X102612932Y-102721522D01*
X102612932Y-102721522D02*
X102803408Y-102721522D01*
X102803408Y-102721522D02*
X102898646Y-102673903D01*
X102898646Y-102673903D02*
X102946265Y-102626284D01*
X102946265Y-102626284D02*
X102993884Y-102531046D01*
X104041504Y-102435808D02*
X104422456Y-102435808D01*
X104184361Y-103102475D02*
X104184361Y-102245332D01*
X104184361Y-102245332D02*
X104231980Y-102150094D01*
X104231980Y-102150094D02*
X104327218Y-102102475D01*
X104327218Y-102102475D02*
X104422456Y-102102475D01*
X104898647Y-103102475D02*
X104803409Y-103054856D01*
X104803409Y-103054856D02*
X104755790Y-103007236D01*
X104755790Y-103007236D02*
X104708171Y-102911998D01*
X104708171Y-102911998D02*
X104708171Y-102626284D01*
X104708171Y-102626284D02*
X104755790Y-102531046D01*
X104755790Y-102531046D02*
X104803409Y-102483427D01*
X104803409Y-102483427D02*
X104898647Y-102435808D01*
X104898647Y-102435808D02*
X105041504Y-102435808D01*
X105041504Y-102435808D02*
X105136742Y-102483427D01*
X105136742Y-102483427D02*
X105184361Y-102531046D01*
X105184361Y-102531046D02*
X105231980Y-102626284D01*
X105231980Y-102626284D02*
X105231980Y-102911998D01*
X105231980Y-102911998D02*
X105184361Y-103007236D01*
X105184361Y-103007236D02*
X105136742Y-103054856D01*
X105136742Y-103054856D02*
X105041504Y-103102475D01*
X105041504Y-103102475D02*
X104898647Y-103102475D01*
X105660552Y-103102475D02*
X105660552Y-102435808D01*
X105660552Y-102626284D02*
X105708171Y-102531046D01*
X105708171Y-102531046D02*
X105755790Y-102483427D01*
X105755790Y-102483427D02*
X105851028Y-102435808D01*
X105851028Y-102435808D02*
X105946266Y-102435808D01*
X107612933Y-103102475D02*
X107279600Y-102626284D01*
X107041505Y-103102475D02*
X107041505Y-102102475D01*
X107041505Y-102102475D02*
X107422457Y-102102475D01*
X107422457Y-102102475D02*
X107517695Y-102150094D01*
X107517695Y-102150094D02*
X107565314Y-102197713D01*
X107565314Y-102197713D02*
X107612933Y-102292951D01*
X107612933Y-102292951D02*
X107612933Y-102435808D01*
X107612933Y-102435808D02*
X107565314Y-102531046D01*
X107565314Y-102531046D02*
X107517695Y-102578665D01*
X107517695Y-102578665D02*
X107422457Y-102626284D01*
X107422457Y-102626284D02*
X107041505Y-102626284D01*
X108184362Y-103102475D02*
X108089124Y-103054856D01*
X108089124Y-103054856D02*
X108041505Y-103007236D01*
X108041505Y-103007236D02*
X107993886Y-102911998D01*
X107993886Y-102911998D02*
X107993886Y-102626284D01*
X107993886Y-102626284D02*
X108041505Y-102531046D01*
X108041505Y-102531046D02*
X108089124Y-102483427D01*
X108089124Y-102483427D02*
X108184362Y-102435808D01*
X108184362Y-102435808D02*
X108327219Y-102435808D01*
X108327219Y-102435808D02*
X108422457Y-102483427D01*
X108422457Y-102483427D02*
X108470076Y-102531046D01*
X108470076Y-102531046D02*
X108517695Y-102626284D01*
X108517695Y-102626284D02*
X108517695Y-102911998D01*
X108517695Y-102911998D02*
X108470076Y-103007236D01*
X108470076Y-103007236D02*
X108422457Y-103054856D01*
X108422457Y-103054856D02*
X108327219Y-103102475D01*
X108327219Y-103102475D02*
X108184362Y-103102475D01*
X108946267Y-103102475D02*
X108946267Y-102102475D01*
X108946267Y-102483427D02*
X109041505Y-102435808D01*
X109041505Y-102435808D02*
X109231981Y-102435808D01*
X109231981Y-102435808D02*
X109327219Y-102483427D01*
X109327219Y-102483427D02*
X109374838Y-102531046D01*
X109374838Y-102531046D02*
X109422457Y-102626284D01*
X109422457Y-102626284D02*
X109422457Y-102911998D01*
X109422457Y-102911998D02*
X109374838Y-103007236D01*
X109374838Y-103007236D02*
X109327219Y-103054856D01*
X109327219Y-103054856D02*
X109231981Y-103102475D01*
X109231981Y-103102475D02*
X109041505Y-103102475D01*
X109041505Y-103102475D02*
X108946267Y-103054856D01*
X109993886Y-103102475D02*
X109898648Y-103054856D01*
X109898648Y-103054856D02*
X109851029Y-103007236D01*
X109851029Y-103007236D02*
X109803410Y-102911998D01*
X109803410Y-102911998D02*
X109803410Y-102626284D01*
X109803410Y-102626284D02*
X109851029Y-102531046D01*
X109851029Y-102531046D02*
X109898648Y-102483427D01*
X109898648Y-102483427D02*
X109993886Y-102435808D01*
X109993886Y-102435808D02*
X110136743Y-102435808D01*
X110136743Y-102435808D02*
X110231981Y-102483427D01*
X110231981Y-102483427D02*
X110279600Y-102531046D01*
X110279600Y-102531046D02*
X110327219Y-102626284D01*
X110327219Y-102626284D02*
X110327219Y-102911998D01*
X110327219Y-102911998D02*
X110279600Y-103007236D01*
X110279600Y-103007236D02*
X110231981Y-103054856D01*
X110231981Y-103054856D02*
X110136743Y-103102475D01*
X110136743Y-103102475D02*
X109993886Y-103102475D01*
X110612934Y-102435808D02*
X110993886Y-102435808D01*
X110755791Y-102102475D02*
X110755791Y-102959617D01*
X110755791Y-102959617D02*
X110803410Y-103054856D01*
X110803410Y-103054856D02*
X110898648Y-103102475D01*
X110898648Y-103102475D02*
X110993886Y-103102475D01*
X112279601Y-102102475D02*
X112374839Y-102102475D01*
X112374839Y-102102475D02*
X112470077Y-102150094D01*
X112470077Y-102150094D02*
X112517696Y-102197713D01*
X112517696Y-102197713D02*
X112565315Y-102292951D01*
X112565315Y-102292951D02*
X112612934Y-102483427D01*
X112612934Y-102483427D02*
X112612934Y-102721522D01*
X112612934Y-102721522D02*
X112565315Y-102911998D01*
X112565315Y-102911998D02*
X112517696Y-103007236D01*
X112517696Y-103007236D02*
X112470077Y-103054856D01*
X112470077Y-103054856D02*
X112374839Y-103102475D01*
X112374839Y-103102475D02*
X112279601Y-103102475D01*
X112279601Y-103102475D02*
X112184363Y-103054856D01*
X112184363Y-103054856D02*
X112136744Y-103007236D01*
X112136744Y-103007236D02*
X112089125Y-102911998D01*
X112089125Y-102911998D02*
X112041506Y-102721522D01*
X112041506Y-102721522D02*
X112041506Y-102483427D01*
X112041506Y-102483427D02*
X112089125Y-102292951D01*
X112089125Y-102292951D02*
X112136744Y-102197713D01*
X112136744Y-102197713D02*
X112184363Y-102150094D01*
X112184363Y-102150094D02*
X112279601Y-102102475D01*
X95327217Y-104188609D02*
X95470074Y-104236228D01*
X95470074Y-104236228D02*
X95517693Y-104283847D01*
X95517693Y-104283847D02*
X95565312Y-104379085D01*
X95565312Y-104379085D02*
X95565312Y-104521942D01*
X95565312Y-104521942D02*
X95517693Y-104617180D01*
X95517693Y-104617180D02*
X95470074Y-104664800D01*
X95470074Y-104664800D02*
X95374836Y-104712419D01*
X95374836Y-104712419D02*
X94993884Y-104712419D01*
X94993884Y-104712419D02*
X94993884Y-103712419D01*
X94993884Y-103712419D02*
X95327217Y-103712419D01*
X95327217Y-103712419D02*
X95422455Y-103760038D01*
X95422455Y-103760038D02*
X95470074Y-103807657D01*
X95470074Y-103807657D02*
X95517693Y-103902895D01*
X95517693Y-103902895D02*
X95517693Y-103998133D01*
X95517693Y-103998133D02*
X95470074Y-104093371D01*
X95470074Y-104093371D02*
X95422455Y-104140990D01*
X95422455Y-104140990D02*
X95327217Y-104188609D01*
X95327217Y-104188609D02*
X94993884Y-104188609D01*
X95993884Y-104712419D02*
X95993884Y-104045752D01*
X95993884Y-104236228D02*
X96041503Y-104140990D01*
X96041503Y-104140990D02*
X96089122Y-104093371D01*
X96089122Y-104093371D02*
X96184360Y-104045752D01*
X96184360Y-104045752D02*
X96279598Y-104045752D01*
X96612932Y-104712419D02*
X96612932Y-104045752D01*
X96612932Y-103712419D02*
X96565313Y-103760038D01*
X96565313Y-103760038D02*
X96612932Y-103807657D01*
X96612932Y-103807657D02*
X96660551Y-103760038D01*
X96660551Y-103760038D02*
X96612932Y-103712419D01*
X96612932Y-103712419D02*
X96612932Y-103807657D01*
X97517693Y-104712419D02*
X97517693Y-103712419D01*
X97517693Y-104664800D02*
X97422455Y-104712419D01*
X97422455Y-104712419D02*
X97231979Y-104712419D01*
X97231979Y-104712419D02*
X97136741Y-104664800D01*
X97136741Y-104664800D02*
X97089122Y-104617180D01*
X97089122Y-104617180D02*
X97041503Y-104521942D01*
X97041503Y-104521942D02*
X97041503Y-104236228D01*
X97041503Y-104236228D02*
X97089122Y-104140990D01*
X97089122Y-104140990D02*
X97136741Y-104093371D01*
X97136741Y-104093371D02*
X97231979Y-104045752D01*
X97231979Y-104045752D02*
X97422455Y-104045752D01*
X97422455Y-104045752D02*
X97517693Y-104093371D01*
X98422455Y-104045752D02*
X98422455Y-104855276D01*
X98422455Y-104855276D02*
X98374836Y-104950514D01*
X98374836Y-104950514D02*
X98327217Y-104998133D01*
X98327217Y-104998133D02*
X98231979Y-105045752D01*
X98231979Y-105045752D02*
X98089122Y-105045752D01*
X98089122Y-105045752D02*
X97993884Y-104998133D01*
X98422455Y-104664800D02*
X98327217Y-104712419D01*
X98327217Y-104712419D02*
X98136741Y-104712419D01*
X98136741Y-104712419D02*
X98041503Y-104664800D01*
X98041503Y-104664800D02*
X97993884Y-104617180D01*
X97993884Y-104617180D02*
X97946265Y-104521942D01*
X97946265Y-104521942D02*
X97946265Y-104236228D01*
X97946265Y-104236228D02*
X97993884Y-104140990D01*
X97993884Y-104140990D02*
X98041503Y-104093371D01*
X98041503Y-104093371D02*
X98136741Y-104045752D01*
X98136741Y-104045752D02*
X98327217Y-104045752D01*
X98327217Y-104045752D02*
X98422455Y-104093371D01*
X99279598Y-104664800D02*
X99184360Y-104712419D01*
X99184360Y-104712419D02*
X98993884Y-104712419D01*
X98993884Y-104712419D02*
X98898646Y-104664800D01*
X98898646Y-104664800D02*
X98851027Y-104569561D01*
X98851027Y-104569561D02*
X98851027Y-104188609D01*
X98851027Y-104188609D02*
X98898646Y-104093371D01*
X98898646Y-104093371D02*
X98993884Y-104045752D01*
X98993884Y-104045752D02*
X99184360Y-104045752D01*
X99184360Y-104045752D02*
X99279598Y-104093371D01*
X99279598Y-104093371D02*
X99327217Y-104188609D01*
X99327217Y-104188609D02*
X99327217Y-104283847D01*
X99327217Y-104283847D02*
X98851027Y-104379085D01*
X101089122Y-104712419D02*
X100755789Y-104236228D01*
X100517694Y-104712419D02*
X100517694Y-103712419D01*
X100517694Y-103712419D02*
X100898646Y-103712419D01*
X100898646Y-103712419D02*
X100993884Y-103760038D01*
X100993884Y-103760038D02*
X101041503Y-103807657D01*
X101041503Y-103807657D02*
X101089122Y-103902895D01*
X101089122Y-103902895D02*
X101089122Y-104045752D01*
X101089122Y-104045752D02*
X101041503Y-104140990D01*
X101041503Y-104140990D02*
X100993884Y-104188609D01*
X100993884Y-104188609D02*
X100898646Y-104236228D01*
X100898646Y-104236228D02*
X100517694Y-104236228D01*
X101470075Y-103807657D02*
X101517694Y-103760038D01*
X101517694Y-103760038D02*
X101612932Y-103712419D01*
X101612932Y-103712419D02*
X101851027Y-103712419D01*
X101851027Y-103712419D02*
X101946265Y-103760038D01*
X101946265Y-103760038D02*
X101993884Y-103807657D01*
X101993884Y-103807657D02*
X102041503Y-103902895D01*
X102041503Y-103902895D02*
X102041503Y-103998133D01*
X102041503Y-103998133D02*
X101993884Y-104140990D01*
X101993884Y-104140990D02*
X101422456Y-104712419D01*
X101422456Y-104712419D02*
X102041503Y-104712419D01*
X102660551Y-103712419D02*
X102755789Y-103712419D01*
X102755789Y-103712419D02*
X102851027Y-103760038D01*
X102851027Y-103760038D02*
X102898646Y-103807657D01*
X102898646Y-103807657D02*
X102946265Y-103902895D01*
X102946265Y-103902895D02*
X102993884Y-104093371D01*
X102993884Y-104093371D02*
X102993884Y-104331466D01*
X102993884Y-104331466D02*
X102946265Y-104521942D01*
X102946265Y-104521942D02*
X102898646Y-104617180D01*
X102898646Y-104617180D02*
X102851027Y-104664800D01*
X102851027Y-104664800D02*
X102755789Y-104712419D01*
X102755789Y-104712419D02*
X102660551Y-104712419D01*
X102660551Y-104712419D02*
X102565313Y-104664800D01*
X102565313Y-104664800D02*
X102517694Y-104617180D01*
X102517694Y-104617180D02*
X102470075Y-104521942D01*
X102470075Y-104521942D02*
X102422456Y-104331466D01*
X102422456Y-104331466D02*
X102422456Y-104093371D01*
X102422456Y-104093371D02*
X102470075Y-103902895D01*
X102470075Y-103902895D02*
X102517694Y-103807657D01*
X102517694Y-103807657D02*
X102565313Y-103760038D01*
X102565313Y-103760038D02*
X102660551Y-103712419D01*
X104041504Y-104045752D02*
X104422456Y-104045752D01*
X104184361Y-104712419D02*
X104184361Y-103855276D01*
X104184361Y-103855276D02*
X104231980Y-103760038D01*
X104231980Y-103760038D02*
X104327218Y-103712419D01*
X104327218Y-103712419D02*
X104422456Y-103712419D01*
X104898647Y-104712419D02*
X104803409Y-104664800D01*
X104803409Y-104664800D02*
X104755790Y-104617180D01*
X104755790Y-104617180D02*
X104708171Y-104521942D01*
X104708171Y-104521942D02*
X104708171Y-104236228D01*
X104708171Y-104236228D02*
X104755790Y-104140990D01*
X104755790Y-104140990D02*
X104803409Y-104093371D01*
X104803409Y-104093371D02*
X104898647Y-104045752D01*
X104898647Y-104045752D02*
X105041504Y-104045752D01*
X105041504Y-104045752D02*
X105136742Y-104093371D01*
X105136742Y-104093371D02*
X105184361Y-104140990D01*
X105184361Y-104140990D02*
X105231980Y-104236228D01*
X105231980Y-104236228D02*
X105231980Y-104521942D01*
X105231980Y-104521942D02*
X105184361Y-104617180D01*
X105184361Y-104617180D02*
X105136742Y-104664800D01*
X105136742Y-104664800D02*
X105041504Y-104712419D01*
X105041504Y-104712419D02*
X104898647Y-104712419D01*
X105660552Y-104712419D02*
X105660552Y-104045752D01*
X105660552Y-104236228D02*
X105708171Y-104140990D01*
X105708171Y-104140990D02*
X105755790Y-104093371D01*
X105755790Y-104093371D02*
X105851028Y-104045752D01*
X105851028Y-104045752D02*
X105946266Y-104045752D01*
X107612933Y-104712419D02*
X107279600Y-104236228D01*
X107041505Y-104712419D02*
X107041505Y-103712419D01*
X107041505Y-103712419D02*
X107422457Y-103712419D01*
X107422457Y-103712419D02*
X107517695Y-103760038D01*
X107517695Y-103760038D02*
X107565314Y-103807657D01*
X107565314Y-103807657D02*
X107612933Y-103902895D01*
X107612933Y-103902895D02*
X107612933Y-104045752D01*
X107612933Y-104045752D02*
X107565314Y-104140990D01*
X107565314Y-104140990D02*
X107517695Y-104188609D01*
X107517695Y-104188609D02*
X107422457Y-104236228D01*
X107422457Y-104236228D02*
X107041505Y-104236228D01*
X108184362Y-104712419D02*
X108089124Y-104664800D01*
X108089124Y-104664800D02*
X108041505Y-104617180D01*
X108041505Y-104617180D02*
X107993886Y-104521942D01*
X107993886Y-104521942D02*
X107993886Y-104236228D01*
X107993886Y-104236228D02*
X108041505Y-104140990D01*
X108041505Y-104140990D02*
X108089124Y-104093371D01*
X108089124Y-104093371D02*
X108184362Y-104045752D01*
X108184362Y-104045752D02*
X108327219Y-104045752D01*
X108327219Y-104045752D02*
X108422457Y-104093371D01*
X108422457Y-104093371D02*
X108470076Y-104140990D01*
X108470076Y-104140990D02*
X108517695Y-104236228D01*
X108517695Y-104236228D02*
X108517695Y-104521942D01*
X108517695Y-104521942D02*
X108470076Y-104617180D01*
X108470076Y-104617180D02*
X108422457Y-104664800D01*
X108422457Y-104664800D02*
X108327219Y-104712419D01*
X108327219Y-104712419D02*
X108184362Y-104712419D01*
X108946267Y-104712419D02*
X108946267Y-103712419D01*
X108946267Y-104093371D02*
X109041505Y-104045752D01*
X109041505Y-104045752D02*
X109231981Y-104045752D01*
X109231981Y-104045752D02*
X109327219Y-104093371D01*
X109327219Y-104093371D02*
X109374838Y-104140990D01*
X109374838Y-104140990D02*
X109422457Y-104236228D01*
X109422457Y-104236228D02*
X109422457Y-104521942D01*
X109422457Y-104521942D02*
X109374838Y-104617180D01*
X109374838Y-104617180D02*
X109327219Y-104664800D01*
X109327219Y-104664800D02*
X109231981Y-104712419D01*
X109231981Y-104712419D02*
X109041505Y-104712419D01*
X109041505Y-104712419D02*
X108946267Y-104664800D01*
X109993886Y-104712419D02*
X109898648Y-104664800D01*
X109898648Y-104664800D02*
X109851029Y-104617180D01*
X109851029Y-104617180D02*
X109803410Y-104521942D01*
X109803410Y-104521942D02*
X109803410Y-104236228D01*
X109803410Y-104236228D02*
X109851029Y-104140990D01*
X109851029Y-104140990D02*
X109898648Y-104093371D01*
X109898648Y-104093371D02*
X109993886Y-104045752D01*
X109993886Y-104045752D02*
X110136743Y-104045752D01*
X110136743Y-104045752D02*
X110231981Y-104093371D01*
X110231981Y-104093371D02*
X110279600Y-104140990D01*
X110279600Y-104140990D02*
X110327219Y-104236228D01*
X110327219Y-104236228D02*
X110327219Y-104521942D01*
X110327219Y-104521942D02*
X110279600Y-104617180D01*
X110279600Y-104617180D02*
X110231981Y-104664800D01*
X110231981Y-104664800D02*
X110136743Y-104712419D01*
X110136743Y-104712419D02*
X109993886Y-104712419D01*
X110612934Y-104045752D02*
X110993886Y-104045752D01*
X110755791Y-103712419D02*
X110755791Y-104569561D01*
X110755791Y-104569561D02*
X110803410Y-104664800D01*
X110803410Y-104664800D02*
X110898648Y-104712419D01*
X110898648Y-104712419D02*
X110993886Y-104712419D01*
X112612934Y-104712419D02*
X112041506Y-104712419D01*
X112327220Y-104712419D02*
X112327220Y-103712419D01*
X112327220Y-103712419D02*
X112231982Y-103855276D01*
X112231982Y-103855276D02*
X112136744Y-103950514D01*
X112136744Y-103950514D02*
X112041506Y-103998133D01*
D10*
X109934510Y-87120828D02*
X109934510Y-85620828D01*
X109934510Y-85620828D02*
X110434510Y-86692257D01*
X110434510Y-86692257D02*
X110934510Y-85620828D01*
X110934510Y-85620828D02*
X110934510Y-87120828D01*
X111863082Y-87120828D02*
X111720225Y-87049400D01*
X111720225Y-87049400D02*
X111648796Y-86977971D01*
X111648796Y-86977971D02*
X111577368Y-86835114D01*
X111577368Y-86835114D02*
X111577368Y-86406542D01*
X111577368Y-86406542D02*
X111648796Y-86263685D01*
X111648796Y-86263685D02*
X111720225Y-86192257D01*
X111720225Y-86192257D02*
X111863082Y-86120828D01*
X111863082Y-86120828D02*
X112077368Y-86120828D01*
X112077368Y-86120828D02*
X112220225Y-86192257D01*
X112220225Y-86192257D02*
X112291654Y-86263685D01*
X112291654Y-86263685D02*
X112363082Y-86406542D01*
X112363082Y-86406542D02*
X112363082Y-86835114D01*
X112363082Y-86835114D02*
X112291654Y-86977971D01*
X112291654Y-86977971D02*
X112220225Y-87049400D01*
X112220225Y-87049400D02*
X112077368Y-87120828D01*
X112077368Y-87120828D02*
X111863082Y-87120828D01*
X112791654Y-86120828D02*
X113363082Y-86120828D01*
X113005939Y-85620828D02*
X113005939Y-86906542D01*
X113005939Y-86906542D02*
X113077368Y-87049400D01*
X113077368Y-87049400D02*
X113220225Y-87120828D01*
X113220225Y-87120828D02*
X113363082Y-87120828D01*
X114077368Y-87120828D02*
X113934511Y-87049400D01*
X113934511Y-87049400D02*
X113863082Y-86977971D01*
X113863082Y-86977971D02*
X113791654Y-86835114D01*
X113791654Y-86835114D02*
X113791654Y-86406542D01*
X113791654Y-86406542D02*
X113863082Y-86263685D01*
X113863082Y-86263685D02*
X113934511Y-86192257D01*
X113934511Y-86192257D02*
X114077368Y-86120828D01*
X114077368Y-86120828D02*
X114291654Y-86120828D01*
X114291654Y-86120828D02*
X114434511Y-86192257D01*
X114434511Y-86192257D02*
X114505940Y-86263685D01*
X114505940Y-86263685D02*
X114577368Y-86406542D01*
X114577368Y-86406542D02*
X114577368Y-86835114D01*
X114577368Y-86835114D02*
X114505940Y-86977971D01*
X114505940Y-86977971D02*
X114434511Y-87049400D01*
X114434511Y-87049400D02*
X114291654Y-87120828D01*
X114291654Y-87120828D02*
X114077368Y-87120828D01*
X115220225Y-87120828D02*
X115220225Y-86120828D01*
X115220225Y-86406542D02*
X115291654Y-86263685D01*
X115291654Y-86263685D02*
X115363083Y-86192257D01*
X115363083Y-86192257D02*
X115505940Y-86120828D01*
X115505940Y-86120828D02*
X115648797Y-86120828D01*
X117791653Y-86335114D02*
X117291653Y-86335114D01*
X117291653Y-87120828D02*
X117291653Y-85620828D01*
X117291653Y-85620828D02*
X118005939Y-85620828D01*
X119434510Y-87120828D02*
X118934510Y-86406542D01*
X118577367Y-87120828D02*
X118577367Y-85620828D01*
X118577367Y-85620828D02*
X119148796Y-85620828D01*
X119148796Y-85620828D02*
X119291653Y-85692257D01*
X119291653Y-85692257D02*
X119363082Y-85763685D01*
X119363082Y-85763685D02*
X119434510Y-85906542D01*
X119434510Y-85906542D02*
X119434510Y-86120828D01*
X119434510Y-86120828D02*
X119363082Y-86263685D01*
X119363082Y-86263685D02*
X119291653Y-86335114D01*
X119291653Y-86335114D02*
X119148796Y-86406542D01*
X119148796Y-86406542D02*
X118577367Y-86406542D01*
X48401653Y-90589971D02*
X48330225Y-90661400D01*
X48330225Y-90661400D02*
X48115939Y-90732828D01*
X48115939Y-90732828D02*
X47973082Y-90732828D01*
X47973082Y-90732828D02*
X47758796Y-90661400D01*
X47758796Y-90661400D02*
X47615939Y-90518542D01*
X47615939Y-90518542D02*
X47544510Y-90375685D01*
X47544510Y-90375685D02*
X47473082Y-90089971D01*
X47473082Y-90089971D02*
X47473082Y-89875685D01*
X47473082Y-89875685D02*
X47544510Y-89589971D01*
X47544510Y-89589971D02*
X47615939Y-89447114D01*
X47615939Y-89447114D02*
X47758796Y-89304257D01*
X47758796Y-89304257D02*
X47973082Y-89232828D01*
X47973082Y-89232828D02*
X48115939Y-89232828D01*
X48115939Y-89232828D02*
X48330225Y-89304257D01*
X48330225Y-89304257D02*
X48401653Y-89375685D01*
X48973082Y-90304257D02*
X49687368Y-90304257D01*
X48830225Y-90732828D02*
X49330225Y-89232828D01*
X49330225Y-89232828D02*
X49830225Y-90732828D01*
X51044510Y-90732828D02*
X50330224Y-90732828D01*
X50330224Y-90732828D02*
X50330224Y-89232828D01*
X51544510Y-90732828D02*
X51544510Y-89232828D01*
X52758796Y-89947114D02*
X52973082Y-90018542D01*
X52973082Y-90018542D02*
X53044511Y-90089971D01*
X53044511Y-90089971D02*
X53115939Y-90232828D01*
X53115939Y-90232828D02*
X53115939Y-90447114D01*
X53115939Y-90447114D02*
X53044511Y-90589971D01*
X53044511Y-90589971D02*
X52973082Y-90661400D01*
X52973082Y-90661400D02*
X52830225Y-90732828D01*
X52830225Y-90732828D02*
X52258796Y-90732828D01*
X52258796Y-90732828D02*
X52258796Y-89232828D01*
X52258796Y-89232828D02*
X52758796Y-89232828D01*
X52758796Y-89232828D02*
X52901654Y-89304257D01*
X52901654Y-89304257D02*
X52973082Y-89375685D01*
X52973082Y-89375685D02*
X53044511Y-89518542D01*
X53044511Y-89518542D02*
X53044511Y-89661400D01*
X53044511Y-89661400D02*
X52973082Y-89804257D01*
X52973082Y-89804257D02*
X52901654Y-89875685D01*
X52901654Y-89875685D02*
X52758796Y-89947114D01*
X52758796Y-89947114D02*
X52258796Y-89947114D01*
X54615939Y-90732828D02*
X54115939Y-90018542D01*
X53758796Y-90732828D02*
X53758796Y-89232828D01*
X53758796Y-89232828D02*
X54330225Y-89232828D01*
X54330225Y-89232828D02*
X54473082Y-89304257D01*
X54473082Y-89304257D02*
X54544511Y-89375685D01*
X54544511Y-89375685D02*
X54615939Y-89518542D01*
X54615939Y-89518542D02*
X54615939Y-89732828D01*
X54615939Y-89732828D02*
X54544511Y-89875685D01*
X54544511Y-89875685D02*
X54473082Y-89947114D01*
X54473082Y-89947114D02*
X54330225Y-90018542D01*
X54330225Y-90018542D02*
X53758796Y-90018542D01*
X55187368Y-90304257D02*
X55901654Y-90304257D01*
X55044511Y-90732828D02*
X55544511Y-89232828D01*
X55544511Y-89232828D02*
X56044511Y-90732828D01*
X56330225Y-89232828D02*
X57187368Y-89232828D01*
X56758796Y-90732828D02*
X56758796Y-89232828D01*
X57687367Y-90732828D02*
X57687367Y-89232828D01*
X58687368Y-89232828D02*
X58973082Y-89232828D01*
X58973082Y-89232828D02*
X59115939Y-89304257D01*
X59115939Y-89304257D02*
X59258796Y-89447114D01*
X59258796Y-89447114D02*
X59330225Y-89732828D01*
X59330225Y-89732828D02*
X59330225Y-90232828D01*
X59330225Y-90232828D02*
X59258796Y-90518542D01*
X59258796Y-90518542D02*
X59115939Y-90661400D01*
X59115939Y-90661400D02*
X58973082Y-90732828D01*
X58973082Y-90732828D02*
X58687368Y-90732828D01*
X58687368Y-90732828D02*
X58544511Y-90661400D01*
X58544511Y-90661400D02*
X58401653Y-90518542D01*
X58401653Y-90518542D02*
X58330225Y-90232828D01*
X58330225Y-90232828D02*
X58330225Y-89732828D01*
X58330225Y-89732828D02*
X58401653Y-89447114D01*
X58401653Y-89447114D02*
X58544511Y-89304257D01*
X58544511Y-89304257D02*
X58687368Y-89232828D01*
X59973082Y-90732828D02*
X59973082Y-89232828D01*
X59973082Y-89232828D02*
X60830225Y-90732828D01*
X60830225Y-90732828D02*
X60830225Y-89232828D01*
X100408828Y-131319203D02*
X100408828Y-132033489D01*
X100408828Y-132033489D02*
X101123114Y-132104917D01*
X101123114Y-132104917D02*
X101051685Y-132033489D01*
X101051685Y-132033489D02*
X100980257Y-131890632D01*
X100980257Y-131890632D02*
X100980257Y-131533489D01*
X100980257Y-131533489D02*
X101051685Y-131390632D01*
X101051685Y-131390632D02*
X101123114Y-131319203D01*
X101123114Y-131319203D02*
X101265971Y-131247774D01*
X101265971Y-131247774D02*
X101623114Y-131247774D01*
X101623114Y-131247774D02*
X101765971Y-131319203D01*
X101765971Y-131319203D02*
X101837400Y-131390632D01*
X101837400Y-131390632D02*
X101908828Y-131533489D01*
X101908828Y-131533489D02*
X101908828Y-131890632D01*
X101908828Y-131890632D02*
X101837400Y-132033489D01*
X101837400Y-132033489D02*
X101765971Y-132104917D01*
X100408828Y-129676346D02*
X101908828Y-129176346D01*
X101908828Y-129176346D02*
X100408828Y-128676346D01*
X100408828Y-127890632D02*
X100408828Y-127604918D01*
X100408828Y-127604918D02*
X100480257Y-127462061D01*
X100480257Y-127462061D02*
X100623114Y-127319204D01*
X100623114Y-127319204D02*
X100908828Y-127247775D01*
X100908828Y-127247775D02*
X101408828Y-127247775D01*
X101408828Y-127247775D02*
X101694542Y-127319204D01*
X101694542Y-127319204D02*
X101837400Y-127462061D01*
X101837400Y-127462061D02*
X101908828Y-127604918D01*
X101908828Y-127604918D02*
X101908828Y-127890632D01*
X101908828Y-127890632D02*
X101837400Y-128033490D01*
X101837400Y-128033490D02*
X101694542Y-128176347D01*
X101694542Y-128176347D02*
X101408828Y-128247775D01*
X101408828Y-128247775D02*
X100908828Y-128247775D01*
X100908828Y-128247775D02*
X100623114Y-128176347D01*
X100623114Y-128176347D02*
X100480257Y-128033490D01*
X100480257Y-128033490D02*
X100408828Y-127890632D01*
X101908828Y-125890632D02*
X101908828Y-126604918D01*
X101908828Y-126604918D02*
X100408828Y-126604918D01*
X100408828Y-125604917D02*
X100408828Y-124747775D01*
X101908828Y-125176346D02*
X100408828Y-125176346D01*
X101837400Y-124319203D02*
X101908828Y-124104918D01*
X101908828Y-124104918D02*
X101908828Y-123747775D01*
X101908828Y-123747775D02*
X101837400Y-123604918D01*
X101837400Y-123604918D02*
X101765971Y-123533489D01*
X101765971Y-123533489D02*
X101623114Y-123462060D01*
X101623114Y-123462060D02*
X101480257Y-123462060D01*
X101480257Y-123462060D02*
X101337400Y-123533489D01*
X101337400Y-123533489D02*
X101265971Y-123604918D01*
X101265971Y-123604918D02*
X101194542Y-123747775D01*
X101194542Y-123747775D02*
X101123114Y-124033489D01*
X101123114Y-124033489D02*
X101051685Y-124176346D01*
X101051685Y-124176346D02*
X100980257Y-124247775D01*
X100980257Y-124247775D02*
X100837400Y-124319203D01*
X100837400Y-124319203D02*
X100694542Y-124319203D01*
X100694542Y-124319203D02*
X100551685Y-124247775D01*
X100551685Y-124247775D02*
X100480257Y-124176346D01*
X100480257Y-124176346D02*
X100408828Y-124033489D01*
X100408828Y-124033489D02*
X100408828Y-123676346D01*
X100408828Y-123676346D02*
X100480257Y-123462060D01*
X144305114Y-89385489D02*
X144376542Y-89171203D01*
X144376542Y-89171203D02*
X144447971Y-89099774D01*
X144447971Y-89099774D02*
X144590828Y-89028346D01*
X144590828Y-89028346D02*
X144805114Y-89028346D01*
X144805114Y-89028346D02*
X144947971Y-89099774D01*
X144947971Y-89099774D02*
X145019400Y-89171203D01*
X145019400Y-89171203D02*
X145090828Y-89314060D01*
X145090828Y-89314060D02*
X145090828Y-89885489D01*
X145090828Y-89885489D02*
X143590828Y-89885489D01*
X143590828Y-89885489D02*
X143590828Y-89385489D01*
X143590828Y-89385489D02*
X143662257Y-89242632D01*
X143662257Y-89242632D02*
X143733685Y-89171203D01*
X143733685Y-89171203D02*
X143876542Y-89099774D01*
X143876542Y-89099774D02*
X144019400Y-89099774D01*
X144019400Y-89099774D02*
X144162257Y-89171203D01*
X144162257Y-89171203D02*
X144233685Y-89242632D01*
X144233685Y-89242632D02*
X144305114Y-89385489D01*
X144305114Y-89385489D02*
X144305114Y-89885489D01*
X145090828Y-88171203D02*
X145019400Y-88314060D01*
X145019400Y-88314060D02*
X144947971Y-88385489D01*
X144947971Y-88385489D02*
X144805114Y-88456917D01*
X144805114Y-88456917D02*
X144376542Y-88456917D01*
X144376542Y-88456917D02*
X144233685Y-88385489D01*
X144233685Y-88385489D02*
X144162257Y-88314060D01*
X144162257Y-88314060D02*
X144090828Y-88171203D01*
X144090828Y-88171203D02*
X144090828Y-87956917D01*
X144090828Y-87956917D02*
X144162257Y-87814060D01*
X144162257Y-87814060D02*
X144233685Y-87742632D01*
X144233685Y-87742632D02*
X144376542Y-87671203D01*
X144376542Y-87671203D02*
X144805114Y-87671203D01*
X144805114Y-87671203D02*
X144947971Y-87742632D01*
X144947971Y-87742632D02*
X145019400Y-87814060D01*
X145019400Y-87814060D02*
X145090828Y-87956917D01*
X145090828Y-87956917D02*
X145090828Y-88171203D01*
X145090828Y-86814060D02*
X145019400Y-86956917D01*
X145019400Y-86956917D02*
X144947971Y-87028346D01*
X144947971Y-87028346D02*
X144805114Y-87099774D01*
X144805114Y-87099774D02*
X144376542Y-87099774D01*
X144376542Y-87099774D02*
X144233685Y-87028346D01*
X144233685Y-87028346D02*
X144162257Y-86956917D01*
X144162257Y-86956917D02*
X144090828Y-86814060D01*
X144090828Y-86814060D02*
X144090828Y-86599774D01*
X144090828Y-86599774D02*
X144162257Y-86456917D01*
X144162257Y-86456917D02*
X144233685Y-86385489D01*
X144233685Y-86385489D02*
X144376542Y-86314060D01*
X144376542Y-86314060D02*
X144805114Y-86314060D01*
X144805114Y-86314060D02*
X144947971Y-86385489D01*
X144947971Y-86385489D02*
X145019400Y-86456917D01*
X145019400Y-86456917D02*
X145090828Y-86599774D01*
X145090828Y-86599774D02*
X145090828Y-86814060D01*
X145019400Y-85742631D02*
X145090828Y-85599774D01*
X145090828Y-85599774D02*
X145090828Y-85314060D01*
X145090828Y-85314060D02*
X145019400Y-85171203D01*
X145019400Y-85171203D02*
X144876542Y-85099774D01*
X144876542Y-85099774D02*
X144805114Y-85099774D01*
X144805114Y-85099774D02*
X144662257Y-85171203D01*
X144662257Y-85171203D02*
X144590828Y-85314060D01*
X144590828Y-85314060D02*
X144590828Y-85528346D01*
X144590828Y-85528346D02*
X144519400Y-85671203D01*
X144519400Y-85671203D02*
X144376542Y-85742631D01*
X144376542Y-85742631D02*
X144305114Y-85742631D01*
X144305114Y-85742631D02*
X144162257Y-85671203D01*
X144162257Y-85671203D02*
X144090828Y-85528346D01*
X144090828Y-85528346D02*
X144090828Y-85314060D01*
X144090828Y-85314060D02*
X144162257Y-85171203D01*
X144090828Y-84671202D02*
X144090828Y-84099774D01*
X143590828Y-84456917D02*
X144876542Y-84456917D01*
X144876542Y-84456917D02*
X145019400Y-84385488D01*
X145019400Y-84385488D02*
X145090828Y-84242631D01*
X145090828Y-84242631D02*
X145090828Y-84099774D01*
X145090828Y-82456917D02*
X143590828Y-82456917D01*
X143590828Y-82456917D02*
X143590828Y-81885488D01*
X143590828Y-81885488D02*
X143662257Y-81742631D01*
X143662257Y-81742631D02*
X143733685Y-81671202D01*
X143733685Y-81671202D02*
X143876542Y-81599774D01*
X143876542Y-81599774D02*
X144090828Y-81599774D01*
X144090828Y-81599774D02*
X144233685Y-81671202D01*
X144233685Y-81671202D02*
X144305114Y-81742631D01*
X144305114Y-81742631D02*
X144376542Y-81885488D01*
X144376542Y-81885488D02*
X144376542Y-82456917D01*
X144947971Y-80099774D02*
X145019400Y-80171202D01*
X145019400Y-80171202D02*
X145090828Y-80385488D01*
X145090828Y-80385488D02*
X145090828Y-80528345D01*
X145090828Y-80528345D02*
X145019400Y-80742631D01*
X145019400Y-80742631D02*
X144876542Y-80885488D01*
X144876542Y-80885488D02*
X144733685Y-80956917D01*
X144733685Y-80956917D02*
X144447971Y-81028345D01*
X144447971Y-81028345D02*
X144233685Y-81028345D01*
X144233685Y-81028345D02*
X143947971Y-80956917D01*
X143947971Y-80956917D02*
X143805114Y-80885488D01*
X143805114Y-80885488D02*
X143662257Y-80742631D01*
X143662257Y-80742631D02*
X143590828Y-80528345D01*
X143590828Y-80528345D02*
X143590828Y-80385488D01*
X143590828Y-80385488D02*
X143662257Y-80171202D01*
X143662257Y-80171202D02*
X143733685Y-80099774D01*
X144305114Y-78956917D02*
X144376542Y-78742631D01*
X144376542Y-78742631D02*
X144447971Y-78671202D01*
X144447971Y-78671202D02*
X144590828Y-78599774D01*
X144590828Y-78599774D02*
X144805114Y-78599774D01*
X144805114Y-78599774D02*
X144947971Y-78671202D01*
X144947971Y-78671202D02*
X145019400Y-78742631D01*
X145019400Y-78742631D02*
X145090828Y-78885488D01*
X145090828Y-78885488D02*
X145090828Y-79456917D01*
X145090828Y-79456917D02*
X143590828Y-79456917D01*
X143590828Y-79456917D02*
X143590828Y-78956917D01*
X143590828Y-78956917D02*
X143662257Y-78814060D01*
X143662257Y-78814060D02*
X143733685Y-78742631D01*
X143733685Y-78742631D02*
X143876542Y-78671202D01*
X143876542Y-78671202D02*
X144019400Y-78671202D01*
X144019400Y-78671202D02*
X144162257Y-78742631D01*
X144162257Y-78742631D02*
X144233685Y-78814060D01*
X144233685Y-78814060D02*
X144305114Y-78956917D01*
X144305114Y-78956917D02*
X144305114Y-79456917D01*
X47798510Y-104702828D02*
X47798510Y-103202828D01*
X48655653Y-104702828D02*
X48012796Y-103845685D01*
X48655653Y-103202828D02*
X47798510Y-104059971D01*
X49298510Y-104702828D02*
X49298510Y-103202828D01*
X50869939Y-104559971D02*
X50798511Y-104631400D01*
X50798511Y-104631400D02*
X50584225Y-104702828D01*
X50584225Y-104702828D02*
X50441368Y-104702828D01*
X50441368Y-104702828D02*
X50227082Y-104631400D01*
X50227082Y-104631400D02*
X50084225Y-104488542D01*
X50084225Y-104488542D02*
X50012796Y-104345685D01*
X50012796Y-104345685D02*
X49941368Y-104059971D01*
X49941368Y-104059971D02*
X49941368Y-103845685D01*
X49941368Y-103845685D02*
X50012796Y-103559971D01*
X50012796Y-103559971D02*
X50084225Y-103417114D01*
X50084225Y-103417114D02*
X50227082Y-103274257D01*
X50227082Y-103274257D02*
X50441368Y-103202828D01*
X50441368Y-103202828D02*
X50584225Y-103202828D01*
X50584225Y-103202828D02*
X50798511Y-103274257D01*
X50798511Y-103274257D02*
X50869939Y-103345685D01*
X51512796Y-104702828D02*
X51512796Y-103202828D01*
X52369939Y-104702828D02*
X51727082Y-103845685D01*
X52369939Y-103202828D02*
X51512796Y-104059971D01*
X53298511Y-103202828D02*
X53584225Y-103202828D01*
X53584225Y-103202828D02*
X53727082Y-103274257D01*
X53727082Y-103274257D02*
X53869939Y-103417114D01*
X53869939Y-103417114D02*
X53941368Y-103702828D01*
X53941368Y-103702828D02*
X53941368Y-104202828D01*
X53941368Y-104202828D02*
X53869939Y-104488542D01*
X53869939Y-104488542D02*
X53727082Y-104631400D01*
X53727082Y-104631400D02*
X53584225Y-104702828D01*
X53584225Y-104702828D02*
X53298511Y-104702828D01*
X53298511Y-104702828D02*
X53155654Y-104631400D01*
X53155654Y-104631400D02*
X53012796Y-104488542D01*
X53012796Y-104488542D02*
X52941368Y-104202828D01*
X52941368Y-104202828D02*
X52941368Y-103702828D01*
X52941368Y-103702828D02*
X53012796Y-103417114D01*
X53012796Y-103417114D02*
X53155654Y-103274257D01*
X53155654Y-103274257D02*
X53298511Y-103202828D01*
X55084225Y-103917114D02*
X54584225Y-103917114D01*
X54584225Y-104702828D02*
X54584225Y-103202828D01*
X54584225Y-103202828D02*
X55298511Y-103202828D01*
X56369939Y-103917114D02*
X55869939Y-103917114D01*
X55869939Y-104702828D02*
X55869939Y-103202828D01*
X55869939Y-103202828D02*
X56584225Y-103202828D01*
X88320225Y-137492019D02*
X88605939Y-137587257D01*
X88605939Y-137587257D02*
X88701177Y-137682495D01*
X88701177Y-137682495D02*
X88796415Y-137872971D01*
X88796415Y-137872971D02*
X88796415Y-138158685D01*
X88796415Y-138158685D02*
X88701177Y-138349161D01*
X88701177Y-138349161D02*
X88605939Y-138444400D01*
X88605939Y-138444400D02*
X88415463Y-138539638D01*
X88415463Y-138539638D02*
X87653558Y-138539638D01*
X87653558Y-138539638D02*
X87653558Y-136539638D01*
X87653558Y-136539638D02*
X88320225Y-136539638D01*
X88320225Y-136539638D02*
X88510701Y-136634876D01*
X88510701Y-136634876D02*
X88605939Y-136730114D01*
X88605939Y-136730114D02*
X88701177Y-136920590D01*
X88701177Y-136920590D02*
X88701177Y-137111066D01*
X88701177Y-137111066D02*
X88605939Y-137301542D01*
X88605939Y-137301542D02*
X88510701Y-137396780D01*
X88510701Y-137396780D02*
X88320225Y-137492019D01*
X88320225Y-137492019D02*
X87653558Y-137492019D01*
X89939272Y-138539638D02*
X89748796Y-138444400D01*
X89748796Y-138444400D02*
X89653558Y-138349161D01*
X89653558Y-138349161D02*
X89558320Y-138158685D01*
X89558320Y-138158685D02*
X89558320Y-137587257D01*
X89558320Y-137587257D02*
X89653558Y-137396780D01*
X89653558Y-137396780D02*
X89748796Y-137301542D01*
X89748796Y-137301542D02*
X89939272Y-137206304D01*
X89939272Y-137206304D02*
X90224987Y-137206304D01*
X90224987Y-137206304D02*
X90415463Y-137301542D01*
X90415463Y-137301542D02*
X90510701Y-137396780D01*
X90510701Y-137396780D02*
X90605939Y-137587257D01*
X90605939Y-137587257D02*
X90605939Y-138158685D01*
X90605939Y-138158685D02*
X90510701Y-138349161D01*
X90510701Y-138349161D02*
X90415463Y-138444400D01*
X90415463Y-138444400D02*
X90224987Y-138539638D01*
X90224987Y-138539638D02*
X89939272Y-138539638D01*
X91748796Y-138539638D02*
X91558320Y-138444400D01*
X91558320Y-138444400D02*
X91463082Y-138349161D01*
X91463082Y-138349161D02*
X91367844Y-138158685D01*
X91367844Y-138158685D02*
X91367844Y-137587257D01*
X91367844Y-137587257D02*
X91463082Y-137396780D01*
X91463082Y-137396780D02*
X91558320Y-137301542D01*
X91558320Y-137301542D02*
X91748796Y-137206304D01*
X91748796Y-137206304D02*
X92034511Y-137206304D01*
X92034511Y-137206304D02*
X92224987Y-137301542D01*
X92224987Y-137301542D02*
X92320225Y-137396780D01*
X92320225Y-137396780D02*
X92415463Y-137587257D01*
X92415463Y-137587257D02*
X92415463Y-138158685D01*
X92415463Y-138158685D02*
X92320225Y-138349161D01*
X92320225Y-138349161D02*
X92224987Y-138444400D01*
X92224987Y-138444400D02*
X92034511Y-138539638D01*
X92034511Y-138539638D02*
X91748796Y-138539638D01*
X93177368Y-138444400D02*
X93367844Y-138539638D01*
X93367844Y-138539638D02*
X93748796Y-138539638D01*
X93748796Y-138539638D02*
X93939273Y-138444400D01*
X93939273Y-138444400D02*
X94034511Y-138253923D01*
X94034511Y-138253923D02*
X94034511Y-138158685D01*
X94034511Y-138158685D02*
X93939273Y-137968209D01*
X93939273Y-137968209D02*
X93748796Y-137872971D01*
X93748796Y-137872971D02*
X93463082Y-137872971D01*
X93463082Y-137872971D02*
X93272606Y-137777733D01*
X93272606Y-137777733D02*
X93177368Y-137587257D01*
X93177368Y-137587257D02*
X93177368Y-137492019D01*
X93177368Y-137492019D02*
X93272606Y-137301542D01*
X93272606Y-137301542D02*
X93463082Y-137206304D01*
X93463082Y-137206304D02*
X93748796Y-137206304D01*
X93748796Y-137206304D02*
X93939273Y-137301542D01*
X94605940Y-137206304D02*
X95367844Y-137206304D01*
X94891654Y-136539638D02*
X94891654Y-138253923D01*
X94891654Y-138253923D02*
X94986892Y-138444400D01*
X94986892Y-138444400D02*
X95177368Y-138539638D01*
X95177368Y-138539638D02*
X95367844Y-138539638D01*
X97558321Y-138539638D02*
X97558321Y-136539638D01*
X98701178Y-138539638D02*
X97844035Y-137396780D01*
X98701178Y-136539638D02*
X97558321Y-137682495D01*
X99558321Y-138539638D02*
X99558321Y-137206304D01*
X99558321Y-136539638D02*
X99463083Y-136634876D01*
X99463083Y-136634876D02*
X99558321Y-136730114D01*
X99558321Y-136730114D02*
X99653559Y-136634876D01*
X99653559Y-136634876D02*
X99558321Y-136539638D01*
X99558321Y-136539638D02*
X99558321Y-136730114D01*
X100796416Y-138539638D02*
X100605940Y-138444400D01*
X100605940Y-138444400D02*
X100510702Y-138253923D01*
X100510702Y-138253923D02*
X100510702Y-136539638D01*
X101844035Y-138539638D02*
X101653559Y-138444400D01*
X101653559Y-138444400D02*
X101558321Y-138253923D01*
X101558321Y-138253923D02*
X101558321Y-136539638D01*
X100294510Y-112660828D02*
X100294510Y-111160828D01*
X100294510Y-111160828D02*
X100794510Y-112232257D01*
X100794510Y-112232257D02*
X101294510Y-111160828D01*
X101294510Y-111160828D02*
X101294510Y-112660828D01*
X102223082Y-112660828D02*
X102080225Y-112589400D01*
X102080225Y-112589400D02*
X102008796Y-112517971D01*
X102008796Y-112517971D02*
X101937368Y-112375114D01*
X101937368Y-112375114D02*
X101937368Y-111946542D01*
X101937368Y-111946542D02*
X102008796Y-111803685D01*
X102008796Y-111803685D02*
X102080225Y-111732257D01*
X102080225Y-111732257D02*
X102223082Y-111660828D01*
X102223082Y-111660828D02*
X102437368Y-111660828D01*
X102437368Y-111660828D02*
X102580225Y-111732257D01*
X102580225Y-111732257D02*
X102651654Y-111803685D01*
X102651654Y-111803685D02*
X102723082Y-111946542D01*
X102723082Y-111946542D02*
X102723082Y-112375114D01*
X102723082Y-112375114D02*
X102651654Y-112517971D01*
X102651654Y-112517971D02*
X102580225Y-112589400D01*
X102580225Y-112589400D02*
X102437368Y-112660828D01*
X102437368Y-112660828D02*
X102223082Y-112660828D01*
X103151654Y-111660828D02*
X103723082Y-111660828D01*
X103365939Y-111160828D02*
X103365939Y-112446542D01*
X103365939Y-112446542D02*
X103437368Y-112589400D01*
X103437368Y-112589400D02*
X103580225Y-112660828D01*
X103580225Y-112660828D02*
X103723082Y-112660828D01*
X104437368Y-112660828D02*
X104294511Y-112589400D01*
X104294511Y-112589400D02*
X104223082Y-112517971D01*
X104223082Y-112517971D02*
X104151654Y-112375114D01*
X104151654Y-112375114D02*
X104151654Y-111946542D01*
X104151654Y-111946542D02*
X104223082Y-111803685D01*
X104223082Y-111803685D02*
X104294511Y-111732257D01*
X104294511Y-111732257D02*
X104437368Y-111660828D01*
X104437368Y-111660828D02*
X104651654Y-111660828D01*
X104651654Y-111660828D02*
X104794511Y-111732257D01*
X104794511Y-111732257D02*
X104865940Y-111803685D01*
X104865940Y-111803685D02*
X104937368Y-111946542D01*
X104937368Y-111946542D02*
X104937368Y-112375114D01*
X104937368Y-112375114D02*
X104865940Y-112517971D01*
X104865940Y-112517971D02*
X104794511Y-112589400D01*
X104794511Y-112589400D02*
X104651654Y-112660828D01*
X104651654Y-112660828D02*
X104437368Y-112660828D01*
X105580225Y-112660828D02*
X105580225Y-111660828D01*
X105580225Y-111946542D02*
X105651654Y-111803685D01*
X105651654Y-111803685D02*
X105723083Y-111732257D01*
X105723083Y-111732257D02*
X105865940Y-111660828D01*
X105865940Y-111660828D02*
X106008797Y-111660828D01*
X108151653Y-111875114D02*
X108365939Y-111946542D01*
X108365939Y-111946542D02*
X108437368Y-112017971D01*
X108437368Y-112017971D02*
X108508796Y-112160828D01*
X108508796Y-112160828D02*
X108508796Y-112375114D01*
X108508796Y-112375114D02*
X108437368Y-112517971D01*
X108437368Y-112517971D02*
X108365939Y-112589400D01*
X108365939Y-112589400D02*
X108223082Y-112660828D01*
X108223082Y-112660828D02*
X107651653Y-112660828D01*
X107651653Y-112660828D02*
X107651653Y-111160828D01*
X107651653Y-111160828D02*
X108151653Y-111160828D01*
X108151653Y-111160828D02*
X108294511Y-111232257D01*
X108294511Y-111232257D02*
X108365939Y-111303685D01*
X108365939Y-111303685D02*
X108437368Y-111446542D01*
X108437368Y-111446542D02*
X108437368Y-111589400D01*
X108437368Y-111589400D02*
X108365939Y-111732257D01*
X108365939Y-111732257D02*
X108294511Y-111803685D01*
X108294511Y-111803685D02*
X108151653Y-111875114D01*
X108151653Y-111875114D02*
X107651653Y-111875114D01*
X110008796Y-112660828D02*
X109508796Y-111946542D01*
X109151653Y-112660828D02*
X109151653Y-111160828D01*
X109151653Y-111160828D02*
X109723082Y-111160828D01*
X109723082Y-111160828D02*
X109865939Y-111232257D01*
X109865939Y-111232257D02*
X109937368Y-111303685D01*
X109937368Y-111303685D02*
X110008796Y-111446542D01*
X110008796Y-111446542D02*
X110008796Y-111660828D01*
X110008796Y-111660828D02*
X109937368Y-111803685D01*
X109937368Y-111803685D02*
X109865939Y-111875114D01*
X109865939Y-111875114D02*
X109723082Y-111946542D01*
X109723082Y-111946542D02*
X109151653Y-111946542D01*
X85390510Y-112576828D02*
X85390510Y-111076828D01*
X85390510Y-111076828D02*
X85890510Y-112148257D01*
X85890510Y-112148257D02*
X86390510Y-111076828D01*
X86390510Y-111076828D02*
X86390510Y-112576828D01*
X87319082Y-112576828D02*
X87176225Y-112505400D01*
X87176225Y-112505400D02*
X87104796Y-112433971D01*
X87104796Y-112433971D02*
X87033368Y-112291114D01*
X87033368Y-112291114D02*
X87033368Y-111862542D01*
X87033368Y-111862542D02*
X87104796Y-111719685D01*
X87104796Y-111719685D02*
X87176225Y-111648257D01*
X87176225Y-111648257D02*
X87319082Y-111576828D01*
X87319082Y-111576828D02*
X87533368Y-111576828D01*
X87533368Y-111576828D02*
X87676225Y-111648257D01*
X87676225Y-111648257D02*
X87747654Y-111719685D01*
X87747654Y-111719685D02*
X87819082Y-111862542D01*
X87819082Y-111862542D02*
X87819082Y-112291114D01*
X87819082Y-112291114D02*
X87747654Y-112433971D01*
X87747654Y-112433971D02*
X87676225Y-112505400D01*
X87676225Y-112505400D02*
X87533368Y-112576828D01*
X87533368Y-112576828D02*
X87319082Y-112576828D01*
X88247654Y-111576828D02*
X88819082Y-111576828D01*
X88461939Y-111076828D02*
X88461939Y-112362542D01*
X88461939Y-112362542D02*
X88533368Y-112505400D01*
X88533368Y-112505400D02*
X88676225Y-112576828D01*
X88676225Y-112576828D02*
X88819082Y-112576828D01*
X89533368Y-112576828D02*
X89390511Y-112505400D01*
X89390511Y-112505400D02*
X89319082Y-112433971D01*
X89319082Y-112433971D02*
X89247654Y-112291114D01*
X89247654Y-112291114D02*
X89247654Y-111862542D01*
X89247654Y-111862542D02*
X89319082Y-111719685D01*
X89319082Y-111719685D02*
X89390511Y-111648257D01*
X89390511Y-111648257D02*
X89533368Y-111576828D01*
X89533368Y-111576828D02*
X89747654Y-111576828D01*
X89747654Y-111576828D02*
X89890511Y-111648257D01*
X89890511Y-111648257D02*
X89961940Y-111719685D01*
X89961940Y-111719685D02*
X90033368Y-111862542D01*
X90033368Y-111862542D02*
X90033368Y-112291114D01*
X90033368Y-112291114D02*
X89961940Y-112433971D01*
X89961940Y-112433971D02*
X89890511Y-112505400D01*
X89890511Y-112505400D02*
X89747654Y-112576828D01*
X89747654Y-112576828D02*
X89533368Y-112576828D01*
X90676225Y-112576828D02*
X90676225Y-111576828D01*
X90676225Y-111862542D02*
X90747654Y-111719685D01*
X90747654Y-111719685D02*
X90819083Y-111648257D01*
X90819083Y-111648257D02*
X90961940Y-111576828D01*
X90961940Y-111576828D02*
X91104797Y-111576828D01*
X93247653Y-111791114D02*
X93461939Y-111862542D01*
X93461939Y-111862542D02*
X93533368Y-111933971D01*
X93533368Y-111933971D02*
X93604796Y-112076828D01*
X93604796Y-112076828D02*
X93604796Y-112291114D01*
X93604796Y-112291114D02*
X93533368Y-112433971D01*
X93533368Y-112433971D02*
X93461939Y-112505400D01*
X93461939Y-112505400D02*
X93319082Y-112576828D01*
X93319082Y-112576828D02*
X92747653Y-112576828D01*
X92747653Y-112576828D02*
X92747653Y-111076828D01*
X92747653Y-111076828D02*
X93247653Y-111076828D01*
X93247653Y-111076828D02*
X93390511Y-111148257D01*
X93390511Y-111148257D02*
X93461939Y-111219685D01*
X93461939Y-111219685D02*
X93533368Y-111362542D01*
X93533368Y-111362542D02*
X93533368Y-111505400D01*
X93533368Y-111505400D02*
X93461939Y-111648257D01*
X93461939Y-111648257D02*
X93390511Y-111719685D01*
X93390511Y-111719685D02*
X93247653Y-111791114D01*
X93247653Y-111791114D02*
X92747653Y-111791114D01*
X94961939Y-112576828D02*
X94247653Y-112576828D01*
X94247653Y-112576828D02*
X94247653Y-111076828D01*
X47798510Y-131626828D02*
X47798510Y-130126828D01*
X47798510Y-130126828D02*
X48298510Y-131198257D01*
X48298510Y-131198257D02*
X48798510Y-130126828D01*
X48798510Y-130126828D02*
X48798510Y-131626828D01*
X49798511Y-130126828D02*
X50084225Y-130126828D01*
X50084225Y-130126828D02*
X50227082Y-130198257D01*
X50227082Y-130198257D02*
X50369939Y-130341114D01*
X50369939Y-130341114D02*
X50441368Y-130626828D01*
X50441368Y-130626828D02*
X50441368Y-131126828D01*
X50441368Y-131126828D02*
X50369939Y-131412542D01*
X50369939Y-131412542D02*
X50227082Y-131555400D01*
X50227082Y-131555400D02*
X50084225Y-131626828D01*
X50084225Y-131626828D02*
X49798511Y-131626828D01*
X49798511Y-131626828D02*
X49655654Y-131555400D01*
X49655654Y-131555400D02*
X49512796Y-131412542D01*
X49512796Y-131412542D02*
X49441368Y-131126828D01*
X49441368Y-131126828D02*
X49441368Y-130626828D01*
X49441368Y-130626828D02*
X49512796Y-130341114D01*
X49512796Y-130341114D02*
X49655654Y-130198257D01*
X49655654Y-130198257D02*
X49798511Y-130126828D01*
X50869940Y-130126828D02*
X51727083Y-130126828D01*
X51298511Y-131626828D02*
X51298511Y-130126828D01*
X52512797Y-130126828D02*
X52798511Y-130126828D01*
X52798511Y-130126828D02*
X52941368Y-130198257D01*
X52941368Y-130198257D02*
X53084225Y-130341114D01*
X53084225Y-130341114D02*
X53155654Y-130626828D01*
X53155654Y-130626828D02*
X53155654Y-131126828D01*
X53155654Y-131126828D02*
X53084225Y-131412542D01*
X53084225Y-131412542D02*
X52941368Y-131555400D01*
X52941368Y-131555400D02*
X52798511Y-131626828D01*
X52798511Y-131626828D02*
X52512797Y-131626828D01*
X52512797Y-131626828D02*
X52369940Y-131555400D01*
X52369940Y-131555400D02*
X52227082Y-131412542D01*
X52227082Y-131412542D02*
X52155654Y-131126828D01*
X52155654Y-131126828D02*
X52155654Y-130626828D01*
X52155654Y-130626828D02*
X52227082Y-130341114D01*
X52227082Y-130341114D02*
X52369940Y-130198257D01*
X52369940Y-130198257D02*
X52512797Y-130126828D01*
X54655654Y-131626828D02*
X54155654Y-130912542D01*
X53798511Y-131626828D02*
X53798511Y-130126828D01*
X53798511Y-130126828D02*
X54369940Y-130126828D01*
X54369940Y-130126828D02*
X54512797Y-130198257D01*
X54512797Y-130198257D02*
X54584226Y-130269685D01*
X54584226Y-130269685D02*
X54655654Y-130412542D01*
X54655654Y-130412542D02*
X54655654Y-130626828D01*
X54655654Y-130626828D02*
X54584226Y-130769685D01*
X54584226Y-130769685D02*
X54512797Y-130841114D01*
X54512797Y-130841114D02*
X54369940Y-130912542D01*
X54369940Y-130912542D02*
X53798511Y-130912542D01*
X56441368Y-131626828D02*
X56441368Y-130126828D01*
X57298511Y-131626828D02*
X56655654Y-130769685D01*
X57298511Y-130126828D02*
X56441368Y-130983971D01*
X57941368Y-131626828D02*
X57941368Y-130126828D01*
X59369940Y-131626828D02*
X58655654Y-131626828D01*
X58655654Y-131626828D02*
X58655654Y-130126828D01*
X60584226Y-131626828D02*
X59869940Y-131626828D01*
X59869940Y-131626828D02*
X59869940Y-130126828D01*
X86674510Y-81100828D02*
X86674510Y-79600828D01*
X86674510Y-79600828D02*
X87174510Y-80672257D01*
X87174510Y-80672257D02*
X87674510Y-79600828D01*
X87674510Y-79600828D02*
X87674510Y-81100828D01*
X88603082Y-81100828D02*
X88460225Y-81029400D01*
X88460225Y-81029400D02*
X88388796Y-80957971D01*
X88388796Y-80957971D02*
X88317368Y-80815114D01*
X88317368Y-80815114D02*
X88317368Y-80386542D01*
X88317368Y-80386542D02*
X88388796Y-80243685D01*
X88388796Y-80243685D02*
X88460225Y-80172257D01*
X88460225Y-80172257D02*
X88603082Y-80100828D01*
X88603082Y-80100828D02*
X88817368Y-80100828D01*
X88817368Y-80100828D02*
X88960225Y-80172257D01*
X88960225Y-80172257D02*
X89031654Y-80243685D01*
X89031654Y-80243685D02*
X89103082Y-80386542D01*
X89103082Y-80386542D02*
X89103082Y-80815114D01*
X89103082Y-80815114D02*
X89031654Y-80957971D01*
X89031654Y-80957971D02*
X88960225Y-81029400D01*
X88960225Y-81029400D02*
X88817368Y-81100828D01*
X88817368Y-81100828D02*
X88603082Y-81100828D01*
X89531654Y-80100828D02*
X90103082Y-80100828D01*
X89745939Y-79600828D02*
X89745939Y-80886542D01*
X89745939Y-80886542D02*
X89817368Y-81029400D01*
X89817368Y-81029400D02*
X89960225Y-81100828D01*
X89960225Y-81100828D02*
X90103082Y-81100828D01*
X90817368Y-81100828D02*
X90674511Y-81029400D01*
X90674511Y-81029400D02*
X90603082Y-80957971D01*
X90603082Y-80957971D02*
X90531654Y-80815114D01*
X90531654Y-80815114D02*
X90531654Y-80386542D01*
X90531654Y-80386542D02*
X90603082Y-80243685D01*
X90603082Y-80243685D02*
X90674511Y-80172257D01*
X90674511Y-80172257D02*
X90817368Y-80100828D01*
X90817368Y-80100828D02*
X91031654Y-80100828D01*
X91031654Y-80100828D02*
X91174511Y-80172257D01*
X91174511Y-80172257D02*
X91245940Y-80243685D01*
X91245940Y-80243685D02*
X91317368Y-80386542D01*
X91317368Y-80386542D02*
X91317368Y-80815114D01*
X91317368Y-80815114D02*
X91245940Y-80957971D01*
X91245940Y-80957971D02*
X91174511Y-81029400D01*
X91174511Y-81029400D02*
X91031654Y-81100828D01*
X91031654Y-81100828D02*
X90817368Y-81100828D01*
X91960225Y-81100828D02*
X91960225Y-80100828D01*
X91960225Y-80386542D02*
X92031654Y-80243685D01*
X92031654Y-80243685D02*
X92103083Y-80172257D01*
X92103083Y-80172257D02*
X92245940Y-80100828D01*
X92245940Y-80100828D02*
X92388797Y-80100828D01*
X94531653Y-80315114D02*
X94031653Y-80315114D01*
X94031653Y-81100828D02*
X94031653Y-79600828D01*
X94031653Y-79600828D02*
X94745939Y-79600828D01*
X96031653Y-81100828D02*
X95317367Y-81100828D01*
X95317367Y-81100828D02*
X95317367Y-79600828D01*
X84834796Y-120220828D02*
X84120510Y-120220828D01*
X84120510Y-120220828D02*
X84049082Y-120935114D01*
X84049082Y-120935114D02*
X84120510Y-120863685D01*
X84120510Y-120863685D02*
X84263368Y-120792257D01*
X84263368Y-120792257D02*
X84620510Y-120792257D01*
X84620510Y-120792257D02*
X84763368Y-120863685D01*
X84763368Y-120863685D02*
X84834796Y-120935114D01*
X84834796Y-120935114D02*
X84906225Y-121077971D01*
X84906225Y-121077971D02*
X84906225Y-121435114D01*
X84906225Y-121435114D02*
X84834796Y-121577971D01*
X84834796Y-121577971D02*
X84763368Y-121649400D01*
X84763368Y-121649400D02*
X84620510Y-121720828D01*
X84620510Y-121720828D02*
X84263368Y-121720828D01*
X84263368Y-121720828D02*
X84120510Y-121649400D01*
X84120510Y-121649400D02*
X84049082Y-121577971D01*
X86477653Y-120220828D02*
X86977653Y-121720828D01*
X86977653Y-121720828D02*
X87477653Y-120220828D01*
X88263367Y-120220828D02*
X88549081Y-120220828D01*
X88549081Y-120220828D02*
X88691938Y-120292257D01*
X88691938Y-120292257D02*
X88834795Y-120435114D01*
X88834795Y-120435114D02*
X88906224Y-120720828D01*
X88906224Y-120720828D02*
X88906224Y-121220828D01*
X88906224Y-121220828D02*
X88834795Y-121506542D01*
X88834795Y-121506542D02*
X88691938Y-121649400D01*
X88691938Y-121649400D02*
X88549081Y-121720828D01*
X88549081Y-121720828D02*
X88263367Y-121720828D01*
X88263367Y-121720828D02*
X88120510Y-121649400D01*
X88120510Y-121649400D02*
X87977652Y-121506542D01*
X87977652Y-121506542D02*
X87906224Y-121220828D01*
X87906224Y-121220828D02*
X87906224Y-120720828D01*
X87906224Y-120720828D02*
X87977652Y-120435114D01*
X87977652Y-120435114D02*
X88120510Y-120292257D01*
X88120510Y-120292257D02*
X88263367Y-120220828D01*
X90263367Y-121720828D02*
X89549081Y-121720828D01*
X89549081Y-121720828D02*
X89549081Y-120220828D01*
X90549082Y-120220828D02*
X91406225Y-120220828D01*
X90977653Y-121720828D02*
X90977653Y-120220828D01*
X91834796Y-121649400D02*
X92049082Y-121720828D01*
X92049082Y-121720828D02*
X92406224Y-121720828D01*
X92406224Y-121720828D02*
X92549082Y-121649400D01*
X92549082Y-121649400D02*
X92620510Y-121577971D01*
X92620510Y-121577971D02*
X92691939Y-121435114D01*
X92691939Y-121435114D02*
X92691939Y-121292257D01*
X92691939Y-121292257D02*
X92620510Y-121149400D01*
X92620510Y-121149400D02*
X92549082Y-121077971D01*
X92549082Y-121077971D02*
X92406224Y-121006542D01*
X92406224Y-121006542D02*
X92120510Y-120935114D01*
X92120510Y-120935114D02*
X91977653Y-120863685D01*
X91977653Y-120863685D02*
X91906224Y-120792257D01*
X91906224Y-120792257D02*
X91834796Y-120649400D01*
X91834796Y-120649400D02*
X91834796Y-120506542D01*
X91834796Y-120506542D02*
X91906224Y-120363685D01*
X91906224Y-120363685D02*
X91977653Y-120292257D01*
X91977653Y-120292257D02*
X92120510Y-120220828D01*
X92120510Y-120220828D02*
X92477653Y-120220828D01*
X92477653Y-120220828D02*
X92691939Y-120292257D01*
X135535114Y-102915489D02*
X135606542Y-102701203D01*
X135606542Y-102701203D02*
X135677971Y-102629774D01*
X135677971Y-102629774D02*
X135820828Y-102558346D01*
X135820828Y-102558346D02*
X136035114Y-102558346D01*
X136035114Y-102558346D02*
X136177971Y-102629774D01*
X136177971Y-102629774D02*
X136249400Y-102701203D01*
X136249400Y-102701203D02*
X136320828Y-102844060D01*
X136320828Y-102844060D02*
X136320828Y-103415489D01*
X136320828Y-103415489D02*
X134820828Y-103415489D01*
X134820828Y-103415489D02*
X134820828Y-102915489D01*
X134820828Y-102915489D02*
X134892257Y-102772632D01*
X134892257Y-102772632D02*
X134963685Y-102701203D01*
X134963685Y-102701203D02*
X135106542Y-102629774D01*
X135106542Y-102629774D02*
X135249400Y-102629774D01*
X135249400Y-102629774D02*
X135392257Y-102701203D01*
X135392257Y-102701203D02*
X135463685Y-102772632D01*
X135463685Y-102772632D02*
X135535114Y-102915489D01*
X135535114Y-102915489D02*
X135535114Y-103415489D01*
X136320828Y-101701203D02*
X136249400Y-101844060D01*
X136249400Y-101844060D02*
X136106542Y-101915489D01*
X136106542Y-101915489D02*
X134820828Y-101915489D01*
X135320828Y-100486918D02*
X136320828Y-100486918D01*
X135320828Y-101129775D02*
X136106542Y-101129775D01*
X136106542Y-101129775D02*
X136249400Y-101058346D01*
X136249400Y-101058346D02*
X136320828Y-100915489D01*
X136320828Y-100915489D02*
X136320828Y-100701203D01*
X136320828Y-100701203D02*
X136249400Y-100558346D01*
X136249400Y-100558346D02*
X136177971Y-100486918D01*
X136249400Y-99201203D02*
X136320828Y-99344060D01*
X136320828Y-99344060D02*
X136320828Y-99629775D01*
X136320828Y-99629775D02*
X136249400Y-99772632D01*
X136249400Y-99772632D02*
X136106542Y-99844060D01*
X136106542Y-99844060D02*
X135535114Y-99844060D01*
X135535114Y-99844060D02*
X135392257Y-99772632D01*
X135392257Y-99772632D02*
X135320828Y-99629775D01*
X135320828Y-99629775D02*
X135320828Y-99344060D01*
X135320828Y-99344060D02*
X135392257Y-99201203D01*
X135392257Y-99201203D02*
X135535114Y-99129775D01*
X135535114Y-99129775D02*
X135677971Y-99129775D01*
X135677971Y-99129775D02*
X135820828Y-99844060D01*
X135320828Y-98701203D02*
X135320828Y-98129775D01*
X134820828Y-98486918D02*
X136106542Y-98486918D01*
X136106542Y-98486918D02*
X136249400Y-98415489D01*
X136249400Y-98415489D02*
X136320828Y-98272632D01*
X136320828Y-98272632D02*
X136320828Y-98129775D01*
X136320828Y-97415489D02*
X136249400Y-97558346D01*
X136249400Y-97558346D02*
X136177971Y-97629775D01*
X136177971Y-97629775D02*
X136035114Y-97701203D01*
X136035114Y-97701203D02*
X135606542Y-97701203D01*
X135606542Y-97701203D02*
X135463685Y-97629775D01*
X135463685Y-97629775D02*
X135392257Y-97558346D01*
X135392257Y-97558346D02*
X135320828Y-97415489D01*
X135320828Y-97415489D02*
X135320828Y-97201203D01*
X135320828Y-97201203D02*
X135392257Y-97058346D01*
X135392257Y-97058346D02*
X135463685Y-96986918D01*
X135463685Y-96986918D02*
X135606542Y-96915489D01*
X135606542Y-96915489D02*
X136035114Y-96915489D01*
X136035114Y-96915489D02*
X136177971Y-96986918D01*
X136177971Y-96986918D02*
X136249400Y-97058346D01*
X136249400Y-97058346D02*
X136320828Y-97201203D01*
X136320828Y-97201203D02*
X136320828Y-97415489D01*
X136320828Y-96058346D02*
X136249400Y-96201203D01*
X136249400Y-96201203D02*
X136177971Y-96272632D01*
X136177971Y-96272632D02*
X136035114Y-96344060D01*
X136035114Y-96344060D02*
X135606542Y-96344060D01*
X135606542Y-96344060D02*
X135463685Y-96272632D01*
X135463685Y-96272632D02*
X135392257Y-96201203D01*
X135392257Y-96201203D02*
X135320828Y-96058346D01*
X135320828Y-96058346D02*
X135320828Y-95844060D01*
X135320828Y-95844060D02*
X135392257Y-95701203D01*
X135392257Y-95701203D02*
X135463685Y-95629775D01*
X135463685Y-95629775D02*
X135606542Y-95558346D01*
X135606542Y-95558346D02*
X136035114Y-95558346D01*
X136035114Y-95558346D02*
X136177971Y-95629775D01*
X136177971Y-95629775D02*
X136249400Y-95701203D01*
X136249400Y-95701203D02*
X136320828Y-95844060D01*
X136320828Y-95844060D02*
X136320828Y-96058346D01*
X135320828Y-95129774D02*
X135320828Y-94558346D01*
X134820828Y-94915489D02*
X136106542Y-94915489D01*
X136106542Y-94915489D02*
X136249400Y-94844060D01*
X136249400Y-94844060D02*
X136320828Y-94701203D01*
X136320828Y-94701203D02*
X136320828Y-94558346D01*
X136320828Y-94058346D02*
X134820828Y-94058346D01*
X136320828Y-93415489D02*
X135535114Y-93415489D01*
X135535114Y-93415489D02*
X135392257Y-93486917D01*
X135392257Y-93486917D02*
X135320828Y-93629774D01*
X135320828Y-93629774D02*
X135320828Y-93844060D01*
X135320828Y-93844060D02*
X135392257Y-93986917D01*
X135392257Y-93986917D02*
X135463685Y-94058346D01*
X48044510Y-117379114D02*
X48258796Y-117450542D01*
X48258796Y-117450542D02*
X48330225Y-117521971D01*
X48330225Y-117521971D02*
X48401653Y-117664828D01*
X48401653Y-117664828D02*
X48401653Y-117879114D01*
X48401653Y-117879114D02*
X48330225Y-118021971D01*
X48330225Y-118021971D02*
X48258796Y-118093400D01*
X48258796Y-118093400D02*
X48115939Y-118164828D01*
X48115939Y-118164828D02*
X47544510Y-118164828D01*
X47544510Y-118164828D02*
X47544510Y-116664828D01*
X47544510Y-116664828D02*
X48044510Y-116664828D01*
X48044510Y-116664828D02*
X48187368Y-116736257D01*
X48187368Y-116736257D02*
X48258796Y-116807685D01*
X48258796Y-116807685D02*
X48330225Y-116950542D01*
X48330225Y-116950542D02*
X48330225Y-117093400D01*
X48330225Y-117093400D02*
X48258796Y-117236257D01*
X48258796Y-117236257D02*
X48187368Y-117307685D01*
X48187368Y-117307685D02*
X48044510Y-117379114D01*
X48044510Y-117379114D02*
X47544510Y-117379114D01*
X49758796Y-118164828D02*
X49044510Y-118164828D01*
X49044510Y-118164828D02*
X49044510Y-116664828D01*
X50258796Y-116664828D02*
X50258796Y-117879114D01*
X50258796Y-117879114D02*
X50330225Y-118021971D01*
X50330225Y-118021971D02*
X50401654Y-118093400D01*
X50401654Y-118093400D02*
X50544511Y-118164828D01*
X50544511Y-118164828D02*
X50830225Y-118164828D01*
X50830225Y-118164828D02*
X50973082Y-118093400D01*
X50973082Y-118093400D02*
X51044511Y-118021971D01*
X51044511Y-118021971D02*
X51115939Y-117879114D01*
X51115939Y-117879114D02*
X51115939Y-116664828D01*
X51830225Y-117379114D02*
X52330225Y-117379114D01*
X52544511Y-118164828D02*
X51830225Y-118164828D01*
X51830225Y-118164828D02*
X51830225Y-116664828D01*
X51830225Y-116664828D02*
X52544511Y-116664828D01*
X54258797Y-116593400D02*
X52973083Y-118521971D01*
X55044512Y-117450542D02*
X55044512Y-118164828D01*
X54544512Y-116664828D02*
X55044512Y-117450542D01*
X55044512Y-117450542D02*
X55544512Y-116664828D01*
X56044511Y-117379114D02*
X56544511Y-117379114D01*
X56758797Y-118164828D02*
X56044511Y-118164828D01*
X56044511Y-118164828D02*
X56044511Y-116664828D01*
X56044511Y-116664828D02*
X56758797Y-116664828D01*
X58115940Y-118164828D02*
X57401654Y-118164828D01*
X57401654Y-118164828D02*
X57401654Y-116664828D01*
X59330226Y-118164828D02*
X58615940Y-118164828D01*
X58615940Y-118164828D02*
X58615940Y-116664828D01*
X60115941Y-116664828D02*
X60401655Y-116664828D01*
X60401655Y-116664828D02*
X60544512Y-116736257D01*
X60544512Y-116736257D02*
X60687369Y-116879114D01*
X60687369Y-116879114D02*
X60758798Y-117164828D01*
X60758798Y-117164828D02*
X60758798Y-117664828D01*
X60758798Y-117664828D02*
X60687369Y-117950542D01*
X60687369Y-117950542D02*
X60544512Y-118093400D01*
X60544512Y-118093400D02*
X60401655Y-118164828D01*
X60401655Y-118164828D02*
X60115941Y-118164828D01*
X60115941Y-118164828D02*
X59973084Y-118093400D01*
X59973084Y-118093400D02*
X59830226Y-117950542D01*
X59830226Y-117950542D02*
X59758798Y-117664828D01*
X59758798Y-117664828D02*
X59758798Y-117164828D01*
X59758798Y-117164828D02*
X59830226Y-116879114D01*
X59830226Y-116879114D02*
X59973084Y-116736257D01*
X59973084Y-116736257D02*
X60115941Y-116664828D01*
X61258798Y-116664828D02*
X61615941Y-118164828D01*
X61615941Y-118164828D02*
X61901655Y-117093400D01*
X61901655Y-117093400D02*
X62187370Y-118164828D01*
X62187370Y-118164828D02*
X62544513Y-116664828D01*
D12*
X134306819Y-85162523D02*
X133306819Y-85162523D01*
X133306819Y-85162523D02*
X134021104Y-84829190D01*
X134021104Y-84829190D02*
X133306819Y-84495857D01*
X133306819Y-84495857D02*
X134306819Y-84495857D01*
X133306819Y-83543476D02*
X133306819Y-84019666D01*
X133306819Y-84019666D02*
X133783009Y-84067285D01*
X133783009Y-84067285D02*
X133735390Y-84019666D01*
X133735390Y-84019666D02*
X133687771Y-83924428D01*
X133687771Y-83924428D02*
X133687771Y-83686333D01*
X133687771Y-83686333D02*
X133735390Y-83591095D01*
X133735390Y-83591095D02*
X133783009Y-83543476D01*
X133783009Y-83543476D02*
X133878247Y-83495857D01*
X133878247Y-83495857D02*
X134116342Y-83495857D01*
X134116342Y-83495857D02*
X134211580Y-83543476D01*
X134211580Y-83543476D02*
X134259200Y-83591095D01*
X134259200Y-83591095D02*
X134306819Y-83686333D01*
X134306819Y-83686333D02*
X134306819Y-83924428D01*
X134306819Y-83924428D02*
X134259200Y-84019666D01*
X134259200Y-84019666D02*
X134211580Y-84067285D01*
X53363332Y-66298800D02*
X53220475Y-66251180D01*
X53220475Y-66251180D02*
X52982380Y-66251180D01*
X52982380Y-66251180D02*
X52887142Y-66298800D01*
X52887142Y-66298800D02*
X52839523Y-66346419D01*
X52839523Y-66346419D02*
X52791904Y-66441657D01*
X52791904Y-66441657D02*
X52791904Y-66536895D01*
X52791904Y-66536895D02*
X52839523Y-66632133D01*
X52839523Y-66632133D02*
X52887142Y-66679752D01*
X52887142Y-66679752D02*
X52982380Y-66727371D01*
X52982380Y-66727371D02*
X53172856Y-66774990D01*
X53172856Y-66774990D02*
X53268094Y-66822609D01*
X53268094Y-66822609D02*
X53315713Y-66870228D01*
X53315713Y-66870228D02*
X53363332Y-66965466D01*
X53363332Y-66965466D02*
X53363332Y-67060704D01*
X53363332Y-67060704D02*
X53315713Y-67155942D01*
X53315713Y-67155942D02*
X53268094Y-67203561D01*
X53268094Y-67203561D02*
X53172856Y-67251180D01*
X53172856Y-67251180D02*
X52934761Y-67251180D01*
X52934761Y-67251180D02*
X52791904Y-67203561D01*
X52458570Y-67251180D02*
X52220475Y-66251180D01*
X52220475Y-66251180D02*
X52029999Y-66965466D01*
X52029999Y-66965466D02*
X51839523Y-66251180D01*
X51839523Y-66251180D02*
X51601428Y-67251180D01*
X50696666Y-66251180D02*
X51268094Y-66251180D01*
X50982380Y-66251180D02*
X50982380Y-67251180D01*
X50982380Y-67251180D02*
X51077618Y-67108323D01*
X51077618Y-67108323D02*
X51172856Y-67013085D01*
X51172856Y-67013085D02*
X51268094Y-66965466D01*
X63757142Y-86834819D02*
X63423809Y-86358628D01*
X63185714Y-86834819D02*
X63185714Y-85834819D01*
X63185714Y-85834819D02*
X63566666Y-85834819D01*
X63566666Y-85834819D02*
X63661904Y-85882438D01*
X63661904Y-85882438D02*
X63709523Y-85930057D01*
X63709523Y-85930057D02*
X63757142Y-86025295D01*
X63757142Y-86025295D02*
X63757142Y-86168152D01*
X63757142Y-86168152D02*
X63709523Y-86263390D01*
X63709523Y-86263390D02*
X63661904Y-86311009D01*
X63661904Y-86311009D02*
X63566666Y-86358628D01*
X63566666Y-86358628D02*
X63185714Y-86358628D01*
X64138095Y-85930057D02*
X64185714Y-85882438D01*
X64185714Y-85882438D02*
X64280952Y-85834819D01*
X64280952Y-85834819D02*
X64519047Y-85834819D01*
X64519047Y-85834819D02*
X64614285Y-85882438D01*
X64614285Y-85882438D02*
X64661904Y-85930057D01*
X64661904Y-85930057D02*
X64709523Y-86025295D01*
X64709523Y-86025295D02*
X64709523Y-86120533D01*
X64709523Y-86120533D02*
X64661904Y-86263390D01*
X64661904Y-86263390D02*
X64090476Y-86834819D01*
X64090476Y-86834819D02*
X64709523Y-86834819D01*
X65090476Y-85930057D02*
X65138095Y-85882438D01*
X65138095Y-85882438D02*
X65233333Y-85834819D01*
X65233333Y-85834819D02*
X65471428Y-85834819D01*
X65471428Y-85834819D02*
X65566666Y-85882438D01*
X65566666Y-85882438D02*
X65614285Y-85930057D01*
X65614285Y-85930057D02*
X65661904Y-86025295D01*
X65661904Y-86025295D02*
X65661904Y-86120533D01*
X65661904Y-86120533D02*
X65614285Y-86263390D01*
X65614285Y-86263390D02*
X65042857Y-86834819D01*
X65042857Y-86834819D02*
X65661904Y-86834819D01*
X63757142Y-83824819D02*
X63423809Y-83348628D01*
X63185714Y-83824819D02*
X63185714Y-82824819D01*
X63185714Y-82824819D02*
X63566666Y-82824819D01*
X63566666Y-82824819D02*
X63661904Y-82872438D01*
X63661904Y-82872438D02*
X63709523Y-82920057D01*
X63709523Y-82920057D02*
X63757142Y-83015295D01*
X63757142Y-83015295D02*
X63757142Y-83158152D01*
X63757142Y-83158152D02*
X63709523Y-83253390D01*
X63709523Y-83253390D02*
X63661904Y-83301009D01*
X63661904Y-83301009D02*
X63566666Y-83348628D01*
X63566666Y-83348628D02*
X63185714Y-83348628D01*
X64138095Y-82920057D02*
X64185714Y-82872438D01*
X64185714Y-82872438D02*
X64280952Y-82824819D01*
X64280952Y-82824819D02*
X64519047Y-82824819D01*
X64519047Y-82824819D02*
X64614285Y-82872438D01*
X64614285Y-82872438D02*
X64661904Y-82920057D01*
X64661904Y-82920057D02*
X64709523Y-83015295D01*
X64709523Y-83015295D02*
X64709523Y-83110533D01*
X64709523Y-83110533D02*
X64661904Y-83253390D01*
X64661904Y-83253390D02*
X64090476Y-83824819D01*
X64090476Y-83824819D02*
X64709523Y-83824819D01*
X65661904Y-83824819D02*
X65090476Y-83824819D01*
X65376190Y-83824819D02*
X65376190Y-82824819D01*
X65376190Y-82824819D02*
X65280952Y-82967676D01*
X65280952Y-82967676D02*
X65185714Y-83062914D01*
X65185714Y-83062914D02*
X65090476Y-83110533D01*
X152984819Y-81419523D02*
X153699104Y-81419523D01*
X153699104Y-81419523D02*
X153841961Y-81467142D01*
X153841961Y-81467142D02*
X153937200Y-81562380D01*
X153937200Y-81562380D02*
X153984819Y-81705237D01*
X153984819Y-81705237D02*
X153984819Y-81800475D01*
X153984819Y-80419523D02*
X153984819Y-80990951D01*
X153984819Y-80705237D02*
X152984819Y-80705237D01*
X152984819Y-80705237D02*
X153127676Y-80800475D01*
X153127676Y-80800475D02*
X153222914Y-80895713D01*
X153222914Y-80895713D02*
X153270533Y-80990951D01*
X152984819Y-79562380D02*
X152984819Y-79752856D01*
X152984819Y-79752856D02*
X153032438Y-79848094D01*
X153032438Y-79848094D02*
X153080057Y-79895713D01*
X153080057Y-79895713D02*
X153222914Y-79990951D01*
X153222914Y-79990951D02*
X153413390Y-80038570D01*
X153413390Y-80038570D02*
X153794342Y-80038570D01*
X153794342Y-80038570D02*
X153889580Y-79990951D01*
X153889580Y-79990951D02*
X153937200Y-79943332D01*
X153937200Y-79943332D02*
X153984819Y-79848094D01*
X153984819Y-79848094D02*
X153984819Y-79657618D01*
X153984819Y-79657618D02*
X153937200Y-79562380D01*
X153937200Y-79562380D02*
X153889580Y-79514761D01*
X153889580Y-79514761D02*
X153794342Y-79467142D01*
X153794342Y-79467142D02*
X153556247Y-79467142D01*
X153556247Y-79467142D02*
X153461009Y-79514761D01*
X153461009Y-79514761D02*
X153413390Y-79562380D01*
X153413390Y-79562380D02*
X153365771Y-79657618D01*
X153365771Y-79657618D02*
X153365771Y-79848094D01*
X153365771Y-79848094D02*
X153413390Y-79943332D01*
X153413390Y-79943332D02*
X153461009Y-79990951D01*
X153461009Y-79990951D02*
X153556247Y-80038570D01*
X55664819Y-73419523D02*
X56379104Y-73419523D01*
X56379104Y-73419523D02*
X56521961Y-73467142D01*
X56521961Y-73467142D02*
X56617200Y-73562380D01*
X56617200Y-73562380D02*
X56664819Y-73705237D01*
X56664819Y-73705237D02*
X56664819Y-73800475D01*
X56664819Y-72419523D02*
X56664819Y-72990951D01*
X56664819Y-72705237D02*
X55664819Y-72705237D01*
X55664819Y-72705237D02*
X55807676Y-72800475D01*
X55807676Y-72800475D02*
X55902914Y-72895713D01*
X55902914Y-72895713D02*
X55950533Y-72990951D01*
X55664819Y-71514761D02*
X55664819Y-71990951D01*
X55664819Y-71990951D02*
X56141009Y-72038570D01*
X56141009Y-72038570D02*
X56093390Y-71990951D01*
X56093390Y-71990951D02*
X56045771Y-71895713D01*
X56045771Y-71895713D02*
X56045771Y-71657618D01*
X56045771Y-71657618D02*
X56093390Y-71562380D01*
X56093390Y-71562380D02*
X56141009Y-71514761D01*
X56141009Y-71514761D02*
X56236247Y-71467142D01*
X56236247Y-71467142D02*
X56474342Y-71467142D01*
X56474342Y-71467142D02*
X56569580Y-71514761D01*
X56569580Y-71514761D02*
X56617200Y-71562380D01*
X56617200Y-71562380D02*
X56664819Y-71657618D01*
X56664819Y-71657618D02*
X56664819Y-71895713D01*
X56664819Y-71895713D02*
X56617200Y-71990951D01*
X56617200Y-71990951D02*
X56569580Y-72038570D01*
X46154819Y-122479523D02*
X46869104Y-122479523D01*
X46869104Y-122479523D02*
X47011961Y-122527142D01*
X47011961Y-122527142D02*
X47107200Y-122622380D01*
X47107200Y-122622380D02*
X47154819Y-122765237D01*
X47154819Y-122765237D02*
X47154819Y-122860475D01*
X47154819Y-121479523D02*
X47154819Y-122050951D01*
X47154819Y-121765237D02*
X46154819Y-121765237D01*
X46154819Y-121765237D02*
X46297676Y-121860475D01*
X46297676Y-121860475D02*
X46392914Y-121955713D01*
X46392914Y-121955713D02*
X46440533Y-122050951D01*
X46154819Y-121146189D02*
X46154819Y-120527142D01*
X46154819Y-120527142D02*
X46535771Y-120860475D01*
X46535771Y-120860475D02*
X46535771Y-120717618D01*
X46535771Y-120717618D02*
X46583390Y-120622380D01*
X46583390Y-120622380D02*
X46631009Y-120574761D01*
X46631009Y-120574761D02*
X46726247Y-120527142D01*
X46726247Y-120527142D02*
X46964342Y-120527142D01*
X46964342Y-120527142D02*
X47059580Y-120574761D01*
X47059580Y-120574761D02*
X47107200Y-120622380D01*
X47107200Y-120622380D02*
X47154819Y-120717618D01*
X47154819Y-120717618D02*
X47154819Y-121003332D01*
X47154819Y-121003332D02*
X47107200Y-121098570D01*
X47107200Y-121098570D02*
X47059580Y-121146189D01*
X128238095Y-72604819D02*
X128238095Y-71604819D01*
X128238095Y-72081009D02*
X128809523Y-72081009D01*
X128809523Y-72604819D02*
X128809523Y-71604819D01*
X129714285Y-71604819D02*
X129523809Y-71604819D01*
X129523809Y-71604819D02*
X129428571Y-71652438D01*
X129428571Y-71652438D02*
X129380952Y-71700057D01*
X129380952Y-71700057D02*
X129285714Y-71842914D01*
X129285714Y-71842914D02*
X129238095Y-72033390D01*
X129238095Y-72033390D02*
X129238095Y-72414342D01*
X129238095Y-72414342D02*
X129285714Y-72509580D01*
X129285714Y-72509580D02*
X129333333Y-72557200D01*
X129333333Y-72557200D02*
X129428571Y-72604819D01*
X129428571Y-72604819D02*
X129619047Y-72604819D01*
X129619047Y-72604819D02*
X129714285Y-72557200D01*
X129714285Y-72557200D02*
X129761904Y-72509580D01*
X129761904Y-72509580D02*
X129809523Y-72414342D01*
X129809523Y-72414342D02*
X129809523Y-72176247D01*
X129809523Y-72176247D02*
X129761904Y-72081009D01*
X129761904Y-72081009D02*
X129714285Y-72033390D01*
X129714285Y-72033390D02*
X129619047Y-71985771D01*
X129619047Y-71985771D02*
X129428571Y-71985771D01*
X129428571Y-71985771D02*
X129333333Y-72033390D01*
X129333333Y-72033390D02*
X129285714Y-72081009D01*
X129285714Y-72081009D02*
X129238095Y-72176247D01*
X128238095Y-121604819D02*
X128238095Y-120604819D01*
X128238095Y-121081009D02*
X128809523Y-121081009D01*
X128809523Y-121604819D02*
X128809523Y-120604819D01*
X129714285Y-120938152D02*
X129714285Y-121604819D01*
X129476190Y-120557200D02*
X129238095Y-121271485D01*
X129238095Y-121271485D02*
X129857142Y-121271485D01*
X70238095Y-72604819D02*
X70238095Y-71604819D01*
X70238095Y-72081009D02*
X70809523Y-72081009D01*
X70809523Y-72604819D02*
X70809523Y-71604819D01*
X71238095Y-71700057D02*
X71285714Y-71652438D01*
X71285714Y-71652438D02*
X71380952Y-71604819D01*
X71380952Y-71604819D02*
X71619047Y-71604819D01*
X71619047Y-71604819D02*
X71714285Y-71652438D01*
X71714285Y-71652438D02*
X71761904Y-71700057D01*
X71761904Y-71700057D02*
X71809523Y-71795295D01*
X71809523Y-71795295D02*
X71809523Y-71890533D01*
X71809523Y-71890533D02*
X71761904Y-72033390D01*
X71761904Y-72033390D02*
X71190476Y-72604819D01*
X71190476Y-72604819D02*
X71809523Y-72604819D01*
X70238095Y-121604819D02*
X70238095Y-120604819D01*
X70238095Y-121081009D02*
X70809523Y-121081009D01*
X70809523Y-121604819D02*
X70809523Y-120604819D01*
X71809523Y-121604819D02*
X71238095Y-121604819D01*
X71523809Y-121604819D02*
X71523809Y-120604819D01*
X71523809Y-120604819D02*
X71428571Y-120747676D01*
X71428571Y-120747676D02*
X71333333Y-120842914D01*
X71333333Y-120842914D02*
X71238095Y-120890533D01*
X105309819Y-87996904D02*
X106119342Y-87996904D01*
X106119342Y-87996904D02*
X106214580Y-87949285D01*
X106214580Y-87949285D02*
X106262200Y-87901666D01*
X106262200Y-87901666D02*
X106309819Y-87806428D01*
X106309819Y-87806428D02*
X106309819Y-87615952D01*
X106309819Y-87615952D02*
X106262200Y-87520714D01*
X106262200Y-87520714D02*
X106214580Y-87473095D01*
X106214580Y-87473095D02*
X106119342Y-87425476D01*
X106119342Y-87425476D02*
X105309819Y-87425476D01*
X105309819Y-87044523D02*
X105309819Y-86377857D01*
X105309819Y-86377857D02*
X106309819Y-86806428D01*
X89380476Y-80712819D02*
X89380476Y-79712819D01*
X89380476Y-79712819D02*
X89713809Y-80427104D01*
X89713809Y-80427104D02*
X90047142Y-79712819D01*
X90047142Y-79712819D02*
X90047142Y-80712819D01*
X90428095Y-79712819D02*
X91047142Y-79712819D01*
X91047142Y-79712819D02*
X90713809Y-80093771D01*
X90713809Y-80093771D02*
X90856666Y-80093771D01*
X90856666Y-80093771D02*
X90951904Y-80141390D01*
X90951904Y-80141390D02*
X90999523Y-80189009D01*
X90999523Y-80189009D02*
X91047142Y-80284247D01*
X91047142Y-80284247D02*
X91047142Y-80522342D01*
X91047142Y-80522342D02*
X90999523Y-80617580D01*
X90999523Y-80617580D02*
X90951904Y-80665200D01*
X90951904Y-80665200D02*
X90856666Y-80712819D01*
X90856666Y-80712819D02*
X90570952Y-80712819D01*
X90570952Y-80712819D02*
X90475714Y-80665200D01*
X90475714Y-80665200D02*
X90428095Y-80617580D01*
X58281200Y-114871332D02*
X58328819Y-114728475D01*
X58328819Y-114728475D02*
X58328819Y-114490380D01*
X58328819Y-114490380D02*
X58281200Y-114395142D01*
X58281200Y-114395142D02*
X58233580Y-114347523D01*
X58233580Y-114347523D02*
X58138342Y-114299904D01*
X58138342Y-114299904D02*
X58043104Y-114299904D01*
X58043104Y-114299904D02*
X57947866Y-114347523D01*
X57947866Y-114347523D02*
X57900247Y-114395142D01*
X57900247Y-114395142D02*
X57852628Y-114490380D01*
X57852628Y-114490380D02*
X57805009Y-114680856D01*
X57805009Y-114680856D02*
X57757390Y-114776094D01*
X57757390Y-114776094D02*
X57709771Y-114823713D01*
X57709771Y-114823713D02*
X57614533Y-114871332D01*
X57614533Y-114871332D02*
X57519295Y-114871332D01*
X57519295Y-114871332D02*
X57424057Y-114823713D01*
X57424057Y-114823713D02*
X57376438Y-114776094D01*
X57376438Y-114776094D02*
X57328819Y-114680856D01*
X57328819Y-114680856D02*
X57328819Y-114442761D01*
X57328819Y-114442761D02*
X57376438Y-114299904D01*
X57328819Y-113966570D02*
X58328819Y-113728475D01*
X58328819Y-113728475D02*
X57614533Y-113537999D01*
X57614533Y-113537999D02*
X58328819Y-113347523D01*
X58328819Y-113347523D02*
X57328819Y-113109428D01*
X57328819Y-112823713D02*
X57328819Y-112204666D01*
X57328819Y-112204666D02*
X57709771Y-112537999D01*
X57709771Y-112537999D02*
X57709771Y-112395142D01*
X57709771Y-112395142D02*
X57757390Y-112299904D01*
X57757390Y-112299904D02*
X57805009Y-112252285D01*
X57805009Y-112252285D02*
X57900247Y-112204666D01*
X57900247Y-112204666D02*
X58138342Y-112204666D01*
X58138342Y-112204666D02*
X58233580Y-112252285D01*
X58233580Y-112252285D02*
X58281200Y-112299904D01*
X58281200Y-112299904D02*
X58328819Y-112395142D01*
X58328819Y-112395142D02*
X58328819Y-112680856D01*
X58328819Y-112680856D02*
X58281200Y-112776094D01*
X58281200Y-112776094D02*
X58233580Y-112823713D01*
X97433333Y-68499580D02*
X97385714Y-68547200D01*
X97385714Y-68547200D02*
X97242857Y-68594819D01*
X97242857Y-68594819D02*
X97147619Y-68594819D01*
X97147619Y-68594819D02*
X97004762Y-68547200D01*
X97004762Y-68547200D02*
X96909524Y-68451961D01*
X96909524Y-68451961D02*
X96861905Y-68356723D01*
X96861905Y-68356723D02*
X96814286Y-68166247D01*
X96814286Y-68166247D02*
X96814286Y-68023390D01*
X96814286Y-68023390D02*
X96861905Y-67832914D01*
X96861905Y-67832914D02*
X96909524Y-67737676D01*
X96909524Y-67737676D02*
X97004762Y-67642438D01*
X97004762Y-67642438D02*
X97147619Y-67594819D01*
X97147619Y-67594819D02*
X97242857Y-67594819D01*
X97242857Y-67594819D02*
X97385714Y-67642438D01*
X97385714Y-67642438D02*
X97433333Y-67690057D01*
X98004762Y-68023390D02*
X97909524Y-67975771D01*
X97909524Y-67975771D02*
X97861905Y-67928152D01*
X97861905Y-67928152D02*
X97814286Y-67832914D01*
X97814286Y-67832914D02*
X97814286Y-67785295D01*
X97814286Y-67785295D02*
X97861905Y-67690057D01*
X97861905Y-67690057D02*
X97909524Y-67642438D01*
X97909524Y-67642438D02*
X98004762Y-67594819D01*
X98004762Y-67594819D02*
X98195238Y-67594819D01*
X98195238Y-67594819D02*
X98290476Y-67642438D01*
X98290476Y-67642438D02*
X98338095Y-67690057D01*
X98338095Y-67690057D02*
X98385714Y-67785295D01*
X98385714Y-67785295D02*
X98385714Y-67832914D01*
X98385714Y-67832914D02*
X98338095Y-67928152D01*
X98338095Y-67928152D02*
X98290476Y-67975771D01*
X98290476Y-67975771D02*
X98195238Y-68023390D01*
X98195238Y-68023390D02*
X98004762Y-68023390D01*
X98004762Y-68023390D02*
X97909524Y-68071009D01*
X97909524Y-68071009D02*
X97861905Y-68118628D01*
X97861905Y-68118628D02*
X97814286Y-68213866D01*
X97814286Y-68213866D02*
X97814286Y-68404342D01*
X97814286Y-68404342D02*
X97861905Y-68499580D01*
X97861905Y-68499580D02*
X97909524Y-68547200D01*
X97909524Y-68547200D02*
X98004762Y-68594819D01*
X98004762Y-68594819D02*
X98195238Y-68594819D01*
X98195238Y-68594819D02*
X98290476Y-68547200D01*
X98290476Y-68547200D02*
X98338095Y-68499580D01*
X98338095Y-68499580D02*
X98385714Y-68404342D01*
X98385714Y-68404342D02*
X98385714Y-68213866D01*
X98385714Y-68213866D02*
X98338095Y-68118628D01*
X98338095Y-68118628D02*
X98290476Y-68071009D01*
X98290476Y-68071009D02*
X98195238Y-68023390D01*
X117654095Y-67767819D02*
X117654095Y-66767819D01*
X117654095Y-67244009D02*
X118225523Y-67244009D01*
X118225523Y-67767819D02*
X118225523Y-66767819D01*
X119177904Y-66767819D02*
X118701714Y-66767819D01*
X118701714Y-66767819D02*
X118654095Y-67244009D01*
X118654095Y-67244009D02*
X118701714Y-67196390D01*
X118701714Y-67196390D02*
X118796952Y-67148771D01*
X118796952Y-67148771D02*
X119035047Y-67148771D01*
X119035047Y-67148771D02*
X119130285Y-67196390D01*
X119130285Y-67196390D02*
X119177904Y-67244009D01*
X119177904Y-67244009D02*
X119225523Y-67339247D01*
X119225523Y-67339247D02*
X119225523Y-67577342D01*
X119225523Y-67577342D02*
X119177904Y-67672580D01*
X119177904Y-67672580D02*
X119130285Y-67720200D01*
X119130285Y-67720200D02*
X119035047Y-67767819D01*
X119035047Y-67767819D02*
X118796952Y-67767819D01*
X118796952Y-67767819D02*
X118701714Y-67720200D01*
X118701714Y-67720200D02*
X118654095Y-67672580D01*
X80822095Y-67767819D02*
X80822095Y-66767819D01*
X80822095Y-67244009D02*
X81393523Y-67244009D01*
X81393523Y-67767819D02*
X81393523Y-66767819D01*
X81774476Y-66767819D02*
X82393523Y-66767819D01*
X82393523Y-66767819D02*
X82060190Y-67148771D01*
X82060190Y-67148771D02*
X82203047Y-67148771D01*
X82203047Y-67148771D02*
X82298285Y-67196390D01*
X82298285Y-67196390D02*
X82345904Y-67244009D01*
X82345904Y-67244009D02*
X82393523Y-67339247D01*
X82393523Y-67339247D02*
X82393523Y-67577342D01*
X82393523Y-67577342D02*
X82345904Y-67672580D01*
X82345904Y-67672580D02*
X82298285Y-67720200D01*
X82298285Y-67720200D02*
X82203047Y-67767819D01*
X82203047Y-67767819D02*
X81917333Y-67767819D01*
X81917333Y-67767819D02*
X81822095Y-67720200D01*
X81822095Y-67720200D02*
X81774476Y-67672580D01*
D11*
X95787419Y-80241904D02*
X96596942Y-80241904D01*
X96596942Y-80241904D02*
X96692180Y-80194285D01*
X96692180Y-80194285D02*
X96739800Y-80146666D01*
X96739800Y-80146666D02*
X96787419Y-80051428D01*
X96787419Y-80051428D02*
X96787419Y-79860952D01*
X96787419Y-79860952D02*
X96739800Y-79765714D01*
X96739800Y-79765714D02*
X96692180Y-79718095D01*
X96692180Y-79718095D02*
X96596942Y-79670476D01*
X96596942Y-79670476D02*
X95787419Y-79670476D01*
X96787419Y-78670476D02*
X96787419Y-79241904D01*
X96787419Y-78956190D02*
X95787419Y-78956190D01*
X95787419Y-78956190D02*
X95930276Y-79051428D01*
X95930276Y-79051428D02*
X96025514Y-79146666D01*
X96025514Y-79146666D02*
X96073133Y-79241904D01*
D12*
X147407333Y-113545580D02*
X147359714Y-113593200D01*
X147359714Y-113593200D02*
X147216857Y-113640819D01*
X147216857Y-113640819D02*
X147121619Y-113640819D01*
X147121619Y-113640819D02*
X146978762Y-113593200D01*
X146978762Y-113593200D02*
X146883524Y-113497961D01*
X146883524Y-113497961D02*
X146835905Y-113402723D01*
X146835905Y-113402723D02*
X146788286Y-113212247D01*
X146788286Y-113212247D02*
X146788286Y-113069390D01*
X146788286Y-113069390D02*
X146835905Y-112878914D01*
X146835905Y-112878914D02*
X146883524Y-112783676D01*
X146883524Y-112783676D02*
X146978762Y-112688438D01*
X146978762Y-112688438D02*
X147121619Y-112640819D01*
X147121619Y-112640819D02*
X147216857Y-112640819D01*
X147216857Y-112640819D02*
X147359714Y-112688438D01*
X147359714Y-112688438D02*
X147407333Y-112736057D01*
X147740667Y-112640819D02*
X148359714Y-112640819D01*
X148359714Y-112640819D02*
X148026381Y-113021771D01*
X148026381Y-113021771D02*
X148169238Y-113021771D01*
X148169238Y-113021771D02*
X148264476Y-113069390D01*
X148264476Y-113069390D02*
X148312095Y-113117009D01*
X148312095Y-113117009D02*
X148359714Y-113212247D01*
X148359714Y-113212247D02*
X148359714Y-113450342D01*
X148359714Y-113450342D02*
X148312095Y-113545580D01*
X148312095Y-113545580D02*
X148264476Y-113593200D01*
X148264476Y-113593200D02*
X148169238Y-113640819D01*
X148169238Y-113640819D02*
X147883524Y-113640819D01*
X147883524Y-113640819D02*
X147788286Y-113593200D01*
X147788286Y-113593200D02*
X147740667Y-113545580D01*
X58281200Y-101409332D02*
X58328819Y-101266475D01*
X58328819Y-101266475D02*
X58328819Y-101028380D01*
X58328819Y-101028380D02*
X58281200Y-100933142D01*
X58281200Y-100933142D02*
X58233580Y-100885523D01*
X58233580Y-100885523D02*
X58138342Y-100837904D01*
X58138342Y-100837904D02*
X58043104Y-100837904D01*
X58043104Y-100837904D02*
X57947866Y-100885523D01*
X57947866Y-100885523D02*
X57900247Y-100933142D01*
X57900247Y-100933142D02*
X57852628Y-101028380D01*
X57852628Y-101028380D02*
X57805009Y-101218856D01*
X57805009Y-101218856D02*
X57757390Y-101314094D01*
X57757390Y-101314094D02*
X57709771Y-101361713D01*
X57709771Y-101361713D02*
X57614533Y-101409332D01*
X57614533Y-101409332D02*
X57519295Y-101409332D01*
X57519295Y-101409332D02*
X57424057Y-101361713D01*
X57424057Y-101361713D02*
X57376438Y-101314094D01*
X57376438Y-101314094D02*
X57328819Y-101218856D01*
X57328819Y-101218856D02*
X57328819Y-100980761D01*
X57328819Y-100980761D02*
X57376438Y-100837904D01*
X57328819Y-100504570D02*
X58328819Y-100266475D01*
X58328819Y-100266475D02*
X57614533Y-100075999D01*
X57614533Y-100075999D02*
X58328819Y-99885523D01*
X58328819Y-99885523D02*
X57328819Y-99647428D01*
X57662152Y-98837904D02*
X58328819Y-98837904D01*
X57281200Y-99075999D02*
X57995485Y-99314094D01*
X57995485Y-99314094D02*
X57995485Y-98695047D01*
X95094819Y-85082857D02*
X94618628Y-85416190D01*
X95094819Y-85654285D02*
X94094819Y-85654285D01*
X94094819Y-85654285D02*
X94094819Y-85273333D01*
X94094819Y-85273333D02*
X94142438Y-85178095D01*
X94142438Y-85178095D02*
X94190057Y-85130476D01*
X94190057Y-85130476D02*
X94285295Y-85082857D01*
X94285295Y-85082857D02*
X94428152Y-85082857D01*
X94428152Y-85082857D02*
X94523390Y-85130476D01*
X94523390Y-85130476D02*
X94571009Y-85178095D01*
X94571009Y-85178095D02*
X94618628Y-85273333D01*
X94618628Y-85273333D02*
X94618628Y-85654285D01*
X95094819Y-84130476D02*
X95094819Y-84701904D01*
X95094819Y-84416190D02*
X94094819Y-84416190D01*
X94094819Y-84416190D02*
X94237676Y-84511428D01*
X94237676Y-84511428D02*
X94332914Y-84606666D01*
X94332914Y-84606666D02*
X94380533Y-84701904D01*
X94190057Y-83749523D02*
X94142438Y-83701904D01*
X94142438Y-83701904D02*
X94094819Y-83606666D01*
X94094819Y-83606666D02*
X94094819Y-83368571D01*
X94094819Y-83368571D02*
X94142438Y-83273333D01*
X94142438Y-83273333D02*
X94190057Y-83225714D01*
X94190057Y-83225714D02*
X94285295Y-83178095D01*
X94285295Y-83178095D02*
X94380533Y-83178095D01*
X94380533Y-83178095D02*
X94523390Y-83225714D01*
X94523390Y-83225714D02*
X95094819Y-83797142D01*
X95094819Y-83797142D02*
X95094819Y-83178095D01*
X129094819Y-147209523D02*
X129809104Y-147209523D01*
X129809104Y-147209523D02*
X129951961Y-147257142D01*
X129951961Y-147257142D02*
X130047200Y-147352380D01*
X130047200Y-147352380D02*
X130094819Y-147495237D01*
X130094819Y-147495237D02*
X130094819Y-147590475D01*
X130094819Y-146209523D02*
X130094819Y-146780951D01*
X130094819Y-146495237D02*
X129094819Y-146495237D01*
X129094819Y-146495237D02*
X129237676Y-146590475D01*
X129237676Y-146590475D02*
X129332914Y-146685713D01*
X129332914Y-146685713D02*
X129380533Y-146780951D01*
X129428152Y-145352380D02*
X130094819Y-145352380D01*
X129047200Y-145590475D02*
X129761485Y-145828570D01*
X129761485Y-145828570D02*
X129761485Y-145209523D01*
X139868819Y-129000094D02*
X140678342Y-129000094D01*
X140678342Y-129000094D02*
X140773580Y-128952475D01*
X140773580Y-128952475D02*
X140821200Y-128904856D01*
X140821200Y-128904856D02*
X140868819Y-128809618D01*
X140868819Y-128809618D02*
X140868819Y-128619142D01*
X140868819Y-128619142D02*
X140821200Y-128523904D01*
X140821200Y-128523904D02*
X140773580Y-128476285D01*
X140773580Y-128476285D02*
X140678342Y-128428666D01*
X140678342Y-128428666D02*
X139868819Y-128428666D01*
X140868819Y-127428666D02*
X140868819Y-128000094D01*
X140868819Y-127714380D02*
X139868819Y-127714380D01*
X139868819Y-127714380D02*
X140011676Y-127809618D01*
X140011676Y-127809618D02*
X140106914Y-127904856D01*
X140106914Y-127904856D02*
X140154533Y-128000094D01*
X139868819Y-126809618D02*
X139868819Y-126714380D01*
X139868819Y-126714380D02*
X139916438Y-126619142D01*
X139916438Y-126619142D02*
X139964057Y-126571523D01*
X139964057Y-126571523D02*
X140059295Y-126523904D01*
X140059295Y-126523904D02*
X140249771Y-126476285D01*
X140249771Y-126476285D02*
X140487866Y-126476285D01*
X140487866Y-126476285D02*
X140678342Y-126523904D01*
X140678342Y-126523904D02*
X140773580Y-126571523D01*
X140773580Y-126571523D02*
X140821200Y-126619142D01*
X140821200Y-126619142D02*
X140868819Y-126714380D01*
X140868819Y-126714380D02*
X140868819Y-126809618D01*
X140868819Y-126809618D02*
X140821200Y-126904856D01*
X140821200Y-126904856D02*
X140773580Y-126952475D01*
X140773580Y-126952475D02*
X140678342Y-127000094D01*
X140678342Y-127000094D02*
X140487866Y-127047713D01*
X140487866Y-127047713D02*
X140249771Y-127047713D01*
X140249771Y-127047713D02*
X140059295Y-127000094D01*
X140059295Y-127000094D02*
X139964057Y-126952475D01*
X139964057Y-126952475D02*
X139916438Y-126904856D01*
X139916438Y-126904856D02*
X139868819Y-126809618D01*
X120344819Y-123133333D02*
X121059104Y-123133333D01*
X121059104Y-123133333D02*
X121201961Y-123180952D01*
X121201961Y-123180952D02*
X121297200Y-123276190D01*
X121297200Y-123276190D02*
X121344819Y-123419047D01*
X121344819Y-123419047D02*
X121344819Y-123514285D01*
X120678152Y-122228571D02*
X121344819Y-122228571D01*
X120297200Y-122466666D02*
X121011485Y-122704761D01*
X121011485Y-122704761D02*
X121011485Y-122085714D01*
X102954819Y-97072857D02*
X102478628Y-97406190D01*
X102954819Y-97644285D02*
X101954819Y-97644285D01*
X101954819Y-97644285D02*
X101954819Y-97263333D01*
X101954819Y-97263333D02*
X102002438Y-97168095D01*
X102002438Y-97168095D02*
X102050057Y-97120476D01*
X102050057Y-97120476D02*
X102145295Y-97072857D01*
X102145295Y-97072857D02*
X102288152Y-97072857D01*
X102288152Y-97072857D02*
X102383390Y-97120476D01*
X102383390Y-97120476D02*
X102431009Y-97168095D01*
X102431009Y-97168095D02*
X102478628Y-97263333D01*
X102478628Y-97263333D02*
X102478628Y-97644285D01*
X102050057Y-96691904D02*
X102002438Y-96644285D01*
X102002438Y-96644285D02*
X101954819Y-96549047D01*
X101954819Y-96549047D02*
X101954819Y-96310952D01*
X101954819Y-96310952D02*
X102002438Y-96215714D01*
X102002438Y-96215714D02*
X102050057Y-96168095D01*
X102050057Y-96168095D02*
X102145295Y-96120476D01*
X102145295Y-96120476D02*
X102240533Y-96120476D01*
X102240533Y-96120476D02*
X102383390Y-96168095D01*
X102383390Y-96168095D02*
X102954819Y-96739523D01*
X102954819Y-96739523D02*
X102954819Y-96120476D01*
X101954819Y-95501428D02*
X101954819Y-95406190D01*
X101954819Y-95406190D02*
X102002438Y-95310952D01*
X102002438Y-95310952D02*
X102050057Y-95263333D01*
X102050057Y-95263333D02*
X102145295Y-95215714D01*
X102145295Y-95215714D02*
X102335771Y-95168095D01*
X102335771Y-95168095D02*
X102573866Y-95168095D01*
X102573866Y-95168095D02*
X102764342Y-95215714D01*
X102764342Y-95215714D02*
X102859580Y-95263333D01*
X102859580Y-95263333D02*
X102907200Y-95310952D01*
X102907200Y-95310952D02*
X102954819Y-95406190D01*
X102954819Y-95406190D02*
X102954819Y-95501428D01*
X102954819Y-95501428D02*
X102907200Y-95596666D01*
X102907200Y-95596666D02*
X102859580Y-95644285D01*
X102859580Y-95644285D02*
X102764342Y-95691904D01*
X102764342Y-95691904D02*
X102573866Y-95739523D01*
X102573866Y-95739523D02*
X102335771Y-95739523D01*
X102335771Y-95739523D02*
X102145295Y-95691904D01*
X102145295Y-95691904D02*
X102050057Y-95644285D01*
X102050057Y-95644285D02*
X102002438Y-95596666D01*
X102002438Y-95596666D02*
X101954819Y-95501428D01*
X58281200Y-87185332D02*
X58328819Y-87042475D01*
X58328819Y-87042475D02*
X58328819Y-86804380D01*
X58328819Y-86804380D02*
X58281200Y-86709142D01*
X58281200Y-86709142D02*
X58233580Y-86661523D01*
X58233580Y-86661523D02*
X58138342Y-86613904D01*
X58138342Y-86613904D02*
X58043104Y-86613904D01*
X58043104Y-86613904D02*
X57947866Y-86661523D01*
X57947866Y-86661523D02*
X57900247Y-86709142D01*
X57900247Y-86709142D02*
X57852628Y-86804380D01*
X57852628Y-86804380D02*
X57805009Y-86994856D01*
X57805009Y-86994856D02*
X57757390Y-87090094D01*
X57757390Y-87090094D02*
X57709771Y-87137713D01*
X57709771Y-87137713D02*
X57614533Y-87185332D01*
X57614533Y-87185332D02*
X57519295Y-87185332D01*
X57519295Y-87185332D02*
X57424057Y-87137713D01*
X57424057Y-87137713D02*
X57376438Y-87090094D01*
X57376438Y-87090094D02*
X57328819Y-86994856D01*
X57328819Y-86994856D02*
X57328819Y-86756761D01*
X57328819Y-86756761D02*
X57376438Y-86613904D01*
X57328819Y-86280570D02*
X58328819Y-86042475D01*
X58328819Y-86042475D02*
X57614533Y-85851999D01*
X57614533Y-85851999D02*
X58328819Y-85661523D01*
X58328819Y-85661523D02*
X57328819Y-85423428D01*
X57328819Y-84566285D02*
X57328819Y-85042475D01*
X57328819Y-85042475D02*
X57805009Y-85090094D01*
X57805009Y-85090094D02*
X57757390Y-85042475D01*
X57757390Y-85042475D02*
X57709771Y-84947237D01*
X57709771Y-84947237D02*
X57709771Y-84709142D01*
X57709771Y-84709142D02*
X57757390Y-84613904D01*
X57757390Y-84613904D02*
X57805009Y-84566285D01*
X57805009Y-84566285D02*
X57900247Y-84518666D01*
X57900247Y-84518666D02*
X58138342Y-84518666D01*
X58138342Y-84518666D02*
X58233580Y-84566285D01*
X58233580Y-84566285D02*
X58281200Y-84613904D01*
X58281200Y-84613904D02*
X58328819Y-84709142D01*
X58328819Y-84709142D02*
X58328819Y-84947237D01*
X58328819Y-84947237D02*
X58281200Y-85042475D01*
X58281200Y-85042475D02*
X58233580Y-85090094D01*
X80822095Y-125541819D02*
X80822095Y-124541819D01*
X80822095Y-125018009D02*
X81393523Y-125018009D01*
X81393523Y-125541819D02*
X81393523Y-124541819D01*
X81774476Y-124541819D02*
X82441142Y-124541819D01*
X82441142Y-124541819D02*
X82012571Y-125541819D01*
X59285142Y-114374819D02*
X58951809Y-113898628D01*
X58713714Y-114374819D02*
X58713714Y-113374819D01*
X58713714Y-113374819D02*
X59094666Y-113374819D01*
X59094666Y-113374819D02*
X59189904Y-113422438D01*
X59189904Y-113422438D02*
X59237523Y-113470057D01*
X59237523Y-113470057D02*
X59285142Y-113565295D01*
X59285142Y-113565295D02*
X59285142Y-113708152D01*
X59285142Y-113708152D02*
X59237523Y-113803390D01*
X59237523Y-113803390D02*
X59189904Y-113851009D01*
X59189904Y-113851009D02*
X59094666Y-113898628D01*
X59094666Y-113898628D02*
X58713714Y-113898628D01*
X60237523Y-114374819D02*
X59666095Y-114374819D01*
X59951809Y-114374819D02*
X59951809Y-113374819D01*
X59951809Y-113374819D02*
X59856571Y-113517676D01*
X59856571Y-113517676D02*
X59761333Y-113612914D01*
X59761333Y-113612914D02*
X59666095Y-113660533D01*
X60570857Y-113374819D02*
X61237523Y-113374819D01*
X61237523Y-113374819D02*
X60808952Y-114374819D01*
X138604666Y-65229819D02*
X138604666Y-65944104D01*
X138604666Y-65944104D02*
X138557047Y-66086961D01*
X138557047Y-66086961D02*
X138461809Y-66182200D01*
X138461809Y-66182200D02*
X138318952Y-66229819D01*
X138318952Y-66229819D02*
X138223714Y-66229819D01*
X139033238Y-65325057D02*
X139080857Y-65277438D01*
X139080857Y-65277438D02*
X139176095Y-65229819D01*
X139176095Y-65229819D02*
X139414190Y-65229819D01*
X139414190Y-65229819D02*
X139509428Y-65277438D01*
X139509428Y-65277438D02*
X139557047Y-65325057D01*
X139557047Y-65325057D02*
X139604666Y-65420295D01*
X139604666Y-65420295D02*
X139604666Y-65515533D01*
X139604666Y-65515533D02*
X139557047Y-65658390D01*
X139557047Y-65658390D02*
X138985619Y-66229819D01*
X138985619Y-66229819D02*
X139604666Y-66229819D01*
X84354642Y-136534819D02*
X84021309Y-136058628D01*
X83783214Y-136534819D02*
X83783214Y-135534819D01*
X83783214Y-135534819D02*
X84164166Y-135534819D01*
X84164166Y-135534819D02*
X84259404Y-135582438D01*
X84259404Y-135582438D02*
X84307023Y-135630057D01*
X84307023Y-135630057D02*
X84354642Y-135725295D01*
X84354642Y-135725295D02*
X84354642Y-135868152D01*
X84354642Y-135868152D02*
X84307023Y-135963390D01*
X84307023Y-135963390D02*
X84259404Y-136011009D01*
X84259404Y-136011009D02*
X84164166Y-136058628D01*
X84164166Y-136058628D02*
X83783214Y-136058628D01*
X85307023Y-136534819D02*
X84735595Y-136534819D01*
X85021309Y-136534819D02*
X85021309Y-135534819D01*
X85021309Y-135534819D02*
X84926071Y-135677676D01*
X84926071Y-135677676D02*
X84830833Y-135772914D01*
X84830833Y-135772914D02*
X84735595Y-135820533D01*
X85878452Y-135963390D02*
X85783214Y-135915771D01*
X85783214Y-135915771D02*
X85735595Y-135868152D01*
X85735595Y-135868152D02*
X85687976Y-135772914D01*
X85687976Y-135772914D02*
X85687976Y-135725295D01*
X85687976Y-135725295D02*
X85735595Y-135630057D01*
X85735595Y-135630057D02*
X85783214Y-135582438D01*
X85783214Y-135582438D02*
X85878452Y-135534819D01*
X85878452Y-135534819D02*
X86068928Y-135534819D01*
X86068928Y-135534819D02*
X86164166Y-135582438D01*
X86164166Y-135582438D02*
X86211785Y-135630057D01*
X86211785Y-135630057D02*
X86259404Y-135725295D01*
X86259404Y-135725295D02*
X86259404Y-135772914D01*
X86259404Y-135772914D02*
X86211785Y-135868152D01*
X86211785Y-135868152D02*
X86164166Y-135915771D01*
X86164166Y-135915771D02*
X86068928Y-135963390D01*
X86068928Y-135963390D02*
X85878452Y-135963390D01*
X85878452Y-135963390D02*
X85783214Y-136011009D01*
X85783214Y-136011009D02*
X85735595Y-136058628D01*
X85735595Y-136058628D02*
X85687976Y-136153866D01*
X85687976Y-136153866D02*
X85687976Y-136344342D01*
X85687976Y-136344342D02*
X85735595Y-136439580D01*
X85735595Y-136439580D02*
X85783214Y-136487200D01*
X85783214Y-136487200D02*
X85878452Y-136534819D01*
X85878452Y-136534819D02*
X86068928Y-136534819D01*
X86068928Y-136534819D02*
X86164166Y-136487200D01*
X86164166Y-136487200D02*
X86211785Y-136439580D01*
X86211785Y-136439580D02*
X86259404Y-136344342D01*
X86259404Y-136344342D02*
X86259404Y-136153866D01*
X86259404Y-136153866D02*
X86211785Y-136058628D01*
X86211785Y-136058628D02*
X86164166Y-136011009D01*
X86164166Y-136011009D02*
X86068928Y-135963390D01*
X117654095Y-125541819D02*
X117654095Y-124541819D01*
X117654095Y-125018009D02*
X118225523Y-125018009D01*
X118225523Y-125541819D02*
X118225523Y-124541819D01*
X118844571Y-124970390D02*
X118749333Y-124922771D01*
X118749333Y-124922771D02*
X118701714Y-124875152D01*
X118701714Y-124875152D02*
X118654095Y-124779914D01*
X118654095Y-124779914D02*
X118654095Y-124732295D01*
X118654095Y-124732295D02*
X118701714Y-124637057D01*
X118701714Y-124637057D02*
X118749333Y-124589438D01*
X118749333Y-124589438D02*
X118844571Y-124541819D01*
X118844571Y-124541819D02*
X119035047Y-124541819D01*
X119035047Y-124541819D02*
X119130285Y-124589438D01*
X119130285Y-124589438D02*
X119177904Y-124637057D01*
X119177904Y-124637057D02*
X119225523Y-124732295D01*
X119225523Y-124732295D02*
X119225523Y-124779914D01*
X119225523Y-124779914D02*
X119177904Y-124875152D01*
X119177904Y-124875152D02*
X119130285Y-124922771D01*
X119130285Y-124922771D02*
X119035047Y-124970390D01*
X119035047Y-124970390D02*
X118844571Y-124970390D01*
X118844571Y-124970390D02*
X118749333Y-125018009D01*
X118749333Y-125018009D02*
X118701714Y-125065628D01*
X118701714Y-125065628D02*
X118654095Y-125160866D01*
X118654095Y-125160866D02*
X118654095Y-125351342D01*
X118654095Y-125351342D02*
X118701714Y-125446580D01*
X118701714Y-125446580D02*
X118749333Y-125494200D01*
X118749333Y-125494200D02*
X118844571Y-125541819D01*
X118844571Y-125541819D02*
X119035047Y-125541819D01*
X119035047Y-125541819D02*
X119130285Y-125494200D01*
X119130285Y-125494200D02*
X119177904Y-125446580D01*
X119177904Y-125446580D02*
X119225523Y-125351342D01*
X119225523Y-125351342D02*
X119225523Y-125160866D01*
X119225523Y-125160866D02*
X119177904Y-125065628D01*
X119177904Y-125065628D02*
X119130285Y-125018009D01*
X119130285Y-125018009D02*
X119035047Y-124970390D01*
X82499580Y-113651357D02*
X82547200Y-113698976D01*
X82547200Y-113698976D02*
X82594819Y-113841833D01*
X82594819Y-113841833D02*
X82594819Y-113937071D01*
X82594819Y-113937071D02*
X82547200Y-114079928D01*
X82547200Y-114079928D02*
X82451961Y-114175166D01*
X82451961Y-114175166D02*
X82356723Y-114222785D01*
X82356723Y-114222785D02*
X82166247Y-114270404D01*
X82166247Y-114270404D02*
X82023390Y-114270404D01*
X82023390Y-114270404D02*
X81832914Y-114222785D01*
X81832914Y-114222785D02*
X81737676Y-114175166D01*
X81737676Y-114175166D02*
X81642438Y-114079928D01*
X81642438Y-114079928D02*
X81594819Y-113937071D01*
X81594819Y-113937071D02*
X81594819Y-113841833D01*
X81594819Y-113841833D02*
X81642438Y-113698976D01*
X81642438Y-113698976D02*
X81690057Y-113651357D01*
X82594819Y-112698976D02*
X82594819Y-113270404D01*
X82594819Y-112984690D02*
X81594819Y-112984690D01*
X81594819Y-112984690D02*
X81737676Y-113079928D01*
X81737676Y-113079928D02*
X81832914Y-113175166D01*
X81832914Y-113175166D02*
X81880533Y-113270404D01*
X81928152Y-111841833D02*
X82594819Y-111841833D01*
X81547200Y-112079928D02*
X82261485Y-112318023D01*
X82261485Y-112318023D02*
X82261485Y-111698976D01*
X118899819Y-158281904D02*
X119709342Y-158281904D01*
X119709342Y-158281904D02*
X119804580Y-158234285D01*
X119804580Y-158234285D02*
X119852200Y-158186666D01*
X119852200Y-158186666D02*
X119899819Y-158091428D01*
X119899819Y-158091428D02*
X119899819Y-157900952D01*
X119899819Y-157900952D02*
X119852200Y-157805714D01*
X119852200Y-157805714D02*
X119804580Y-157758095D01*
X119804580Y-157758095D02*
X119709342Y-157710476D01*
X119709342Y-157710476D02*
X118899819Y-157710476D01*
X118899819Y-156805714D02*
X118899819Y-156996190D01*
X118899819Y-156996190D02*
X118947438Y-157091428D01*
X118947438Y-157091428D02*
X118995057Y-157139047D01*
X118995057Y-157139047D02*
X119137914Y-157234285D01*
X119137914Y-157234285D02*
X119328390Y-157281904D01*
X119328390Y-157281904D02*
X119709342Y-157281904D01*
X119709342Y-157281904D02*
X119804580Y-157234285D01*
X119804580Y-157234285D02*
X119852200Y-157186666D01*
X119852200Y-157186666D02*
X119899819Y-157091428D01*
X119899819Y-157091428D02*
X119899819Y-156900952D01*
X119899819Y-156900952D02*
X119852200Y-156805714D01*
X119852200Y-156805714D02*
X119804580Y-156758095D01*
X119804580Y-156758095D02*
X119709342Y-156710476D01*
X119709342Y-156710476D02*
X119471247Y-156710476D01*
X119471247Y-156710476D02*
X119376009Y-156758095D01*
X119376009Y-156758095D02*
X119328390Y-156805714D01*
X119328390Y-156805714D02*
X119280771Y-156900952D01*
X119280771Y-156900952D02*
X119280771Y-157091428D01*
X119280771Y-157091428D02*
X119328390Y-157186666D01*
X119328390Y-157186666D02*
X119376009Y-157234285D01*
X119376009Y-157234285D02*
X119471247Y-157281904D01*
X82191201Y-138853332D02*
X82238820Y-138710475D01*
X82238820Y-138710475D02*
X82238820Y-138472380D01*
X82238820Y-138472380D02*
X82191201Y-138377142D01*
X82191201Y-138377142D02*
X82143581Y-138329523D01*
X82143581Y-138329523D02*
X82048343Y-138281904D01*
X82048343Y-138281904D02*
X81953105Y-138281904D01*
X81953105Y-138281904D02*
X81857867Y-138329523D01*
X81857867Y-138329523D02*
X81810248Y-138377142D01*
X81810248Y-138377142D02*
X81762629Y-138472380D01*
X81762629Y-138472380D02*
X81715010Y-138662856D01*
X81715010Y-138662856D02*
X81667391Y-138758094D01*
X81667391Y-138758094D02*
X81619772Y-138805713D01*
X81619772Y-138805713D02*
X81524534Y-138853332D01*
X81524534Y-138853332D02*
X81429296Y-138853332D01*
X81429296Y-138853332D02*
X81334058Y-138805713D01*
X81334058Y-138805713D02*
X81286439Y-138758094D01*
X81286439Y-138758094D02*
X81238820Y-138662856D01*
X81238820Y-138662856D02*
X81238820Y-138424761D01*
X81238820Y-138424761D02*
X81286439Y-138281904D01*
X81238820Y-137948570D02*
X82238820Y-137710475D01*
X82238820Y-137710475D02*
X81524534Y-137519999D01*
X81524534Y-137519999D02*
X82238820Y-137329523D01*
X82238820Y-137329523D02*
X81238820Y-137091428D01*
X81238820Y-136281904D02*
X81238820Y-136472380D01*
X81238820Y-136472380D02*
X81286439Y-136567618D01*
X81286439Y-136567618D02*
X81334058Y-136615237D01*
X81334058Y-136615237D02*
X81476915Y-136710475D01*
X81476915Y-136710475D02*
X81667391Y-136758094D01*
X81667391Y-136758094D02*
X82048343Y-136758094D01*
X82048343Y-136758094D02*
X82143581Y-136710475D01*
X82143581Y-136710475D02*
X82191201Y-136662856D01*
X82191201Y-136662856D02*
X82238820Y-136567618D01*
X82238820Y-136567618D02*
X82238820Y-136377142D01*
X82238820Y-136377142D02*
X82191201Y-136281904D01*
X82191201Y-136281904D02*
X82143581Y-136234285D01*
X82143581Y-136234285D02*
X82048343Y-136186666D01*
X82048343Y-136186666D02*
X81810248Y-136186666D01*
X81810248Y-136186666D02*
X81715010Y-136234285D01*
X81715010Y-136234285D02*
X81667391Y-136281904D01*
X81667391Y-136281904D02*
X81619772Y-136377142D01*
X81619772Y-136377142D02*
X81619772Y-136567618D01*
X81619772Y-136567618D02*
X81667391Y-136662856D01*
X81667391Y-136662856D02*
X81715010Y-136710475D01*
X81715010Y-136710475D02*
X81810248Y-136758094D01*
X58281200Y-128333332D02*
X58328819Y-128190475D01*
X58328819Y-128190475D02*
X58328819Y-127952380D01*
X58328819Y-127952380D02*
X58281200Y-127857142D01*
X58281200Y-127857142D02*
X58233580Y-127809523D01*
X58233580Y-127809523D02*
X58138342Y-127761904D01*
X58138342Y-127761904D02*
X58043104Y-127761904D01*
X58043104Y-127761904D02*
X57947866Y-127809523D01*
X57947866Y-127809523D02*
X57900247Y-127857142D01*
X57900247Y-127857142D02*
X57852628Y-127952380D01*
X57852628Y-127952380D02*
X57805009Y-128142856D01*
X57805009Y-128142856D02*
X57757390Y-128238094D01*
X57757390Y-128238094D02*
X57709771Y-128285713D01*
X57709771Y-128285713D02*
X57614533Y-128333332D01*
X57614533Y-128333332D02*
X57519295Y-128333332D01*
X57519295Y-128333332D02*
X57424057Y-128285713D01*
X57424057Y-128285713D02*
X57376438Y-128238094D01*
X57376438Y-128238094D02*
X57328819Y-128142856D01*
X57328819Y-128142856D02*
X57328819Y-127904761D01*
X57328819Y-127904761D02*
X57376438Y-127761904D01*
X57328819Y-127428570D02*
X58328819Y-127190475D01*
X58328819Y-127190475D02*
X57614533Y-126999999D01*
X57614533Y-126999999D02*
X58328819Y-126809523D01*
X58328819Y-126809523D02*
X57328819Y-126571428D01*
X57424057Y-126238094D02*
X57376438Y-126190475D01*
X57376438Y-126190475D02*
X57328819Y-126095237D01*
X57328819Y-126095237D02*
X57328819Y-125857142D01*
X57328819Y-125857142D02*
X57376438Y-125761904D01*
X57376438Y-125761904D02*
X57424057Y-125714285D01*
X57424057Y-125714285D02*
X57519295Y-125666666D01*
X57519295Y-125666666D02*
X57614533Y-125666666D01*
X57614533Y-125666666D02*
X57757390Y-125714285D01*
X57757390Y-125714285D02*
X58328819Y-126285713D01*
X58328819Y-126285713D02*
X58328819Y-125666666D01*
X96564819Y-97102857D02*
X96088628Y-97436190D01*
X96564819Y-97674285D02*
X95564819Y-97674285D01*
X95564819Y-97674285D02*
X95564819Y-97293333D01*
X95564819Y-97293333D02*
X95612438Y-97198095D01*
X95612438Y-97198095D02*
X95660057Y-97150476D01*
X95660057Y-97150476D02*
X95755295Y-97102857D01*
X95755295Y-97102857D02*
X95898152Y-97102857D01*
X95898152Y-97102857D02*
X95993390Y-97150476D01*
X95993390Y-97150476D02*
X96041009Y-97198095D01*
X96041009Y-97198095D02*
X96088628Y-97293333D01*
X96088628Y-97293333D02*
X96088628Y-97674285D01*
X96564819Y-96150476D02*
X96564819Y-96721904D01*
X96564819Y-96436190D02*
X95564819Y-96436190D01*
X95564819Y-96436190D02*
X95707676Y-96531428D01*
X95707676Y-96531428D02*
X95802914Y-96626666D01*
X95802914Y-96626666D02*
X95850533Y-96721904D01*
X96564819Y-95674285D02*
X96564819Y-95483809D01*
X96564819Y-95483809D02*
X96517200Y-95388571D01*
X96517200Y-95388571D02*
X96469580Y-95340952D01*
X96469580Y-95340952D02*
X96326723Y-95245714D01*
X96326723Y-95245714D02*
X96136247Y-95198095D01*
X96136247Y-95198095D02*
X95755295Y-95198095D01*
X95755295Y-95198095D02*
X95660057Y-95245714D01*
X95660057Y-95245714D02*
X95612438Y-95293333D01*
X95612438Y-95293333D02*
X95564819Y-95388571D01*
X95564819Y-95388571D02*
X95564819Y-95579047D01*
X95564819Y-95579047D02*
X95612438Y-95674285D01*
X95612438Y-95674285D02*
X95660057Y-95721904D01*
X95660057Y-95721904D02*
X95755295Y-95769523D01*
X95755295Y-95769523D02*
X95993390Y-95769523D01*
X95993390Y-95769523D02*
X96088628Y-95721904D01*
X96088628Y-95721904D02*
X96136247Y-95674285D01*
X96136247Y-95674285D02*
X96183866Y-95579047D01*
X96183866Y-95579047D02*
X96183866Y-95388571D01*
X96183866Y-95388571D02*
X96136247Y-95293333D01*
X96136247Y-95293333D02*
X96088628Y-95245714D01*
X96088628Y-95245714D02*
X95993390Y-95198095D01*
X138350666Y-90342819D02*
X138350666Y-91057104D01*
X138350666Y-91057104D02*
X138303047Y-91199961D01*
X138303047Y-91199961D02*
X138207809Y-91295200D01*
X138207809Y-91295200D02*
X138064952Y-91342819D01*
X138064952Y-91342819D02*
X137969714Y-91342819D01*
X139350666Y-91342819D02*
X138779238Y-91342819D01*
X139064952Y-91342819D02*
X139064952Y-90342819D01*
X139064952Y-90342819D02*
X138969714Y-90485676D01*
X138969714Y-90485676D02*
X138874476Y-90580914D01*
X138874476Y-90580914D02*
X138779238Y-90628533D01*
X76980476Y-117274819D02*
X76980476Y-116274819D01*
X76980476Y-116274819D02*
X77313809Y-116989104D01*
X77313809Y-116989104D02*
X77647142Y-116274819D01*
X77647142Y-116274819D02*
X77647142Y-117274819D01*
X78551904Y-116608152D02*
X78551904Y-117274819D01*
X78313809Y-116227200D02*
X78075714Y-116941485D01*
X78075714Y-116941485D02*
X78694761Y-116941485D01*
D11*
X118456580Y-124524095D02*
X117647057Y-124524095D01*
X117647057Y-124524095D02*
X117551819Y-124571714D01*
X117551819Y-124571714D02*
X117504200Y-124619333D01*
X117504200Y-124619333D02*
X117456580Y-124714571D01*
X117456580Y-124714571D02*
X117456580Y-124905047D01*
X117456580Y-124905047D02*
X117504200Y-125000285D01*
X117504200Y-125000285D02*
X117551819Y-125047904D01*
X117551819Y-125047904D02*
X117647057Y-125095523D01*
X117647057Y-125095523D02*
X118456580Y-125095523D01*
X118361342Y-125524095D02*
X118408961Y-125571714D01*
X118408961Y-125571714D02*
X118456580Y-125666952D01*
X118456580Y-125666952D02*
X118456580Y-125905047D01*
X118456580Y-125905047D02*
X118408961Y-126000285D01*
X118408961Y-126000285D02*
X118361342Y-126047904D01*
X118361342Y-126047904D02*
X118266104Y-126095523D01*
X118266104Y-126095523D02*
X118170866Y-126095523D01*
X118170866Y-126095523D02*
X118028009Y-126047904D01*
X118028009Y-126047904D02*
X117456580Y-125476476D01*
X117456580Y-125476476D02*
X117456580Y-126095523D01*
D12*
X89807142Y-73559580D02*
X89759523Y-73607200D01*
X89759523Y-73607200D02*
X89616666Y-73654819D01*
X89616666Y-73654819D02*
X89521428Y-73654819D01*
X89521428Y-73654819D02*
X89378571Y-73607200D01*
X89378571Y-73607200D02*
X89283333Y-73511961D01*
X89283333Y-73511961D02*
X89235714Y-73416723D01*
X89235714Y-73416723D02*
X89188095Y-73226247D01*
X89188095Y-73226247D02*
X89188095Y-73083390D01*
X89188095Y-73083390D02*
X89235714Y-72892914D01*
X89235714Y-72892914D02*
X89283333Y-72797676D01*
X89283333Y-72797676D02*
X89378571Y-72702438D01*
X89378571Y-72702438D02*
X89521428Y-72654819D01*
X89521428Y-72654819D02*
X89616666Y-72654819D01*
X89616666Y-72654819D02*
X89759523Y-72702438D01*
X89759523Y-72702438D02*
X89807142Y-72750057D01*
X90759523Y-73654819D02*
X90188095Y-73654819D01*
X90473809Y-73654819D02*
X90473809Y-72654819D01*
X90473809Y-72654819D02*
X90378571Y-72797676D01*
X90378571Y-72797676D02*
X90283333Y-72892914D01*
X90283333Y-72892914D02*
X90188095Y-72940533D01*
X91092857Y-72654819D02*
X91711904Y-72654819D01*
X91711904Y-72654819D02*
X91378571Y-73035771D01*
X91378571Y-73035771D02*
X91521428Y-73035771D01*
X91521428Y-73035771D02*
X91616666Y-73083390D01*
X91616666Y-73083390D02*
X91664285Y-73131009D01*
X91664285Y-73131009D02*
X91711904Y-73226247D01*
X91711904Y-73226247D02*
X91711904Y-73464342D01*
X91711904Y-73464342D02*
X91664285Y-73559580D01*
X91664285Y-73559580D02*
X91616666Y-73607200D01*
X91616666Y-73607200D02*
X91521428Y-73654819D01*
X91521428Y-73654819D02*
X91235714Y-73654819D01*
X91235714Y-73654819D02*
X91140476Y-73607200D01*
X91140476Y-73607200D02*
X91092857Y-73559580D01*
X95094819Y-88860857D02*
X94618628Y-89194190D01*
X95094819Y-89432285D02*
X94094819Y-89432285D01*
X94094819Y-89432285D02*
X94094819Y-89051333D01*
X94094819Y-89051333D02*
X94142438Y-88956095D01*
X94142438Y-88956095D02*
X94190057Y-88908476D01*
X94190057Y-88908476D02*
X94285295Y-88860857D01*
X94285295Y-88860857D02*
X94428152Y-88860857D01*
X94428152Y-88860857D02*
X94523390Y-88908476D01*
X94523390Y-88908476D02*
X94571009Y-88956095D01*
X94571009Y-88956095D02*
X94618628Y-89051333D01*
X94618628Y-89051333D02*
X94618628Y-89432285D01*
X95094819Y-87908476D02*
X95094819Y-88479904D01*
X95094819Y-88194190D02*
X94094819Y-88194190D01*
X94094819Y-88194190D02*
X94237676Y-88289428D01*
X94237676Y-88289428D02*
X94332914Y-88384666D01*
X94332914Y-88384666D02*
X94380533Y-88479904D01*
X94428152Y-87051333D02*
X95094819Y-87051333D01*
X94047200Y-87289428D02*
X94761485Y-87527523D01*
X94761485Y-87527523D02*
X94761485Y-86908476D01*
X161958819Y-121999333D02*
X162673104Y-121999333D01*
X162673104Y-121999333D02*
X162815961Y-122046952D01*
X162815961Y-122046952D02*
X162911200Y-122142190D01*
X162911200Y-122142190D02*
X162958819Y-122285047D01*
X162958819Y-122285047D02*
X162958819Y-122380285D01*
X161958819Y-121046952D02*
X161958819Y-121523142D01*
X161958819Y-121523142D02*
X162435009Y-121570761D01*
X162435009Y-121570761D02*
X162387390Y-121523142D01*
X162387390Y-121523142D02*
X162339771Y-121427904D01*
X162339771Y-121427904D02*
X162339771Y-121189809D01*
X162339771Y-121189809D02*
X162387390Y-121094571D01*
X162387390Y-121094571D02*
X162435009Y-121046952D01*
X162435009Y-121046952D02*
X162530247Y-120999333D01*
X162530247Y-120999333D02*
X162768342Y-120999333D01*
X162768342Y-120999333D02*
X162863580Y-121046952D01*
X162863580Y-121046952D02*
X162911200Y-121094571D01*
X162911200Y-121094571D02*
X162958819Y-121189809D01*
X162958819Y-121189809D02*
X162958819Y-121427904D01*
X162958819Y-121427904D02*
X162911200Y-121523142D01*
X162911200Y-121523142D02*
X162863580Y-121570761D01*
X143577866Y-128446951D02*
X143577866Y-127685047D01*
X143958819Y-128065999D02*
X143196914Y-128065999D01*
X143618700Y-116337428D02*
X143618700Y-115194571D01*
X59317142Y-110310819D02*
X58983809Y-109834628D01*
X58745714Y-110310819D02*
X58745714Y-109310819D01*
X58745714Y-109310819D02*
X59126666Y-109310819D01*
X59126666Y-109310819D02*
X59221904Y-109358438D01*
X59221904Y-109358438D02*
X59269523Y-109406057D01*
X59269523Y-109406057D02*
X59317142Y-109501295D01*
X59317142Y-109501295D02*
X59317142Y-109644152D01*
X59317142Y-109644152D02*
X59269523Y-109739390D01*
X59269523Y-109739390D02*
X59221904Y-109787009D01*
X59221904Y-109787009D02*
X59126666Y-109834628D01*
X59126666Y-109834628D02*
X58745714Y-109834628D01*
X60269523Y-110310819D02*
X59698095Y-110310819D01*
X59983809Y-110310819D02*
X59983809Y-109310819D01*
X59983809Y-109310819D02*
X59888571Y-109453676D01*
X59888571Y-109453676D02*
X59793333Y-109548914D01*
X59793333Y-109548914D02*
X59698095Y-109596533D01*
X61174285Y-109310819D02*
X60698095Y-109310819D01*
X60698095Y-109310819D02*
X60650476Y-109787009D01*
X60650476Y-109787009D02*
X60698095Y-109739390D01*
X60698095Y-109739390D02*
X60793333Y-109691771D01*
X60793333Y-109691771D02*
X61031428Y-109691771D01*
X61031428Y-109691771D02*
X61126666Y-109739390D01*
X61126666Y-109739390D02*
X61174285Y-109787009D01*
X61174285Y-109787009D02*
X61221904Y-109882247D01*
X61221904Y-109882247D02*
X61221904Y-110120342D01*
X61221904Y-110120342D02*
X61174285Y-110215580D01*
X61174285Y-110215580D02*
X61126666Y-110263200D01*
X61126666Y-110263200D02*
X61031428Y-110310819D01*
X61031428Y-110310819D02*
X60793333Y-110310819D01*
X60793333Y-110310819D02*
X60698095Y-110263200D01*
X60698095Y-110263200D02*
X60650476Y-110215580D01*
D13*
X80294237Y-80584318D02*
X80294237Y-79314318D01*
X81624714Y-80463365D02*
X81564238Y-80523842D01*
X81564238Y-80523842D02*
X81382809Y-80584318D01*
X81382809Y-80584318D02*
X81261857Y-80584318D01*
X81261857Y-80584318D02*
X81080428Y-80523842D01*
X81080428Y-80523842D02*
X80959476Y-80402889D01*
X80959476Y-80402889D02*
X80898999Y-80281937D01*
X80898999Y-80281937D02*
X80838523Y-80040032D01*
X80838523Y-80040032D02*
X80838523Y-79858603D01*
X80838523Y-79858603D02*
X80898999Y-79616699D01*
X80898999Y-79616699D02*
X80959476Y-79495746D01*
X80959476Y-79495746D02*
X81080428Y-79374794D01*
X81080428Y-79374794D02*
X81261857Y-79314318D01*
X81261857Y-79314318D02*
X81382809Y-79314318D01*
X81382809Y-79314318D02*
X81564238Y-79374794D01*
X81564238Y-79374794D02*
X81624714Y-79435270D01*
X82048047Y-79314318D02*
X82834238Y-79314318D01*
X82834238Y-79314318D02*
X82410904Y-79798127D01*
X82410904Y-79798127D02*
X82592333Y-79798127D01*
X82592333Y-79798127D02*
X82713285Y-79858603D01*
X82713285Y-79858603D02*
X82773761Y-79919080D01*
X82773761Y-79919080D02*
X82834238Y-80040032D01*
X82834238Y-80040032D02*
X82834238Y-80342413D01*
X82834238Y-80342413D02*
X82773761Y-80463365D01*
X82773761Y-80463365D02*
X82713285Y-80523842D01*
X82713285Y-80523842D02*
X82592333Y-80584318D01*
X82592333Y-80584318D02*
X82229476Y-80584318D01*
X82229476Y-80584318D02*
X82108523Y-80523842D01*
X82108523Y-80523842D02*
X82048047Y-80463365D01*
D12*
X104490476Y-90004819D02*
X104490476Y-89004819D01*
X104490476Y-89004819D02*
X104823809Y-89719104D01*
X104823809Y-89719104D02*
X105157142Y-89004819D01*
X105157142Y-89004819D02*
X105157142Y-90004819D01*
X105585714Y-89100057D02*
X105633333Y-89052438D01*
X105633333Y-89052438D02*
X105728571Y-89004819D01*
X105728571Y-89004819D02*
X105966666Y-89004819D01*
X105966666Y-89004819D02*
X106061904Y-89052438D01*
X106061904Y-89052438D02*
X106109523Y-89100057D01*
X106109523Y-89100057D02*
X106157142Y-89195295D01*
X106157142Y-89195295D02*
X106157142Y-89290533D01*
X106157142Y-89290533D02*
X106109523Y-89433390D01*
X106109523Y-89433390D02*
X105538095Y-90004819D01*
X105538095Y-90004819D02*
X106157142Y-90004819D01*
D13*
X108397318Y-76505762D02*
X107127318Y-76505762D01*
X108276365Y-75175285D02*
X108336842Y-75235761D01*
X108336842Y-75235761D02*
X108397318Y-75417190D01*
X108397318Y-75417190D02*
X108397318Y-75538142D01*
X108397318Y-75538142D02*
X108336842Y-75719571D01*
X108336842Y-75719571D02*
X108215889Y-75840523D01*
X108215889Y-75840523D02*
X108094937Y-75901000D01*
X108094937Y-75901000D02*
X107853032Y-75961476D01*
X107853032Y-75961476D02*
X107671603Y-75961476D01*
X107671603Y-75961476D02*
X107429699Y-75901000D01*
X107429699Y-75901000D02*
X107308746Y-75840523D01*
X107308746Y-75840523D02*
X107187794Y-75719571D01*
X107187794Y-75719571D02*
X107127318Y-75538142D01*
X107127318Y-75538142D02*
X107127318Y-75417190D01*
X107127318Y-75417190D02*
X107187794Y-75235761D01*
X107187794Y-75235761D02*
X107248270Y-75175285D01*
X107248270Y-74691476D02*
X107187794Y-74631000D01*
X107187794Y-74631000D02*
X107127318Y-74510047D01*
X107127318Y-74510047D02*
X107127318Y-74207666D01*
X107127318Y-74207666D02*
X107187794Y-74086714D01*
X107187794Y-74086714D02*
X107248270Y-74026238D01*
X107248270Y-74026238D02*
X107369222Y-73965761D01*
X107369222Y-73965761D02*
X107490175Y-73965761D01*
X107490175Y-73965761D02*
X107671603Y-74026238D01*
X107671603Y-74026238D02*
X108397318Y-74751952D01*
X108397318Y-74751952D02*
X108397318Y-73965761D01*
D12*
X147341333Y-110751580D02*
X147293714Y-110799200D01*
X147293714Y-110799200D02*
X147150857Y-110846819D01*
X147150857Y-110846819D02*
X147055619Y-110846819D01*
X147055619Y-110846819D02*
X146912762Y-110799200D01*
X146912762Y-110799200D02*
X146817524Y-110703961D01*
X146817524Y-110703961D02*
X146769905Y-110608723D01*
X146769905Y-110608723D02*
X146722286Y-110418247D01*
X146722286Y-110418247D02*
X146722286Y-110275390D01*
X146722286Y-110275390D02*
X146769905Y-110084914D01*
X146769905Y-110084914D02*
X146817524Y-109989676D01*
X146817524Y-109989676D02*
X146912762Y-109894438D01*
X146912762Y-109894438D02*
X147055619Y-109846819D01*
X147055619Y-109846819D02*
X147150857Y-109846819D01*
X147150857Y-109846819D02*
X147293714Y-109894438D01*
X147293714Y-109894438D02*
X147341333Y-109942057D01*
X148198476Y-110180152D02*
X148198476Y-110846819D01*
X147960381Y-109799200D02*
X147722286Y-110513485D01*
X147722286Y-110513485D02*
X148341333Y-110513485D01*
X94548095Y-157456819D02*
X94548095Y-158266342D01*
X94548095Y-158266342D02*
X94595714Y-158361580D01*
X94595714Y-158361580D02*
X94643333Y-158409200D01*
X94643333Y-158409200D02*
X94738571Y-158456819D01*
X94738571Y-158456819D02*
X94929047Y-158456819D01*
X94929047Y-158456819D02*
X95024285Y-158409200D01*
X95024285Y-158409200D02*
X95071904Y-158361580D01*
X95071904Y-158361580D02*
X95119523Y-158266342D01*
X95119523Y-158266342D02*
X95119523Y-157456819D01*
X95500476Y-157456819D02*
X96119523Y-157456819D01*
X96119523Y-157456819D02*
X95786190Y-157837771D01*
X95786190Y-157837771D02*
X95929047Y-157837771D01*
X95929047Y-157837771D02*
X96024285Y-157885390D01*
X96024285Y-157885390D02*
X96071904Y-157933009D01*
X96071904Y-157933009D02*
X96119523Y-158028247D01*
X96119523Y-158028247D02*
X96119523Y-158266342D01*
X96119523Y-158266342D02*
X96071904Y-158361580D01*
X96071904Y-158361580D02*
X96024285Y-158409200D01*
X96024285Y-158409200D02*
X95929047Y-158456819D01*
X95929047Y-158456819D02*
X95643333Y-158456819D01*
X95643333Y-158456819D02*
X95548095Y-158409200D01*
X95548095Y-158409200D02*
X95500476Y-158361580D01*
D13*
X103326237Y-121351318D02*
X103326237Y-120081318D01*
X104656714Y-121230365D02*
X104596238Y-121290842D01*
X104596238Y-121290842D02*
X104414809Y-121351318D01*
X104414809Y-121351318D02*
X104293857Y-121351318D01*
X104293857Y-121351318D02*
X104112428Y-121290842D01*
X104112428Y-121290842D02*
X103991476Y-121169889D01*
X103991476Y-121169889D02*
X103930999Y-121048937D01*
X103930999Y-121048937D02*
X103870523Y-120807032D01*
X103870523Y-120807032D02*
X103870523Y-120625603D01*
X103870523Y-120625603D02*
X103930999Y-120383699D01*
X103930999Y-120383699D02*
X103991476Y-120262746D01*
X103991476Y-120262746D02*
X104112428Y-120141794D01*
X104112428Y-120141794D02*
X104293857Y-120081318D01*
X104293857Y-120081318D02*
X104414809Y-120081318D01*
X104414809Y-120081318D02*
X104596238Y-120141794D01*
X104596238Y-120141794D02*
X104656714Y-120202270D01*
X105866238Y-121351318D02*
X105140523Y-121351318D01*
X105503380Y-121351318D02*
X105503380Y-120081318D01*
X105503380Y-120081318D02*
X105382428Y-120262746D01*
X105382428Y-120262746D02*
X105261476Y-120383699D01*
X105261476Y-120383699D02*
X105140523Y-120444175D01*
D12*
X113690476Y-118239819D02*
X113690476Y-117239819D01*
X113690476Y-117239819D02*
X114023809Y-117954104D01*
X114023809Y-117954104D02*
X114357142Y-117239819D01*
X114357142Y-117239819D02*
X114357142Y-118239819D01*
X115357142Y-118239819D02*
X114785714Y-118239819D01*
X115071428Y-118239819D02*
X115071428Y-117239819D01*
X115071428Y-117239819D02*
X114976190Y-117382676D01*
X114976190Y-117382676D02*
X114880952Y-117477914D01*
X114880952Y-117477914D02*
X114785714Y-117525533D01*
X87661905Y-89294819D02*
X87661905Y-90104342D01*
X87661905Y-90104342D02*
X87709524Y-90199580D01*
X87709524Y-90199580D02*
X87757143Y-90247200D01*
X87757143Y-90247200D02*
X87852381Y-90294819D01*
X87852381Y-90294819D02*
X88042857Y-90294819D01*
X88042857Y-90294819D02*
X88138095Y-90247200D01*
X88138095Y-90247200D02*
X88185714Y-90199580D01*
X88185714Y-90199580D02*
X88233333Y-90104342D01*
X88233333Y-90104342D02*
X88233333Y-89294819D01*
X89233333Y-90294819D02*
X88661905Y-90294819D01*
X88947619Y-90294819D02*
X88947619Y-89294819D01*
X88947619Y-89294819D02*
X88852381Y-89437676D01*
X88852381Y-89437676D02*
X88757143Y-89532914D01*
X88757143Y-89532914D02*
X88661905Y-89580533D01*
X89614286Y-89390057D02*
X89661905Y-89342438D01*
X89661905Y-89342438D02*
X89757143Y-89294819D01*
X89757143Y-89294819D02*
X89995238Y-89294819D01*
X89995238Y-89294819D02*
X90090476Y-89342438D01*
X90090476Y-89342438D02*
X90138095Y-89390057D01*
X90138095Y-89390057D02*
X90185714Y-89485295D01*
X90185714Y-89485295D02*
X90185714Y-89580533D01*
X90185714Y-89580533D02*
X90138095Y-89723390D01*
X90138095Y-89723390D02*
X89566667Y-90294819D01*
X89566667Y-90294819D02*
X90185714Y-90294819D01*
X86676033Y-101203333D02*
X85976033Y-101203333D01*
X85976033Y-101203333D02*
X85976033Y-101036666D01*
X85976033Y-101036666D02*
X86009366Y-100936666D01*
X86009366Y-100936666D02*
X86076033Y-100870000D01*
X86076033Y-100870000D02*
X86142700Y-100836666D01*
X86142700Y-100836666D02*
X86276033Y-100803333D01*
X86276033Y-100803333D02*
X86376033Y-100803333D01*
X86376033Y-100803333D02*
X86509366Y-100836666D01*
X86509366Y-100836666D02*
X86576033Y-100870000D01*
X86576033Y-100870000D02*
X86642700Y-100936666D01*
X86642700Y-100936666D02*
X86676033Y-101036666D01*
X86676033Y-101036666D02*
X86676033Y-101203333D01*
X85976033Y-100603333D02*
X86676033Y-100370000D01*
X86676033Y-100370000D02*
X85976033Y-100136666D01*
X85976033Y-99703333D02*
X86476033Y-99703333D01*
X86476033Y-99703333D02*
X86576033Y-99736666D01*
X86576033Y-99736666D02*
X86642700Y-99803333D01*
X86642700Y-99803333D02*
X86676033Y-99903333D01*
X86676033Y-99903333D02*
X86676033Y-99970000D01*
X85976033Y-99070000D02*
X85976033Y-99203333D01*
X85976033Y-99203333D02*
X86009366Y-99270000D01*
X86009366Y-99270000D02*
X86042700Y-99303333D01*
X86042700Y-99303333D02*
X86142700Y-99370000D01*
X86142700Y-99370000D02*
X86276033Y-99403333D01*
X86276033Y-99403333D02*
X86542700Y-99403333D01*
X86542700Y-99403333D02*
X86609366Y-99370000D01*
X86609366Y-99370000D02*
X86642700Y-99336667D01*
X86642700Y-99336667D02*
X86676033Y-99270000D01*
X86676033Y-99270000D02*
X86676033Y-99136667D01*
X86676033Y-99136667D02*
X86642700Y-99070000D01*
X86642700Y-99070000D02*
X86609366Y-99036667D01*
X86609366Y-99036667D02*
X86542700Y-99003333D01*
X86542700Y-99003333D02*
X86376033Y-99003333D01*
X86376033Y-99003333D02*
X86309366Y-99036667D01*
X86309366Y-99036667D02*
X86276033Y-99070000D01*
X86276033Y-99070000D02*
X86242700Y-99136667D01*
X86242700Y-99136667D02*
X86242700Y-99270000D01*
X86242700Y-99270000D02*
X86276033Y-99336667D01*
X86276033Y-99336667D02*
X86309366Y-99370000D01*
X86309366Y-99370000D02*
X86376033Y-99403333D01*
X86476033Y-98736666D02*
X86476033Y-98403333D01*
X86676033Y-98803333D02*
X85976033Y-98570000D01*
X85976033Y-98570000D02*
X86676033Y-98336666D01*
X67124676Y-101944019D02*
X67124676Y-102753542D01*
X67124676Y-102753542D02*
X67172295Y-102848780D01*
X67172295Y-102848780D02*
X67219914Y-102896400D01*
X67219914Y-102896400D02*
X67315152Y-102944019D01*
X67315152Y-102944019D02*
X67505628Y-102944019D01*
X67505628Y-102944019D02*
X67600866Y-102896400D01*
X67600866Y-102896400D02*
X67648485Y-102848780D01*
X67648485Y-102848780D02*
X67696104Y-102753542D01*
X67696104Y-102753542D02*
X67696104Y-101944019D01*
X68124676Y-102896400D02*
X68267533Y-102944019D01*
X68267533Y-102944019D02*
X68505628Y-102944019D01*
X68505628Y-102944019D02*
X68600866Y-102896400D01*
X68600866Y-102896400D02*
X68648485Y-102848780D01*
X68648485Y-102848780D02*
X68696104Y-102753542D01*
X68696104Y-102753542D02*
X68696104Y-102658304D01*
X68696104Y-102658304D02*
X68648485Y-102563066D01*
X68648485Y-102563066D02*
X68600866Y-102515447D01*
X68600866Y-102515447D02*
X68505628Y-102467828D01*
X68505628Y-102467828D02*
X68315152Y-102420209D01*
X68315152Y-102420209D02*
X68219914Y-102372590D01*
X68219914Y-102372590D02*
X68172295Y-102324971D01*
X68172295Y-102324971D02*
X68124676Y-102229733D01*
X68124676Y-102229733D02*
X68124676Y-102134495D01*
X68124676Y-102134495D02*
X68172295Y-102039257D01*
X68172295Y-102039257D02*
X68219914Y-101991638D01*
X68219914Y-101991638D02*
X68315152Y-101944019D01*
X68315152Y-101944019D02*
X68553247Y-101944019D01*
X68553247Y-101944019D02*
X68696104Y-101991638D01*
X69458009Y-102420209D02*
X69600866Y-102467828D01*
X69600866Y-102467828D02*
X69648485Y-102515447D01*
X69648485Y-102515447D02*
X69696104Y-102610685D01*
X69696104Y-102610685D02*
X69696104Y-102753542D01*
X69696104Y-102753542D02*
X69648485Y-102848780D01*
X69648485Y-102848780D02*
X69600866Y-102896400D01*
X69600866Y-102896400D02*
X69505628Y-102944019D01*
X69505628Y-102944019D02*
X69124676Y-102944019D01*
X69124676Y-102944019D02*
X69124676Y-101944019D01*
X69124676Y-101944019D02*
X69458009Y-101944019D01*
X69458009Y-101944019D02*
X69553247Y-101991638D01*
X69553247Y-101991638D02*
X69600866Y-102039257D01*
X69600866Y-102039257D02*
X69648485Y-102134495D01*
X69648485Y-102134495D02*
X69648485Y-102229733D01*
X69648485Y-102229733D02*
X69600866Y-102324971D01*
X69600866Y-102324971D02*
X69553247Y-102372590D01*
X69553247Y-102372590D02*
X69458009Y-102420209D01*
X69458009Y-102420209D02*
X69124676Y-102420209D01*
X70886581Y-102944019D02*
X70886581Y-101944019D01*
X70886581Y-102420209D02*
X71458009Y-102420209D01*
X71458009Y-102944019D02*
X71458009Y-101944019D01*
X72077057Y-102944019D02*
X71981819Y-102896400D01*
X71981819Y-102896400D02*
X71934200Y-102848780D01*
X71934200Y-102848780D02*
X71886581Y-102753542D01*
X71886581Y-102753542D02*
X71886581Y-102467828D01*
X71886581Y-102467828D02*
X71934200Y-102372590D01*
X71934200Y-102372590D02*
X71981819Y-102324971D01*
X71981819Y-102324971D02*
X72077057Y-102277352D01*
X72077057Y-102277352D02*
X72219914Y-102277352D01*
X72219914Y-102277352D02*
X72315152Y-102324971D01*
X72315152Y-102324971D02*
X72362771Y-102372590D01*
X72362771Y-102372590D02*
X72410390Y-102467828D01*
X72410390Y-102467828D02*
X72410390Y-102753542D01*
X72410390Y-102753542D02*
X72362771Y-102848780D01*
X72362771Y-102848780D02*
X72315152Y-102896400D01*
X72315152Y-102896400D02*
X72219914Y-102944019D01*
X72219914Y-102944019D02*
X72077057Y-102944019D01*
X72791343Y-102896400D02*
X72886581Y-102944019D01*
X72886581Y-102944019D02*
X73077057Y-102944019D01*
X73077057Y-102944019D02*
X73172295Y-102896400D01*
X73172295Y-102896400D02*
X73219914Y-102801161D01*
X73219914Y-102801161D02*
X73219914Y-102753542D01*
X73219914Y-102753542D02*
X73172295Y-102658304D01*
X73172295Y-102658304D02*
X73077057Y-102610685D01*
X73077057Y-102610685D02*
X72934200Y-102610685D01*
X72934200Y-102610685D02*
X72838962Y-102563066D01*
X72838962Y-102563066D02*
X72791343Y-102467828D01*
X72791343Y-102467828D02*
X72791343Y-102420209D01*
X72791343Y-102420209D02*
X72838962Y-102324971D01*
X72838962Y-102324971D02*
X72934200Y-102277352D01*
X72934200Y-102277352D02*
X73077057Y-102277352D01*
X73077057Y-102277352D02*
X73172295Y-102324971D01*
X73505629Y-102277352D02*
X73886581Y-102277352D01*
X73648486Y-101944019D02*
X73648486Y-102801161D01*
X73648486Y-102801161D02*
X73696105Y-102896400D01*
X73696105Y-102896400D02*
X73791343Y-102944019D01*
X73791343Y-102944019D02*
X73886581Y-102944019D01*
X61684819Y-101261904D02*
X62494342Y-101261904D01*
X62494342Y-101261904D02*
X62589580Y-101214285D01*
X62589580Y-101214285D02*
X62637200Y-101166666D01*
X62637200Y-101166666D02*
X62684819Y-101071428D01*
X62684819Y-101071428D02*
X62684819Y-100880952D01*
X62684819Y-100880952D02*
X62637200Y-100785714D01*
X62637200Y-100785714D02*
X62589580Y-100738095D01*
X62589580Y-100738095D02*
X62494342Y-100690476D01*
X62494342Y-100690476D02*
X61684819Y-100690476D01*
X62637200Y-100261904D02*
X62684819Y-100119047D01*
X62684819Y-100119047D02*
X62684819Y-99880952D01*
X62684819Y-99880952D02*
X62637200Y-99785714D01*
X62637200Y-99785714D02*
X62589580Y-99738095D01*
X62589580Y-99738095D02*
X62494342Y-99690476D01*
X62494342Y-99690476D02*
X62399104Y-99690476D01*
X62399104Y-99690476D02*
X62303866Y-99738095D01*
X62303866Y-99738095D02*
X62256247Y-99785714D01*
X62256247Y-99785714D02*
X62208628Y-99880952D01*
X62208628Y-99880952D02*
X62161009Y-100071428D01*
X62161009Y-100071428D02*
X62113390Y-100166666D01*
X62113390Y-100166666D02*
X62065771Y-100214285D01*
X62065771Y-100214285D02*
X61970533Y-100261904D01*
X61970533Y-100261904D02*
X61875295Y-100261904D01*
X61875295Y-100261904D02*
X61780057Y-100214285D01*
X61780057Y-100214285D02*
X61732438Y-100166666D01*
X61732438Y-100166666D02*
X61684819Y-100071428D01*
X61684819Y-100071428D02*
X61684819Y-99833333D01*
X61684819Y-99833333D02*
X61732438Y-99690476D01*
X62161009Y-98928571D02*
X62208628Y-98785714D01*
X62208628Y-98785714D02*
X62256247Y-98738095D01*
X62256247Y-98738095D02*
X62351485Y-98690476D01*
X62351485Y-98690476D02*
X62494342Y-98690476D01*
X62494342Y-98690476D02*
X62589580Y-98738095D01*
X62589580Y-98738095D02*
X62637200Y-98785714D01*
X62637200Y-98785714D02*
X62684819Y-98880952D01*
X62684819Y-98880952D02*
X62684819Y-99261904D01*
X62684819Y-99261904D02*
X61684819Y-99261904D01*
X61684819Y-99261904D02*
X61684819Y-98928571D01*
X61684819Y-98928571D02*
X61732438Y-98833333D01*
X61732438Y-98833333D02*
X61780057Y-98785714D01*
X61780057Y-98785714D02*
X61875295Y-98738095D01*
X61875295Y-98738095D02*
X61970533Y-98738095D01*
X61970533Y-98738095D02*
X62065771Y-98785714D01*
X62065771Y-98785714D02*
X62113390Y-98833333D01*
X62113390Y-98833333D02*
X62161009Y-98928571D01*
X62161009Y-98928571D02*
X62161009Y-99261904D01*
X76766009Y-99580543D02*
X76766009Y-99247210D01*
X77289819Y-99104353D02*
X77289819Y-99580543D01*
X77289819Y-99580543D02*
X76289819Y-99580543D01*
X76289819Y-99580543D02*
X76289819Y-99104353D01*
X76623152Y-98818638D02*
X76623152Y-98437686D01*
X76289819Y-98675781D02*
X77146961Y-98675781D01*
X77146961Y-98675781D02*
X77242200Y-98628162D01*
X77242200Y-98628162D02*
X77289819Y-98532924D01*
X77289819Y-98532924D02*
X77289819Y-98437686D01*
X77289819Y-98104352D02*
X76289819Y-98104352D01*
X77289819Y-97675781D02*
X76766009Y-97675781D01*
X76766009Y-97675781D02*
X76670771Y-97723400D01*
X76670771Y-97723400D02*
X76623152Y-97818638D01*
X76623152Y-97818638D02*
X76623152Y-97961495D01*
X76623152Y-97961495D02*
X76670771Y-98056733D01*
X76670771Y-98056733D02*
X76718390Y-98104352D01*
X77242200Y-96818638D02*
X77289819Y-96913876D01*
X77289819Y-96913876D02*
X77289819Y-97104352D01*
X77289819Y-97104352D02*
X77242200Y-97199590D01*
X77242200Y-97199590D02*
X77146961Y-97247209D01*
X77146961Y-97247209D02*
X76766009Y-97247209D01*
X76766009Y-97247209D02*
X76670771Y-97199590D01*
X76670771Y-97199590D02*
X76623152Y-97104352D01*
X76623152Y-97104352D02*
X76623152Y-96913876D01*
X76623152Y-96913876D02*
X76670771Y-96818638D01*
X76670771Y-96818638D02*
X76766009Y-96771019D01*
X76766009Y-96771019D02*
X76861247Y-96771019D01*
X76861247Y-96771019D02*
X76956485Y-97247209D01*
X77289819Y-96342447D02*
X76623152Y-96342447D01*
X76813628Y-96342447D02*
X76718390Y-96294828D01*
X76718390Y-96294828D02*
X76670771Y-96247209D01*
X76670771Y-96247209D02*
X76623152Y-96151971D01*
X76623152Y-96151971D02*
X76623152Y-96056733D01*
X76623152Y-95723399D02*
X77289819Y-95723399D01*
X76718390Y-95723399D02*
X76670771Y-95675780D01*
X76670771Y-95675780D02*
X76623152Y-95580542D01*
X76623152Y-95580542D02*
X76623152Y-95437685D01*
X76623152Y-95437685D02*
X76670771Y-95342447D01*
X76670771Y-95342447D02*
X76766009Y-95294828D01*
X76766009Y-95294828D02*
X77289819Y-95294828D01*
X77242200Y-94437685D02*
X77289819Y-94532923D01*
X77289819Y-94532923D02*
X77289819Y-94723399D01*
X77289819Y-94723399D02*
X77242200Y-94818637D01*
X77242200Y-94818637D02*
X77146961Y-94866256D01*
X77146961Y-94866256D02*
X76766009Y-94866256D01*
X76766009Y-94866256D02*
X76670771Y-94818637D01*
X76670771Y-94818637D02*
X76623152Y-94723399D01*
X76623152Y-94723399D02*
X76623152Y-94532923D01*
X76623152Y-94532923D02*
X76670771Y-94437685D01*
X76670771Y-94437685D02*
X76766009Y-94390066D01*
X76766009Y-94390066D02*
X76861247Y-94390066D01*
X76861247Y-94390066D02*
X76956485Y-94866256D01*
X76623152Y-94104351D02*
X76623152Y-93723399D01*
X76289819Y-93961494D02*
X77146961Y-93961494D01*
X77146961Y-93961494D02*
X77242200Y-93913875D01*
X77242200Y-93913875D02*
X77289819Y-93818637D01*
X77289819Y-93818637D02*
X77289819Y-93723399D01*
X109910952Y-100454819D02*
X109910952Y-99454819D01*
X109910952Y-99454819D02*
X110244285Y-100169104D01*
X110244285Y-100169104D02*
X110577618Y-99454819D01*
X110577618Y-99454819D02*
X110577618Y-100454819D01*
X111053809Y-100454819D02*
X111053809Y-99788152D01*
X111053809Y-99454819D02*
X111006190Y-99502438D01*
X111006190Y-99502438D02*
X111053809Y-99550057D01*
X111053809Y-99550057D02*
X111101428Y-99502438D01*
X111101428Y-99502438D02*
X111053809Y-99454819D01*
X111053809Y-99454819D02*
X111053809Y-99550057D01*
X111958570Y-100407200D02*
X111863332Y-100454819D01*
X111863332Y-100454819D02*
X111672856Y-100454819D01*
X111672856Y-100454819D02*
X111577618Y-100407200D01*
X111577618Y-100407200D02*
X111529999Y-100359580D01*
X111529999Y-100359580D02*
X111482380Y-100264342D01*
X111482380Y-100264342D02*
X111482380Y-99978628D01*
X111482380Y-99978628D02*
X111529999Y-99883390D01*
X111529999Y-99883390D02*
X111577618Y-99835771D01*
X111577618Y-99835771D02*
X111672856Y-99788152D01*
X111672856Y-99788152D02*
X111863332Y-99788152D01*
X111863332Y-99788152D02*
X111958570Y-99835771D01*
X112387142Y-100454819D02*
X112387142Y-99788152D01*
X112387142Y-99978628D02*
X112434761Y-99883390D01*
X112434761Y-99883390D02*
X112482380Y-99835771D01*
X112482380Y-99835771D02*
X112577618Y-99788152D01*
X112577618Y-99788152D02*
X112672856Y-99788152D01*
X113149047Y-100454819D02*
X113053809Y-100407200D01*
X113053809Y-100407200D02*
X113006190Y-100359580D01*
X113006190Y-100359580D02*
X112958571Y-100264342D01*
X112958571Y-100264342D02*
X112958571Y-99978628D01*
X112958571Y-99978628D02*
X113006190Y-99883390D01*
X113006190Y-99883390D02*
X113053809Y-99835771D01*
X113053809Y-99835771D02*
X113149047Y-99788152D01*
X113149047Y-99788152D02*
X113291904Y-99788152D01*
X113291904Y-99788152D02*
X113387142Y-99835771D01*
X113387142Y-99835771D02*
X113434761Y-99883390D01*
X113434761Y-99883390D02*
X113482380Y-99978628D01*
X113482380Y-99978628D02*
X113482380Y-100264342D01*
X113482380Y-100264342D02*
X113434761Y-100359580D01*
X113434761Y-100359580D02*
X113387142Y-100407200D01*
X113387142Y-100407200D02*
X113291904Y-100454819D01*
X113291904Y-100454819D02*
X113149047Y-100454819D01*
X114625238Y-100407200D02*
X114768095Y-100454819D01*
X114768095Y-100454819D02*
X115006190Y-100454819D01*
X115006190Y-100454819D02*
X115101428Y-100407200D01*
X115101428Y-100407200D02*
X115149047Y-100359580D01*
X115149047Y-100359580D02*
X115196666Y-100264342D01*
X115196666Y-100264342D02*
X115196666Y-100169104D01*
X115196666Y-100169104D02*
X115149047Y-100073866D01*
X115149047Y-100073866D02*
X115101428Y-100026247D01*
X115101428Y-100026247D02*
X115006190Y-99978628D01*
X115006190Y-99978628D02*
X114815714Y-99931009D01*
X114815714Y-99931009D02*
X114720476Y-99883390D01*
X114720476Y-99883390D02*
X114672857Y-99835771D01*
X114672857Y-99835771D02*
X114625238Y-99740533D01*
X114625238Y-99740533D02*
X114625238Y-99645295D01*
X114625238Y-99645295D02*
X114672857Y-99550057D01*
X114672857Y-99550057D02*
X114720476Y-99502438D01*
X114720476Y-99502438D02*
X114815714Y-99454819D01*
X114815714Y-99454819D02*
X115053809Y-99454819D01*
X115053809Y-99454819D02*
X115196666Y-99502438D01*
X115625238Y-100454819D02*
X115625238Y-99454819D01*
X115625238Y-99454819D02*
X115863333Y-99454819D01*
X115863333Y-99454819D02*
X116006190Y-99502438D01*
X116006190Y-99502438D02*
X116101428Y-99597676D01*
X116101428Y-99597676D02*
X116149047Y-99692914D01*
X116149047Y-99692914D02*
X116196666Y-99883390D01*
X116196666Y-99883390D02*
X116196666Y-100026247D01*
X116196666Y-100026247D02*
X116149047Y-100216723D01*
X116149047Y-100216723D02*
X116101428Y-100311961D01*
X116101428Y-100311961D02*
X116006190Y-100407200D01*
X116006190Y-100407200D02*
X115863333Y-100454819D01*
X115863333Y-100454819D02*
X115625238Y-100454819D01*
X87946033Y-103083333D02*
X87246033Y-103083333D01*
X87246033Y-103083333D02*
X87746033Y-102850000D01*
X87746033Y-102850000D02*
X87246033Y-102616666D01*
X87246033Y-102616666D02*
X87946033Y-102616666D01*
X87946033Y-102283333D02*
X87246033Y-102283333D01*
X87946033Y-101950000D02*
X87246033Y-101950000D01*
X87246033Y-101950000D02*
X87746033Y-101716667D01*
X87746033Y-101716667D02*
X87246033Y-101483333D01*
X87246033Y-101483333D02*
X87946033Y-101483333D01*
X87246033Y-101216667D02*
X87946033Y-100750000D01*
X87246033Y-100750000D02*
X87946033Y-101216667D01*
X87946033Y-100083333D02*
X87612700Y-100316666D01*
X87946033Y-100483333D02*
X87246033Y-100483333D01*
X87246033Y-100483333D02*
X87246033Y-100216666D01*
X87246033Y-100216666D02*
X87279366Y-100150000D01*
X87279366Y-100150000D02*
X87312700Y-100116666D01*
X87312700Y-100116666D02*
X87379366Y-100083333D01*
X87379366Y-100083333D02*
X87479366Y-100083333D01*
X87479366Y-100083333D02*
X87546033Y-100116666D01*
X87546033Y-100116666D02*
X87579366Y-100150000D01*
X87579366Y-100150000D02*
X87612700Y-100216666D01*
X87612700Y-100216666D02*
X87612700Y-100483333D01*
X87246033Y-99883333D02*
X87246033Y-99483333D01*
X87946033Y-99683333D02*
X87246033Y-99683333D01*
X87946033Y-98883333D02*
X87946033Y-99283333D01*
X87946033Y-99083333D02*
X87246033Y-99083333D01*
X87246033Y-99083333D02*
X87346033Y-99150000D01*
X87346033Y-99150000D02*
X87412700Y-99216667D01*
X87412700Y-99216667D02*
X87446033Y-99283333D01*
X87246033Y-98450000D02*
X87246033Y-98383333D01*
X87246033Y-98383333D02*
X87279366Y-98316666D01*
X87279366Y-98316666D02*
X87312700Y-98283333D01*
X87312700Y-98283333D02*
X87379366Y-98250000D01*
X87379366Y-98250000D02*
X87512700Y-98216666D01*
X87512700Y-98216666D02*
X87679366Y-98216666D01*
X87679366Y-98216666D02*
X87812700Y-98250000D01*
X87812700Y-98250000D02*
X87879366Y-98283333D01*
X87879366Y-98283333D02*
X87912700Y-98316666D01*
X87912700Y-98316666D02*
X87946033Y-98383333D01*
X87946033Y-98383333D02*
X87946033Y-98450000D01*
X87946033Y-98450000D02*
X87912700Y-98516666D01*
X87912700Y-98516666D02*
X87879366Y-98550000D01*
X87879366Y-98550000D02*
X87812700Y-98583333D01*
X87812700Y-98583333D02*
X87679366Y-98616666D01*
X87679366Y-98616666D02*
X87512700Y-98616666D01*
X87512700Y-98616666D02*
X87379366Y-98583333D01*
X87379366Y-98583333D02*
X87312700Y-98550000D01*
X87312700Y-98550000D02*
X87279366Y-98516666D01*
X87279366Y-98516666D02*
X87246033Y-98450000D01*
X87246033Y-97616666D02*
X87246033Y-97749999D01*
X87246033Y-97749999D02*
X87279366Y-97816666D01*
X87279366Y-97816666D02*
X87312700Y-97849999D01*
X87312700Y-97849999D02*
X87412700Y-97916666D01*
X87412700Y-97916666D02*
X87546033Y-97949999D01*
X87546033Y-97949999D02*
X87812700Y-97949999D01*
X87812700Y-97949999D02*
X87879366Y-97916666D01*
X87879366Y-97916666D02*
X87912700Y-97883333D01*
X87912700Y-97883333D02*
X87946033Y-97816666D01*
X87946033Y-97816666D02*
X87946033Y-97683333D01*
X87946033Y-97683333D02*
X87912700Y-97616666D01*
X87912700Y-97616666D02*
X87879366Y-97583333D01*
X87879366Y-97583333D02*
X87812700Y-97549999D01*
X87812700Y-97549999D02*
X87646033Y-97549999D01*
X87646033Y-97549999D02*
X87579366Y-97583333D01*
X87579366Y-97583333D02*
X87546033Y-97616666D01*
X87546033Y-97616666D02*
X87512700Y-97683333D01*
X87512700Y-97683333D02*
X87512700Y-97816666D01*
X87512700Y-97816666D02*
X87546033Y-97883333D01*
X87546033Y-97883333D02*
X87579366Y-97916666D01*
X87579366Y-97916666D02*
X87646033Y-97949999D01*
X87312700Y-97283332D02*
X87279366Y-97249999D01*
X87279366Y-97249999D02*
X87246033Y-97183332D01*
X87246033Y-97183332D02*
X87246033Y-97016666D01*
X87246033Y-97016666D02*
X87279366Y-96949999D01*
X87279366Y-96949999D02*
X87312700Y-96916666D01*
X87312700Y-96916666D02*
X87379366Y-96883332D01*
X87379366Y-96883332D02*
X87446033Y-96883332D01*
X87446033Y-96883332D02*
X87546033Y-96916666D01*
X87546033Y-96916666D02*
X87946033Y-97316666D01*
X87946033Y-97316666D02*
X87946033Y-96883332D01*
X97403333Y-70989580D02*
X97355714Y-71037200D01*
X97355714Y-71037200D02*
X97212857Y-71084819D01*
X97212857Y-71084819D02*
X97117619Y-71084819D01*
X97117619Y-71084819D02*
X96974762Y-71037200D01*
X96974762Y-71037200D02*
X96879524Y-70941961D01*
X96879524Y-70941961D02*
X96831905Y-70846723D01*
X96831905Y-70846723D02*
X96784286Y-70656247D01*
X96784286Y-70656247D02*
X96784286Y-70513390D01*
X96784286Y-70513390D02*
X96831905Y-70322914D01*
X96831905Y-70322914D02*
X96879524Y-70227676D01*
X96879524Y-70227676D02*
X96974762Y-70132438D01*
X96974762Y-70132438D02*
X97117619Y-70084819D01*
X97117619Y-70084819D02*
X97212857Y-70084819D01*
X97212857Y-70084819D02*
X97355714Y-70132438D01*
X97355714Y-70132438D02*
X97403333Y-70180057D01*
X97736667Y-70084819D02*
X98403333Y-70084819D01*
X98403333Y-70084819D02*
X97974762Y-71084819D01*
D13*
X66578237Y-116652318D02*
X66578237Y-115382318D01*
X67908714Y-116531365D02*
X67848238Y-116591842D01*
X67848238Y-116591842D02*
X67666809Y-116652318D01*
X67666809Y-116652318D02*
X67545857Y-116652318D01*
X67545857Y-116652318D02*
X67364428Y-116591842D01*
X67364428Y-116591842D02*
X67243476Y-116470889D01*
X67243476Y-116470889D02*
X67182999Y-116349937D01*
X67182999Y-116349937D02*
X67122523Y-116108032D01*
X67122523Y-116108032D02*
X67122523Y-115926603D01*
X67122523Y-115926603D02*
X67182999Y-115684699D01*
X67182999Y-115684699D02*
X67243476Y-115563746D01*
X67243476Y-115563746D02*
X67364428Y-115442794D01*
X67364428Y-115442794D02*
X67545857Y-115382318D01*
X67545857Y-115382318D02*
X67666809Y-115382318D01*
X67666809Y-115382318D02*
X67848238Y-115442794D01*
X67848238Y-115442794D02*
X67908714Y-115503270D01*
X68997285Y-115805651D02*
X68997285Y-116652318D01*
X68694904Y-115321842D02*
X68392523Y-116228984D01*
X68392523Y-116228984D02*
X69178714Y-116228984D01*
D12*
X122181580Y-113672857D02*
X122229200Y-113720476D01*
X122229200Y-113720476D02*
X122276819Y-113863333D01*
X122276819Y-113863333D02*
X122276819Y-113958571D01*
X122276819Y-113958571D02*
X122229200Y-114101428D01*
X122229200Y-114101428D02*
X122133961Y-114196666D01*
X122133961Y-114196666D02*
X122038723Y-114244285D01*
X122038723Y-114244285D02*
X121848247Y-114291904D01*
X121848247Y-114291904D02*
X121705390Y-114291904D01*
X121705390Y-114291904D02*
X121514914Y-114244285D01*
X121514914Y-114244285D02*
X121419676Y-114196666D01*
X121419676Y-114196666D02*
X121324438Y-114101428D01*
X121324438Y-114101428D02*
X121276819Y-113958571D01*
X121276819Y-113958571D02*
X121276819Y-113863333D01*
X121276819Y-113863333D02*
X121324438Y-113720476D01*
X121324438Y-113720476D02*
X121372057Y-113672857D01*
X122276819Y-112720476D02*
X122276819Y-113291904D01*
X122276819Y-113006190D02*
X121276819Y-113006190D01*
X121276819Y-113006190D02*
X121419676Y-113101428D01*
X121419676Y-113101428D02*
X121514914Y-113196666D01*
X121514914Y-113196666D02*
X121562533Y-113291904D01*
X122276819Y-111768095D02*
X122276819Y-112339523D01*
X122276819Y-112053809D02*
X121276819Y-112053809D01*
X121276819Y-112053809D02*
X121419676Y-112149047D01*
X121419676Y-112149047D02*
X121514914Y-112244285D01*
X121514914Y-112244285D02*
X121562533Y-112339523D01*
X124627819Y-132413333D02*
X125342104Y-132413333D01*
X125342104Y-132413333D02*
X125484961Y-132460952D01*
X125484961Y-132460952D02*
X125580200Y-132556190D01*
X125580200Y-132556190D02*
X125627819Y-132699047D01*
X125627819Y-132699047D02*
X125627819Y-132794285D01*
X125627819Y-131889523D02*
X125627819Y-131699047D01*
X125627819Y-131699047D02*
X125580200Y-131603809D01*
X125580200Y-131603809D02*
X125532580Y-131556190D01*
X125532580Y-131556190D02*
X125389723Y-131460952D01*
X125389723Y-131460952D02*
X125199247Y-131413333D01*
X125199247Y-131413333D02*
X124818295Y-131413333D01*
X124818295Y-131413333D02*
X124723057Y-131460952D01*
X124723057Y-131460952D02*
X124675438Y-131508571D01*
X124675438Y-131508571D02*
X124627819Y-131603809D01*
X124627819Y-131603809D02*
X124627819Y-131794285D01*
X124627819Y-131794285D02*
X124675438Y-131889523D01*
X124675438Y-131889523D02*
X124723057Y-131937142D01*
X124723057Y-131937142D02*
X124818295Y-131984761D01*
X124818295Y-131984761D02*
X125056390Y-131984761D01*
X125056390Y-131984761D02*
X125151628Y-131937142D01*
X125151628Y-131937142D02*
X125199247Y-131889523D01*
X125199247Y-131889523D02*
X125246866Y-131794285D01*
X125246866Y-131794285D02*
X125246866Y-131603809D01*
X125246866Y-131603809D02*
X125199247Y-131508571D01*
X125199247Y-131508571D02*
X125151628Y-131460952D01*
X125151628Y-131460952D02*
X125056390Y-131413333D01*
X85499819Y-66963333D02*
X86214104Y-66963333D01*
X86214104Y-66963333D02*
X86356961Y-67010952D01*
X86356961Y-67010952D02*
X86452200Y-67106190D01*
X86452200Y-67106190D02*
X86499819Y-67249047D01*
X86499819Y-67249047D02*
X86499819Y-67344285D01*
X85928390Y-66344285D02*
X85880771Y-66439523D01*
X85880771Y-66439523D02*
X85833152Y-66487142D01*
X85833152Y-66487142D02*
X85737914Y-66534761D01*
X85737914Y-66534761D02*
X85690295Y-66534761D01*
X85690295Y-66534761D02*
X85595057Y-66487142D01*
X85595057Y-66487142D02*
X85547438Y-66439523D01*
X85547438Y-66439523D02*
X85499819Y-66344285D01*
X85499819Y-66344285D02*
X85499819Y-66153809D01*
X85499819Y-66153809D02*
X85547438Y-66058571D01*
X85547438Y-66058571D02*
X85595057Y-66010952D01*
X85595057Y-66010952D02*
X85690295Y-65963333D01*
X85690295Y-65963333D02*
X85737914Y-65963333D01*
X85737914Y-65963333D02*
X85833152Y-66010952D01*
X85833152Y-66010952D02*
X85880771Y-66058571D01*
X85880771Y-66058571D02*
X85928390Y-66153809D01*
X85928390Y-66153809D02*
X85928390Y-66344285D01*
X85928390Y-66344285D02*
X85976009Y-66439523D01*
X85976009Y-66439523D02*
X86023628Y-66487142D01*
X86023628Y-66487142D02*
X86118866Y-66534761D01*
X86118866Y-66534761D02*
X86309342Y-66534761D01*
X86309342Y-66534761D02*
X86404580Y-66487142D01*
X86404580Y-66487142D02*
X86452200Y-66439523D01*
X86452200Y-66439523D02*
X86499819Y-66344285D01*
X86499819Y-66344285D02*
X86499819Y-66153809D01*
X86499819Y-66153809D02*
X86452200Y-66058571D01*
X86452200Y-66058571D02*
X86404580Y-66010952D01*
X86404580Y-66010952D02*
X86309342Y-65963333D01*
X86309342Y-65963333D02*
X86118866Y-65963333D01*
X86118866Y-65963333D02*
X86023628Y-66010952D01*
X86023628Y-66010952D02*
X85976009Y-66058571D01*
X85976009Y-66058571D02*
X85928390Y-66153809D01*
D11*
X76656580Y-124714095D02*
X75847057Y-124714095D01*
X75847057Y-124714095D02*
X75751819Y-124761714D01*
X75751819Y-124761714D02*
X75704200Y-124809333D01*
X75704200Y-124809333D02*
X75656580Y-124904571D01*
X75656580Y-124904571D02*
X75656580Y-125095047D01*
X75656580Y-125095047D02*
X75704200Y-125190285D01*
X75704200Y-125190285D02*
X75751819Y-125237904D01*
X75751819Y-125237904D02*
X75847057Y-125285523D01*
X75847057Y-125285523D02*
X76656580Y-125285523D01*
X76323247Y-126190285D02*
X75656580Y-126190285D01*
X76704200Y-125952190D02*
X75989914Y-125714095D01*
X75989914Y-125714095D02*
X75989914Y-126333142D01*
D12*
X93062819Y-85082857D02*
X92586628Y-85416190D01*
X93062819Y-85654285D02*
X92062819Y-85654285D01*
X92062819Y-85654285D02*
X92062819Y-85273333D01*
X92062819Y-85273333D02*
X92110438Y-85178095D01*
X92110438Y-85178095D02*
X92158057Y-85130476D01*
X92158057Y-85130476D02*
X92253295Y-85082857D01*
X92253295Y-85082857D02*
X92396152Y-85082857D01*
X92396152Y-85082857D02*
X92491390Y-85130476D01*
X92491390Y-85130476D02*
X92539009Y-85178095D01*
X92539009Y-85178095D02*
X92586628Y-85273333D01*
X92586628Y-85273333D02*
X92586628Y-85654285D01*
X93062819Y-84130476D02*
X93062819Y-84701904D01*
X93062819Y-84416190D02*
X92062819Y-84416190D01*
X92062819Y-84416190D02*
X92205676Y-84511428D01*
X92205676Y-84511428D02*
X92300914Y-84606666D01*
X92300914Y-84606666D02*
X92348533Y-84701904D01*
X92062819Y-83797142D02*
X92062819Y-83178095D01*
X92062819Y-83178095D02*
X92443771Y-83511428D01*
X92443771Y-83511428D02*
X92443771Y-83368571D01*
X92443771Y-83368571D02*
X92491390Y-83273333D01*
X92491390Y-83273333D02*
X92539009Y-83225714D01*
X92539009Y-83225714D02*
X92634247Y-83178095D01*
X92634247Y-83178095D02*
X92872342Y-83178095D01*
X92872342Y-83178095D02*
X92967580Y-83225714D01*
X92967580Y-83225714D02*
X93015200Y-83273333D01*
X93015200Y-83273333D02*
X93062819Y-83368571D01*
X93062819Y-83368571D02*
X93062819Y-83654285D01*
X93062819Y-83654285D02*
X93015200Y-83749523D01*
X93015200Y-83749523D02*
X92967580Y-83797142D01*
X59317142Y-112342819D02*
X58983809Y-111866628D01*
X58745714Y-112342819D02*
X58745714Y-111342819D01*
X58745714Y-111342819D02*
X59126666Y-111342819D01*
X59126666Y-111342819D02*
X59221904Y-111390438D01*
X59221904Y-111390438D02*
X59269523Y-111438057D01*
X59269523Y-111438057D02*
X59317142Y-111533295D01*
X59317142Y-111533295D02*
X59317142Y-111676152D01*
X59317142Y-111676152D02*
X59269523Y-111771390D01*
X59269523Y-111771390D02*
X59221904Y-111819009D01*
X59221904Y-111819009D02*
X59126666Y-111866628D01*
X59126666Y-111866628D02*
X58745714Y-111866628D01*
X60269523Y-112342819D02*
X59698095Y-112342819D01*
X59983809Y-112342819D02*
X59983809Y-111342819D01*
X59983809Y-111342819D02*
X59888571Y-111485676D01*
X59888571Y-111485676D02*
X59793333Y-111580914D01*
X59793333Y-111580914D02*
X59698095Y-111628533D01*
X61126666Y-111342819D02*
X60936190Y-111342819D01*
X60936190Y-111342819D02*
X60840952Y-111390438D01*
X60840952Y-111390438D02*
X60793333Y-111438057D01*
X60793333Y-111438057D02*
X60698095Y-111580914D01*
X60698095Y-111580914D02*
X60650476Y-111771390D01*
X60650476Y-111771390D02*
X60650476Y-112152342D01*
X60650476Y-112152342D02*
X60698095Y-112247580D01*
X60698095Y-112247580D02*
X60745714Y-112295200D01*
X60745714Y-112295200D02*
X60840952Y-112342819D01*
X60840952Y-112342819D02*
X61031428Y-112342819D01*
X61031428Y-112342819D02*
X61126666Y-112295200D01*
X61126666Y-112295200D02*
X61174285Y-112247580D01*
X61174285Y-112247580D02*
X61221904Y-112152342D01*
X61221904Y-112152342D02*
X61221904Y-111914247D01*
X61221904Y-111914247D02*
X61174285Y-111819009D01*
X61174285Y-111819009D02*
X61126666Y-111771390D01*
X61126666Y-111771390D02*
X61031428Y-111723771D01*
X61031428Y-111723771D02*
X60840952Y-111723771D01*
X60840952Y-111723771D02*
X60745714Y-111771390D01*
X60745714Y-111771390D02*
X60698095Y-111819009D01*
X60698095Y-111819009D02*
X60650476Y-111914247D01*
X107129580Y-82902857D02*
X107177200Y-82950476D01*
X107177200Y-82950476D02*
X107224819Y-83093333D01*
X107224819Y-83093333D02*
X107224819Y-83188571D01*
X107224819Y-83188571D02*
X107177200Y-83331428D01*
X107177200Y-83331428D02*
X107081961Y-83426666D01*
X107081961Y-83426666D02*
X106986723Y-83474285D01*
X106986723Y-83474285D02*
X106796247Y-83521904D01*
X106796247Y-83521904D02*
X106653390Y-83521904D01*
X106653390Y-83521904D02*
X106462914Y-83474285D01*
X106462914Y-83474285D02*
X106367676Y-83426666D01*
X106367676Y-83426666D02*
X106272438Y-83331428D01*
X106272438Y-83331428D02*
X106224819Y-83188571D01*
X106224819Y-83188571D02*
X106224819Y-83093333D01*
X106224819Y-83093333D02*
X106272438Y-82950476D01*
X106272438Y-82950476D02*
X106320057Y-82902857D01*
X107224819Y-81950476D02*
X107224819Y-82521904D01*
X107224819Y-82236190D02*
X106224819Y-82236190D01*
X106224819Y-82236190D02*
X106367676Y-82331428D01*
X106367676Y-82331428D02*
X106462914Y-82426666D01*
X106462914Y-82426666D02*
X106510533Y-82521904D01*
X106320057Y-81569523D02*
X106272438Y-81521904D01*
X106272438Y-81521904D02*
X106224819Y-81426666D01*
X106224819Y-81426666D02*
X106224819Y-81188571D01*
X106224819Y-81188571D02*
X106272438Y-81093333D01*
X106272438Y-81093333D02*
X106320057Y-81045714D01*
X106320057Y-81045714D02*
X106415295Y-80998095D01*
X106415295Y-80998095D02*
X106510533Y-80998095D01*
X106510533Y-80998095D02*
X106653390Y-81045714D01*
X106653390Y-81045714D02*
X107224819Y-81617142D01*
X107224819Y-81617142D02*
X107224819Y-80998095D01*
D13*
X129570237Y-84394318D02*
X129570237Y-83124318D01*
X130900714Y-84273365D02*
X130840238Y-84333842D01*
X130840238Y-84333842D02*
X130658809Y-84394318D01*
X130658809Y-84394318D02*
X130537857Y-84394318D01*
X130537857Y-84394318D02*
X130356428Y-84333842D01*
X130356428Y-84333842D02*
X130235476Y-84212889D01*
X130235476Y-84212889D02*
X130174999Y-84091937D01*
X130174999Y-84091937D02*
X130114523Y-83850032D01*
X130114523Y-83850032D02*
X130114523Y-83668603D01*
X130114523Y-83668603D02*
X130174999Y-83426699D01*
X130174999Y-83426699D02*
X130235476Y-83305746D01*
X130235476Y-83305746D02*
X130356428Y-83184794D01*
X130356428Y-83184794D02*
X130537857Y-83124318D01*
X130537857Y-83124318D02*
X130658809Y-83124318D01*
X130658809Y-83124318D02*
X130840238Y-83184794D01*
X130840238Y-83184794D02*
X130900714Y-83245270D01*
X132049761Y-83124318D02*
X131444999Y-83124318D01*
X131444999Y-83124318D02*
X131384523Y-83729080D01*
X131384523Y-83729080D02*
X131444999Y-83668603D01*
X131444999Y-83668603D02*
X131565952Y-83608127D01*
X131565952Y-83608127D02*
X131868333Y-83608127D01*
X131868333Y-83608127D02*
X131989285Y-83668603D01*
X131989285Y-83668603D02*
X132049761Y-83729080D01*
X132049761Y-83729080D02*
X132110238Y-83850032D01*
X132110238Y-83850032D02*
X132110238Y-84152413D01*
X132110238Y-84152413D02*
X132049761Y-84273365D01*
X132049761Y-84273365D02*
X131989285Y-84333842D01*
X131989285Y-84333842D02*
X131868333Y-84394318D01*
X131868333Y-84394318D02*
X131565952Y-84394318D01*
X131565952Y-84394318D02*
X131444999Y-84333842D01*
X131444999Y-84333842D02*
X131384523Y-84273365D01*
D14*
%TO.C,M5*%
X136474000Y-89388000D02*
X137724000Y-89388000D01*
X136764000Y-89098000D02*
X142734000Y-89098000D01*
X142734000Y-89098000D02*
X142734000Y-81478000D01*
X136774000Y-89088000D02*
X137524000Y-89088000D01*
X137524000Y-89088000D02*
X137524000Y-87288000D01*
X139024000Y-89088000D02*
X139024000Y-88338000D01*
X139024000Y-88338000D02*
X140364000Y-88338000D01*
X136474000Y-88138000D02*
X136474000Y-89388000D01*
X136774000Y-87288000D02*
X136774000Y-89088000D01*
X137524000Y-87288000D02*
X136774000Y-87288000D01*
X136774000Y-85788000D02*
X137524000Y-85788000D01*
X137524000Y-85788000D02*
X137524000Y-84788000D01*
X141974000Y-85288000D02*
X141974000Y-87278000D01*
X136774000Y-84788000D02*
X136774000Y-85788000D01*
X137524000Y-84788000D02*
X136774000Y-84788000D01*
X136774000Y-83288000D02*
X137524000Y-83288000D01*
X137524000Y-83288000D02*
X137524000Y-81488000D01*
X139024000Y-82238000D02*
X141974000Y-82238000D01*
X141974000Y-82238000D02*
X141974000Y-85288000D01*
X136774000Y-81488000D02*
X136774000Y-83288000D01*
X137524000Y-81488000D02*
X136774000Y-81488000D01*
X139024000Y-81488000D02*
X139024000Y-82238000D01*
X136764000Y-81478000D02*
X136764000Y-89098000D01*
X142734000Y-81478000D02*
X136764000Y-81478000D01*
D15*
%TO.C,SW1*%
X49756700Y-68147700D02*
X49756700Y-77012300D01*
X49756700Y-77012300D02*
X51000249Y-77012300D01*
X51000249Y-68147700D02*
X49756700Y-68147700D01*
X53059751Y-77012300D02*
X54303300Y-77012300D01*
X54303300Y-68147700D02*
X53059751Y-68147700D01*
X54303300Y-77012300D02*
X54303300Y-68147700D01*
D14*
%TO.C,R22*%
X64138748Y-87325000D02*
X64661252Y-87325000D01*
X64138748Y-88795000D02*
X64661252Y-88795000D01*
%TO.C,R21*%
X64138748Y-84315000D02*
X64661252Y-84315000D01*
X64138748Y-85785000D02*
X64661252Y-85785000D01*
%TO.C,J16*%
X152730000Y-72760000D02*
X151480000Y-72760000D01*
X152440000Y-73050000D02*
X146470000Y-73050000D01*
X146470000Y-73050000D02*
X146470000Y-88170000D01*
X152430000Y-73060000D02*
X151680000Y-73060000D01*
X151680000Y-73060000D02*
X151680000Y-74860000D01*
X150180000Y-73060000D02*
X150180000Y-73810000D01*
X150180000Y-73810000D02*
X147230000Y-73810000D01*
X147230000Y-73810000D02*
X147230000Y-80610000D01*
X152730000Y-74010000D02*
X152730000Y-72760000D01*
X152430000Y-74860000D02*
X152430000Y-73060000D01*
X151680000Y-74860000D02*
X152430000Y-74860000D01*
X152430000Y-76360000D02*
X151680000Y-76360000D01*
X151680000Y-76360000D02*
X151680000Y-84860000D01*
X152430000Y-84860000D02*
X152430000Y-76360000D01*
X151680000Y-84860000D02*
X152430000Y-84860000D01*
X152430000Y-86360000D02*
X151680000Y-86360000D01*
X151680000Y-86360000D02*
X151680000Y-88160000D01*
X150180000Y-87410000D02*
X147230000Y-87410000D01*
X147230000Y-87410000D02*
X147230000Y-80610000D01*
X152430000Y-88160000D02*
X152430000Y-86360000D01*
X151680000Y-88160000D02*
X152430000Y-88160000D01*
X150180000Y-88160000D02*
X150180000Y-87410000D01*
X152440000Y-88170000D02*
X152440000Y-73050000D01*
X146470000Y-88170000D02*
X152440000Y-88170000D01*
%TO.C,J15*%
X57010000Y-80460000D02*
X58260000Y-80460000D01*
X57300000Y-80170000D02*
X63270000Y-80170000D01*
X63270000Y-80170000D02*
X63270000Y-65050000D01*
X57310000Y-80160000D02*
X58060000Y-80160000D01*
X58060000Y-80160000D02*
X58060000Y-78360000D01*
X59560000Y-80160000D02*
X59560000Y-79410000D01*
X59560000Y-79410000D02*
X62510000Y-79410000D01*
X62510000Y-79410000D02*
X62510000Y-72610000D01*
X57010000Y-79210000D02*
X57010000Y-80460000D01*
X57310000Y-78360000D02*
X57310000Y-80160000D01*
X58060000Y-78360000D02*
X57310000Y-78360000D01*
X57310000Y-76860000D02*
X58060000Y-76860000D01*
X58060000Y-76860000D02*
X58060000Y-68360000D01*
X57310000Y-68360000D02*
X57310000Y-76860000D01*
X58060000Y-68360000D02*
X57310000Y-68360000D01*
X57310000Y-66860000D02*
X58060000Y-66860000D01*
X58060000Y-66860000D02*
X58060000Y-65060000D01*
X59560000Y-65810000D02*
X62510000Y-65810000D01*
X62510000Y-65810000D02*
X62510000Y-72610000D01*
X57310000Y-65060000D02*
X57310000Y-66860000D01*
X58060000Y-65060000D02*
X57310000Y-65060000D01*
X59560000Y-65060000D02*
X59560000Y-65810000D01*
X57300000Y-65050000D02*
X57300000Y-80170000D01*
X63270000Y-65050000D02*
X57300000Y-65050000D01*
%TO.C,J13*%
X47700000Y-123000000D02*
X47700000Y-121670000D01*
X49030000Y-123000000D02*
X47700000Y-123000000D01*
X50300000Y-123000000D02*
X55440000Y-123000000D01*
X50300000Y-123000000D02*
X50300000Y-120340000D01*
X55440000Y-123000000D02*
X55440000Y-120340000D01*
X50300000Y-120340000D02*
X55440000Y-120340000D01*
D16*
%TO.C,U7*%
X107740000Y-87620000D02*
X107740000Y-67300000D01*
X122980000Y-90160000D02*
X110280000Y-90160000D01*
X125520000Y-67300000D02*
X125520000Y-87620000D01*
X110280000Y-64760000D02*
X122980000Y-64760000D01*
X107740000Y-67300000D02*
G75*
G02*
X110280000Y-64760000I2540000J0D01*
G01*
X110280000Y-90160000D02*
G75*
G02*
X107740000Y-87620000I0J2540000D01*
G01*
X125520000Y-87620000D02*
G75*
G02*
X122980000Y-90160000I-2540000J0D01*
G01*
X122980000Y-64760000D02*
G75*
G02*
X125520000Y-67300000I0J-2540000D01*
G01*
D14*
%TO.C,M3*%
X86380000Y-73198000D02*
X86380000Y-79168000D01*
X86380000Y-79168000D02*
X94000000Y-79168000D01*
X86390000Y-76908000D02*
X87140000Y-76908000D01*
X86390000Y-78408000D02*
X86390000Y-79158000D01*
X86390000Y-79158000D02*
X88190000Y-79158000D01*
X87140000Y-73958000D02*
X90190000Y-73958000D01*
X87140000Y-76908000D02*
X87140000Y-73958000D01*
X88190000Y-78408000D02*
X86390000Y-78408000D01*
X88190000Y-79158000D02*
X88190000Y-78408000D01*
X89690000Y-78408000D02*
X89690000Y-79158000D01*
X89690000Y-79158000D02*
X90690000Y-79158000D01*
X90190000Y-73958000D02*
X92180000Y-73958000D01*
X90690000Y-78408000D02*
X89690000Y-78408000D01*
X90690000Y-79158000D02*
X90690000Y-78408000D01*
X92190000Y-78408000D02*
X92190000Y-79158000D01*
X92190000Y-79158000D02*
X93990000Y-79158000D01*
X93040000Y-79458000D02*
X94290000Y-79458000D01*
X93240000Y-76908000D02*
X93240000Y-75568000D01*
X93990000Y-76908000D02*
X93240000Y-76908000D01*
X93990000Y-78408000D02*
X92190000Y-78408000D01*
X93990000Y-79158000D02*
X93990000Y-78408000D01*
X94000000Y-73198000D02*
X86380000Y-73198000D01*
X94000000Y-79168000D02*
X94000000Y-73198000D01*
X94290000Y-79458000D02*
X94290000Y-78208000D01*
D15*
%TO.C,SW3*%
X47567700Y-111264700D02*
X47567700Y-112508249D01*
X47567700Y-114567751D02*
X47567700Y-115811300D01*
X47567700Y-115811300D02*
X56432300Y-115811300D01*
X56432300Y-111264700D02*
X47567700Y-111264700D01*
X56432300Y-112508249D02*
X56432300Y-111264700D01*
X56432300Y-115811300D02*
X56432300Y-114567751D01*
D14*
%TO.C,C8*%
X97338748Y-69085000D02*
X97861252Y-69085000D01*
X97338748Y-70555000D02*
X97861252Y-70555000D01*
%TO.C,U1*%
D11*
X76930000Y-88380000D02*
X94730000Y-88380000D01*
X94730000Y-70580000D01*
X76930000Y-70580000D01*
X76930000Y-88380000D01*
D14*
%TO.C,C3*%
X147835252Y-110771000D02*
X147312748Y-110771000D01*
X147835252Y-112241000D02*
X147312748Y-112241000D01*
D15*
%TO.C,SW4*%
X47567700Y-97802700D02*
X47567700Y-99046249D01*
X47567700Y-101105751D02*
X47567700Y-102349300D01*
X47567700Y-102349300D02*
X56432300Y-102349300D01*
X56432300Y-97802700D02*
X47567700Y-97802700D01*
X56432300Y-99046249D02*
X56432300Y-97802700D01*
X56432300Y-102349300D02*
X56432300Y-101105751D01*
D14*
%TO.C,R12*%
X92255000Y-84212936D02*
X92255000Y-84667064D01*
X93725000Y-84212936D02*
X93725000Y-84667064D01*
%TO.C,J14*%
X122580000Y-142590000D02*
X122580000Y-150210000D01*
X122580000Y-150210000D02*
X128550000Y-150210000D01*
X123340000Y-143350000D02*
X123340000Y-146400000D01*
X123340000Y-149450000D02*
X123340000Y-146400000D01*
X126290000Y-142600000D02*
X126290000Y-143350000D01*
X126290000Y-143350000D02*
X123340000Y-143350000D01*
X126290000Y-149450000D02*
X123340000Y-149450000D01*
X126290000Y-150200000D02*
X126290000Y-149450000D01*
X127790000Y-142600000D02*
X127790000Y-144400000D01*
X127790000Y-144400000D02*
X128540000Y-144400000D01*
X127790000Y-145900000D02*
X127790000Y-146900000D01*
X127790000Y-146900000D02*
X128540000Y-146900000D01*
X127790000Y-148400000D02*
X127790000Y-150200000D01*
X127790000Y-150200000D02*
X128540000Y-150200000D01*
X128540000Y-142600000D02*
X127790000Y-142600000D01*
X128540000Y-144400000D02*
X128540000Y-142600000D01*
X128540000Y-145900000D02*
X127790000Y-145900000D01*
X128540000Y-146900000D02*
X128540000Y-145900000D01*
X128540000Y-148400000D02*
X127790000Y-148400000D01*
X128540000Y-150200000D02*
X128540000Y-148400000D01*
X128550000Y-142590000D02*
X122580000Y-142590000D01*
X128550000Y-150210000D02*
X128550000Y-142590000D01*
X128840000Y-142300000D02*
X127590000Y-142300000D01*
X128840000Y-143550000D02*
X128840000Y-142300000D01*
%TO.C,U10*%
X134773000Y-122642000D02*
X134773000Y-132882000D01*
X137904000Y-122642000D02*
X137904000Y-132882000D01*
X139414000Y-122642000D02*
X134773000Y-122642000D01*
X139414000Y-122642000D02*
X139414000Y-132882000D01*
X139414000Y-125912000D02*
X137904000Y-125912000D01*
X139414000Y-129613000D02*
X137904000Y-129613000D01*
X139414000Y-132882000D02*
X134773000Y-132882000D01*
%TO.C,J4*%
X121890000Y-120200000D02*
X124550000Y-120200000D01*
X121890000Y-122800000D02*
X121890000Y-120200000D01*
X121890000Y-125400000D02*
X121890000Y-124070000D01*
X123220000Y-125400000D02*
X121890000Y-125400000D01*
X124490000Y-122800000D02*
X121890000Y-122800000D01*
X124490000Y-125400000D02*
X124490000Y-122800000D01*
X124490000Y-125400000D02*
X124550000Y-125400000D01*
X124550000Y-125400000D02*
X124550000Y-120200000D01*
%TO.C,R20*%
X103415000Y-96657064D02*
X103415000Y-96202936D01*
X104885000Y-96657064D02*
X104885000Y-96202936D01*
D15*
%TO.C,SW5*%
X47567700Y-83578700D02*
X47567700Y-84822249D01*
X47567700Y-86881751D02*
X47567700Y-88125300D01*
X47567700Y-88125300D02*
X56432300Y-88125300D01*
X56432300Y-83578700D02*
X47567700Y-83578700D01*
X56432300Y-84822249D02*
X56432300Y-83578700D01*
X56432300Y-88125300D02*
X56432300Y-86881751D01*
D14*
%TO.C,R17*%
X59700936Y-114835000D02*
X60155064Y-114835000D01*
X59700936Y-116305000D02*
X60155064Y-116305000D01*
%TO.C,J2*%
X132338000Y-66575000D02*
X132338000Y-67825000D01*
X132628000Y-66865000D02*
X132628000Y-72835000D01*
X132628000Y-72835000D02*
X145248000Y-72835000D01*
X132638000Y-66875000D02*
X132638000Y-67625000D01*
X132638000Y-67625000D02*
X134438000Y-67625000D01*
X132638000Y-69125000D02*
X133388000Y-69125000D01*
X133388000Y-69125000D02*
X133388000Y-70465000D01*
X133588000Y-66575000D02*
X132338000Y-66575000D01*
X134438000Y-66875000D02*
X132638000Y-66875000D01*
X134438000Y-67625000D02*
X134438000Y-66875000D01*
X135938000Y-66875000D02*
X135938000Y-67625000D01*
X135938000Y-67625000D02*
X141938000Y-67625000D01*
X138938000Y-72075000D02*
X134448000Y-72075000D01*
X141938000Y-66875000D02*
X135938000Y-66875000D01*
X141938000Y-67625000D02*
X141938000Y-66875000D01*
X143438000Y-66875000D02*
X143438000Y-67625000D01*
X143438000Y-67625000D02*
X145238000Y-67625000D01*
X144488000Y-69125000D02*
X144488000Y-72075000D01*
X144488000Y-72075000D02*
X138938000Y-72075000D01*
X145238000Y-66875000D02*
X143438000Y-66875000D01*
X145238000Y-67625000D02*
X145238000Y-66875000D01*
X145238000Y-69125000D02*
X144488000Y-69125000D01*
X145248000Y-66865000D02*
X132628000Y-66865000D01*
X145248000Y-72835000D02*
X145248000Y-66865000D01*
%TO.C,R18*%
X84736248Y-137025000D02*
X85258752Y-137025000D01*
X84736248Y-138495000D02*
X85258752Y-138495000D01*
%TO.C,C14*%
X83085000Y-113269752D02*
X83085000Y-112747248D01*
X84555000Y-113269752D02*
X84555000Y-112747248D01*
%TO.C,U6*%
X120445000Y-152400000D02*
X125086000Y-152400000D01*
X120445000Y-155669000D02*
X121955000Y-155669000D01*
X120445000Y-159370000D02*
X121955000Y-159370000D01*
X120445000Y-162640000D02*
X120445000Y-152400000D01*
X120445000Y-162640000D02*
X125086000Y-162640000D01*
X121955000Y-162640000D02*
X121955000Y-152400000D01*
X125086000Y-162640000D02*
X125086000Y-152400000D01*
D15*
%TO.C,SW6*%
X71477701Y-135246700D02*
X71477701Y-136490249D01*
X71477701Y-138549751D02*
X71477701Y-139793300D01*
X71477701Y-139793300D02*
X80342301Y-139793300D01*
X80342301Y-135246700D02*
X71477701Y-135246700D01*
X80342301Y-136490249D02*
X80342301Y-135246700D01*
X80342301Y-139793300D02*
X80342301Y-138549751D01*
%TO.C,SW2*%
X47567700Y-124726700D02*
X47567700Y-125970249D01*
X47567700Y-128029751D02*
X47567700Y-129273300D01*
X47567700Y-129273300D02*
X56432300Y-129273300D01*
X56432300Y-124726700D02*
X47567700Y-124726700D01*
X56432300Y-125970249D02*
X56432300Y-124726700D01*
X56432300Y-129273300D02*
X56432300Y-128029751D01*
D14*
%TO.C,R19*%
X97025000Y-96687064D02*
X97025000Y-96232936D01*
X98495000Y-96687064D02*
X98495000Y-96232936D01*
%TO.C,J1*%
X137354000Y-91888000D02*
X138684000Y-91888000D01*
X137354000Y-93218000D02*
X137354000Y-91888000D01*
X137354000Y-94488000D02*
X137354000Y-107248000D01*
X137354000Y-94488000D02*
X140014000Y-94488000D01*
X137354000Y-107248000D02*
X140014000Y-107248000D01*
X140014000Y-94488000D02*
X140014000Y-107248000D01*
%TO.C,M4*%
X73980000Y-109760000D02*
X73980000Y-115730000D01*
X73980000Y-115730000D02*
X81600000Y-115730000D01*
X73990000Y-113470000D02*
X74740000Y-113470000D01*
X73990000Y-114970000D02*
X73990000Y-115720000D01*
X73990000Y-115720000D02*
X75790000Y-115720000D01*
X74740000Y-110520000D02*
X77790000Y-110520000D01*
X74740000Y-113470000D02*
X74740000Y-110520000D01*
X75790000Y-114970000D02*
X73990000Y-114970000D01*
X75790000Y-115720000D02*
X75790000Y-114970000D01*
X77290000Y-114970000D02*
X77290000Y-115720000D01*
X77290000Y-115720000D02*
X78290000Y-115720000D01*
X77790000Y-110520000D02*
X79780000Y-110520000D01*
X78290000Y-114970000D02*
X77290000Y-114970000D01*
X78290000Y-115720000D02*
X78290000Y-114970000D01*
X79790000Y-114970000D02*
X79790000Y-115720000D01*
X79790000Y-115720000D02*
X81590000Y-115720000D01*
X80640000Y-116020000D02*
X81890000Y-116020000D01*
X80840000Y-113470000D02*
X80840000Y-112130000D01*
X81590000Y-113470000D02*
X80840000Y-113470000D01*
X81590000Y-114970000D02*
X79790000Y-114970000D01*
X81590000Y-115720000D02*
X81590000Y-114970000D01*
X81600000Y-109760000D02*
X73980000Y-109760000D01*
X81600000Y-115730000D02*
X81600000Y-109760000D01*
X81890000Y-116020000D02*
X81890000Y-114770000D01*
%TO.C,U2*%
D11*
X96784000Y-116606000D02*
X117084000Y-116606000D01*
X117084000Y-134406000D01*
X96784000Y-134406000D01*
X96784000Y-116606000D01*
D14*
%TO.C,C13*%
X90711252Y-70785000D02*
X90188748Y-70785000D01*
X90711252Y-72255000D02*
X90188748Y-72255000D01*
%TO.C,R14*%
X92255000Y-87990936D02*
X92255000Y-88445064D01*
X93725000Y-87990936D02*
X93725000Y-88445064D01*
%TO.C,J5*%
X144044000Y-119216000D02*
X144044000Y-122956000D01*
X153764000Y-113806000D02*
X148154000Y-113806000D01*
X153764000Y-113806000D02*
X153764000Y-114656000D01*
X153764000Y-128676000D02*
X153764000Y-129526000D01*
X153764000Y-129526000D02*
X148154000Y-129526000D01*
X161464000Y-114656000D02*
X153764000Y-114656000D01*
X161464000Y-114656000D02*
X161464000Y-128676000D01*
X161464000Y-128676000D02*
X153764000Y-128676000D01*
X144195282Y-116676100D02*
G75*
G02*
X148154000Y-113806000I3918716J-1239898D01*
G01*
X148154000Y-129526000D02*
G75*
G02*
X144631042Y-127532806I0J4110000D01*
G01*
%TO.C,R15*%
X59732936Y-110771000D02*
X60187064Y-110771000D01*
X59732936Y-112241000D02*
X60187064Y-112241000D01*
D17*
%TO.C,IC3*%
X78059000Y-74890000D02*
X79584000Y-74890000D01*
X79934000Y-75060000D02*
X83134000Y-75060000D01*
X79934000Y-84960000D02*
X79934000Y-75060000D01*
X83134000Y-75060000D02*
X83134000Y-84960000D01*
X83134000Y-84960000D02*
X79934000Y-84960000D01*
D14*
%TO.C,M2*%
X109400000Y-88750000D02*
X109400000Y-87500000D01*
X109110000Y-88460000D02*
X109110000Y-82490000D01*
X109110000Y-82490000D02*
X101490000Y-82490000D01*
X109100000Y-88450000D02*
X109100000Y-87700000D01*
X109100000Y-87700000D02*
X107300000Y-87700000D01*
X109100000Y-86200000D02*
X108350000Y-86200000D01*
X108350000Y-86200000D02*
X108350000Y-84860000D01*
X108150000Y-88750000D02*
X109400000Y-88750000D01*
X107300000Y-88450000D02*
X109100000Y-88450000D01*
X107300000Y-87700000D02*
X107300000Y-88450000D01*
X105800000Y-88450000D02*
X105800000Y-87700000D01*
X105800000Y-87700000D02*
X104800000Y-87700000D01*
X105300000Y-83250000D02*
X107290000Y-83250000D01*
X104800000Y-88450000D02*
X105800000Y-88450000D01*
X104800000Y-87700000D02*
X104800000Y-88450000D01*
X103300000Y-88450000D02*
X103300000Y-87700000D01*
X103300000Y-87700000D02*
X101500000Y-87700000D01*
X102250000Y-86200000D02*
X102250000Y-83250000D01*
X102250000Y-83250000D02*
X105300000Y-83250000D01*
X101500000Y-88450000D02*
X103300000Y-88450000D01*
X101500000Y-87700000D02*
X101500000Y-88450000D01*
X101500000Y-86200000D02*
X102250000Y-86200000D01*
X101490000Y-88460000D02*
X109110000Y-88460000D01*
X101490000Y-82490000D02*
X101490000Y-88460000D01*
D17*
%TO.C,IC2*%
X102703000Y-78741000D02*
X102703000Y-77216000D01*
X102873000Y-73666000D02*
X112773000Y-73666000D01*
X102873000Y-76866000D02*
X102873000Y-73666000D01*
X112773000Y-73666000D02*
X112773000Y-76866000D01*
X112773000Y-76866000D02*
X102873000Y-76866000D01*
D14*
%TO.C,C4*%
X147769252Y-107977000D02*
X147246748Y-107977000D01*
X147769252Y-109447000D02*
X147246748Y-109447000D01*
%TO.C,U3*%
X70810000Y-141120000D02*
X70810000Y-164120000D01*
X70810000Y-141120000D02*
X119810000Y-141120000D01*
X70810000Y-164120000D02*
X119810000Y-164120000D01*
X119810000Y-164120000D02*
X119810000Y-141120000D01*
D17*
%TO.C,IC1*%
X102966000Y-115827000D02*
X106166000Y-115827000D01*
X102966000Y-125727000D02*
X102966000Y-115827000D01*
X106166000Y-115827000D02*
X106166000Y-125727000D01*
X106166000Y-125727000D02*
X102966000Y-125727000D01*
X108041000Y-125897000D02*
X106516000Y-125897000D01*
D14*
%TO.C,M1*%
X110690000Y-110725000D02*
X110690000Y-116695000D01*
X110690000Y-116695000D02*
X118310000Y-116695000D01*
X110700000Y-114435000D02*
X111450000Y-114435000D01*
X110700000Y-115935000D02*
X110700000Y-116685000D01*
X110700000Y-116685000D02*
X112500000Y-116685000D01*
X111450000Y-111485000D02*
X114500000Y-111485000D01*
X111450000Y-114435000D02*
X111450000Y-111485000D01*
X112500000Y-115935000D02*
X110700000Y-115935000D01*
X112500000Y-116685000D02*
X112500000Y-115935000D01*
X114000000Y-115935000D02*
X114000000Y-116685000D01*
X114000000Y-116685000D02*
X115000000Y-116685000D01*
X114500000Y-111485000D02*
X116490000Y-111485000D01*
X115000000Y-115935000D02*
X114000000Y-115935000D01*
X115000000Y-116685000D02*
X115000000Y-115935000D01*
X116500000Y-115935000D02*
X116500000Y-116685000D01*
X116500000Y-116685000D02*
X118300000Y-116685000D01*
X117350000Y-116985000D02*
X118600000Y-116985000D01*
X117550000Y-114435000D02*
X117550000Y-113095000D01*
X118300000Y-114435000D02*
X117550000Y-114435000D01*
X118300000Y-115935000D02*
X116500000Y-115935000D01*
X118300000Y-116685000D02*
X118300000Y-115935000D01*
X118310000Y-110725000D02*
X110690000Y-110725000D01*
X118310000Y-116695000D02*
X118310000Y-110725000D01*
X118600000Y-116985000D02*
X118600000Y-115735000D01*
D12*
%TO.C,U12*%
X57150000Y-96190000D02*
X58420000Y-96190000D01*
X57150000Y-103810000D02*
X57150000Y-96190000D01*
X58420000Y-91110000D02*
X119380000Y-91110000D01*
X58420000Y-103810000D02*
X57150000Y-103810000D01*
X58420000Y-108890000D02*
X58420000Y-91110000D01*
X63500000Y-96190000D02*
X58420000Y-96190000D01*
X63500000Y-103810000D02*
X58420000Y-103810000D01*
X63500000Y-103810000D02*
X63500000Y-96190000D01*
X64719200Y-103299200D02*
X67259200Y-103299200D01*
X64719200Y-103299200D02*
X77419200Y-103299200D01*
X64719200Y-105839200D02*
X64719200Y-103299200D01*
X67259200Y-103299200D02*
X67259200Y-105839200D01*
X71650000Y-93648400D02*
X71650000Y-93898400D01*
X71650000Y-93898400D02*
X71650000Y-99898400D01*
X71650000Y-99898400D02*
X75650000Y-99898400D01*
X75650000Y-93648400D02*
X71650000Y-93648400D01*
X75650000Y-99898400D02*
X75650000Y-93648400D01*
X77419200Y-103299200D02*
X77419200Y-105839200D01*
X77419200Y-105839200D02*
X64719200Y-105839200D01*
X81280000Y-93650000D02*
X81280000Y-106350000D01*
X81280000Y-106350000D02*
X93980000Y-106350000D01*
X93980000Y-93650000D02*
X81280000Y-93650000D01*
X93980000Y-106350000D02*
X93980000Y-93650000D01*
X99060000Y-98730000D02*
X102870000Y-98730000D01*
X99060000Y-101270000D02*
X99060000Y-98730000D01*
X102870000Y-98730000D02*
X102870000Y-101270000D01*
X102870000Y-101270000D02*
X99060000Y-101270000D01*
X106680000Y-93650000D02*
X106680000Y-106350000D01*
X106680000Y-106350000D02*
X119380000Y-106350000D01*
X118110000Y-94920000D02*
X118110000Y-105080000D01*
X118110000Y-105080000D02*
X119380000Y-105080000D01*
X119380000Y-91110000D02*
X119380000Y-108890000D01*
X119380000Y-93650000D02*
X106680000Y-93650000D01*
X119380000Y-94920000D02*
X118110000Y-94920000D01*
X119380000Y-108890000D02*
X58420000Y-108890000D01*
X101863026Y-100000000D02*
G75*
G02*
X100066974Y-100000000I-898026J0D01*
G01*
X100066974Y-100000000D02*
G75*
G02*
X101863026Y-100000000I898026J0D01*
G01*
D11*
X89811000Y-99312000D02*
X89557000Y-99566000D01*
X89303000Y-99185000D01*
X89557000Y-98931000D01*
X89811000Y-99312000D01*
G36*
X89811000Y-99312000D02*
G01*
X89557000Y-99566000D01*
X89303000Y-99185000D01*
X89557000Y-98931000D01*
X89811000Y-99312000D01*
G37*
X90192000Y-99820000D02*
X89938000Y-100074000D01*
X89684000Y-99693000D01*
X89938000Y-99439000D01*
X90192000Y-99820000D01*
G36*
X90192000Y-99820000D02*
G01*
X89938000Y-100074000D01*
X89684000Y-99693000D01*
X89938000Y-99439000D01*
X90192000Y-99820000D01*
G37*
X90573000Y-99439000D02*
X90319000Y-99693000D01*
X90065000Y-99312000D01*
X90319000Y-99058000D01*
X90573000Y-99439000D01*
G36*
X90573000Y-99439000D02*
G01*
X90319000Y-99693000D01*
X90065000Y-99312000D01*
X90319000Y-99058000D01*
X90573000Y-99439000D01*
G37*
X90573000Y-100328000D02*
X90319000Y-100582000D01*
X90065000Y-100201000D01*
X90319000Y-99947000D01*
X90573000Y-100328000D01*
G36*
X90573000Y-100328000D02*
G01*
X90319000Y-100582000D01*
X90065000Y-100201000D01*
X90319000Y-99947000D01*
X90573000Y-100328000D01*
G37*
X90954000Y-99947000D02*
X90700000Y-100201000D01*
X90446000Y-99820000D01*
X90700000Y-99566000D01*
X90954000Y-99947000D01*
G36*
X90954000Y-99947000D02*
G01*
X90700000Y-100201000D01*
X90446000Y-99820000D01*
X90700000Y-99566000D01*
X90954000Y-99947000D01*
G37*
X91335000Y-100455000D02*
X91081000Y-100709000D01*
X90827000Y-100328000D01*
X91081000Y-100074000D01*
X91335000Y-100455000D01*
G36*
X91335000Y-100455000D02*
G01*
X91081000Y-100709000D01*
X90827000Y-100328000D01*
X91081000Y-100074000D01*
X91335000Y-100455000D01*
G37*
X91716000Y-100074000D02*
X91462000Y-100328000D01*
X91208000Y-99947000D01*
X91462000Y-99693000D01*
X91716000Y-100074000D01*
G36*
X91716000Y-100074000D02*
G01*
X91462000Y-100328000D01*
X91208000Y-99947000D01*
X91462000Y-99693000D01*
X91716000Y-100074000D01*
G37*
X92097000Y-99693000D02*
X91843000Y-99947000D01*
X91589000Y-99566000D01*
X91843000Y-99312000D01*
X92097000Y-99693000D01*
G36*
X92097000Y-99693000D02*
G01*
X91843000Y-99947000D01*
X91589000Y-99566000D01*
X91843000Y-99312000D01*
X92097000Y-99693000D01*
G37*
D14*
%TO.C,C7*%
X97308748Y-71575000D02*
X97831252Y-71575000D01*
X97308748Y-73045000D02*
X97831252Y-73045000D01*
D17*
%TO.C,IC4*%
X66218000Y-111128000D02*
X69418000Y-111128000D01*
X66218000Y-121028000D02*
X66218000Y-111128000D01*
X69418000Y-111128000D02*
X69418000Y-121028000D01*
X69418000Y-121028000D02*
X66218000Y-121028000D01*
X71293000Y-121198000D02*
X69768000Y-121198000D01*
D14*
%TO.C,C11*%
X119407000Y-112768748D02*
X119407000Y-113291252D01*
X120877000Y-112768748D02*
X120877000Y-113291252D01*
%TO.C,J9*%
X126173000Y-133410000D02*
X126173000Y-132080000D01*
X127503000Y-133410000D02*
X126173000Y-133410000D01*
X128773000Y-130750000D02*
X131373000Y-130750000D01*
X128773000Y-133410000D02*
X128773000Y-130750000D01*
X128773000Y-133410000D02*
X131373000Y-133410000D01*
X131373000Y-133410000D02*
X131373000Y-130750000D01*
%TO.C,J8*%
X87045000Y-67960000D02*
X87045000Y-66630000D01*
X88375000Y-67960000D02*
X87045000Y-67960000D01*
X89645000Y-65300000D02*
X92245000Y-65300000D01*
X89645000Y-67960000D02*
X89645000Y-65300000D01*
X89645000Y-67960000D02*
X92245000Y-67960000D01*
X92245000Y-67960000D02*
X92245000Y-65300000D01*
%TO.C,U4*%
D11*
X95514000Y-116576000D02*
X77714000Y-116576000D01*
X77714000Y-134376000D01*
X95514000Y-134376000D01*
X95514000Y-116576000D01*
D14*
%TO.C,R13*%
X90223000Y-84212936D02*
X90223000Y-84667064D01*
X91693000Y-84212936D02*
X91693000Y-84667064D01*
%TO.C,R16*%
X59732936Y-112803000D02*
X60187064Y-112803000D01*
X59732936Y-114273000D02*
X60187064Y-114273000D01*
%TO.C,C12*%
X112565000Y-81341252D02*
X112565000Y-80818748D01*
X114035000Y-81341252D02*
X114035000Y-80818748D01*
D17*
%TO.C,IC5*%
X129210000Y-78870000D02*
X132410000Y-78870000D01*
X132410000Y-78870000D02*
X132410000Y-88770000D01*
X132410000Y-88770000D02*
X129210000Y-88770000D01*
X129210000Y-88770000D02*
X129210000Y-78870000D01*
X127335000Y-78700000D02*
X128860000Y-78700000D01*
%TD*%
M02*
