M48
; DRILL file {KiCad 8.0.2} date 2025-02-26T22:38:47-0500
; FORMAT={-:-/ absolute / inch / decimal}
; #@! TF.CreationDate,2025-02-26T22:38:47-05:00
; #@! TF.GenerationSoftware,Kicad,Pcbnew,8.0.2
; #@! TF.FileFunction,Plated,1,4,PTH
FMAT,2
INCH
; #@! TA.AperFunction,Plated,PTH,ViaDrill
T1C0.0118
; #@! TA.AperFunction,Plated,PTH,ComponentDrill
T2C0.0236
; #@! TA.AperFunction,Plated,PTH,ComponentDrill
T3C0.0300
; #@! TA.AperFunction,Plated,PTH,ComponentDrill
T4C0.0310
; #@! TA.AperFunction,Plated,PTH,ComponentDrill
T5C0.0374
; #@! TA.AperFunction,Plated,PTH,ComponentDrill
T6C0.0394
; #@! TA.AperFunction,Plated,PTH,ComponentDrill
T7C0.0433
; #@! TA.AperFunction,Plated,PTH,ComponentDrill
T8C0.1063
; #@! TA.AperFunction,Plated,PTH,ComponentDrill
T9C0.1260
%
G90
G05
T1
X2.1382Y-3.1331
X2.1827Y-3.1366
X2.2012Y-3.1839
X2.2185Y-3.1236
X2.2429Y-3.1433
X2.2429Y-4.4083
X2.2638Y-3.1642
X2.3382Y-3.1744
X2.3617Y-4.3371
X2.3652Y-3.8617
X2.5362Y-4.4461
X2.5374Y-4.6957
X2.5453Y-4.5445
X2.5626Y-4.4469
X2.5634Y-4.6957
X2.5689Y-3.3528
X2.5697Y-4.5461
X2.5886Y-4.4469
X2.5898Y-4.6953
X2.5917Y-4.5465
X2.7488Y-4.4465
X2.7543Y-4.5445
X2.7551Y-4.6957
X2.7567Y-4.5953
X2.7748Y-4.4453
X2.7791Y-4.698
X2.7795Y-4.5961
X2.7815Y-4.5453
X2.8004Y-4.4469
X2.8024Y-4.5965
X2.8028Y-4.6969
X2.8067Y-4.5437
X3.0328Y-2.9515
X3.0601Y-2.924
X3.0717Y-3.1764
X3.074Y-3.1256
X3.0791Y-3.2752
X3.0827Y-3.0252
X3.102Y-3.1736
X3.1055Y-3.1252
X3.1059Y-3.0256
X3.1059Y-3.2752
X3.1283Y-3.0272
X3.1331Y-3.1768
X3.1339Y-3.2744
X3.1346Y-3.1248
X3.2776Y-4.5031
X3.2825Y-4.2908
X3.285Y-4.4772
X3.2906Y-3.1764
X3.2933Y-3.0264
X3.2933Y-3.2752
X3.3035Y-4.4996
X3.3146Y-4.4791
X3.3154Y-3.0252
X3.3154Y-3.2768
X3.3185Y-3.1764
X3.3386Y-3.026
X3.339Y-3.276
X3.3449Y-3.1776
X3.3955Y-3.1522
X3.422Y-3.6823
X3.5051Y-2.8366
X3.5202Y-2.8157
X3.5264Y-2.8535
X3.5415Y-3.965
X3.5441Y-3.3272
X3.6401Y-3.9646
X3.7087Y-2.7516
X3.8168Y-4.4132
X3.8255Y-3.4395
X3.8675Y-2.9204
X3.8769Y-2.9795
X3.9065Y-3.0674
X3.9078Y-4.5464
X3.9504Y-4.6679
X3.9807Y-3.839
X3.9827Y-4.7295
X3.9831Y-4.8791
X3.9858Y-4.6252
X4.01Y-4.73
X4.01Y-4.88
X4.0138Y-4.6299
X4.0342Y-2.8588
X4.0354Y-4.8787
X4.037Y-4.7295
X4.039Y-4.6248
X4.0393Y-2.9342
X4.0522Y-3.9063
X4.1201Y-2.8547
X4.1201Y-2.8831
X4.1205Y-3.0976
X4.1217Y-2.8283
X4.122Y-3.0512
X4.122Y-3.074
X4.1921Y-4.7295
X4.1925Y-4.8787
X4.1929Y-4.6283
X4.1934Y-2.9521
X4.1945Y-4.7744
X4.22Y-4.73
X4.22Y-4.78
X4.2209Y-3.0693
X4.2209Y-3.0949
X4.2209Y-4.6287
X4.2213Y-3.0441
X4.222Y-4.8787
X4.2472Y-4.6307
X4.2476Y-4.7772
X4.2476Y-4.8783
X4.248Y-4.7299
X4.2614Y-3.0945
X4.2681Y-3.0394
X4.2693Y-2.8587
X4.2697Y-2.8846
X4.2709Y-2.8315
X4.2709Y-3.0705
X4.3055Y-3.4631
X4.3693Y-3.0965
X4.3701Y-2.8598
X4.3705Y-2.8835
X4.3709Y-2.8362
X4.3709Y-3.0496
X4.3732Y-3.0748
X4.4441Y-3.1394
X4.4563Y-3.1622
X4.4744Y-3.1394
X4.713Y-4.5008
X4.7272Y-4.4736
X4.7496Y-3.6532
X4.75Y-4.4988
X4.82Y-4.03
X4.84Y-4.01
X4.85Y-4.04
X4.88Y-4.0
X4.89Y-4.05
X4.9448Y-3.8717
X5.02Y-3.17
X5.03Y-3.28
X5.03Y-3.32
X5.03Y-3.43
X5.0306Y-3.58
X5.05Y-3.17
X5.05Y-3.23
X5.05Y-3.33
X5.06Y-3.28
X5.06Y-3.43
X5.08Y-4.4
X5.0884Y-3.6955
X5.09Y-4.2547
X5.23Y-3.43
X5.24Y-3.18
X5.24Y-3.32
X5.25Y-3.37
X5.27Y-3.17
X5.27Y-3.32
X5.27Y-3.43
X5.34Y-3.59
X5.5838Y-3.82
X5.7302Y-4.2661
T3
X3.0787Y-3.4295
X3.1787Y-3.4295
X3.2787Y-3.4295
X3.3104Y-4.6396
X3.3787Y-3.4295
X3.4104Y-4.6396
X3.4787Y-3.4295
X3.5104Y-4.6396
X3.6104Y-4.6396
X3.7104Y-4.6396
X3.8604Y-4.8416
X3.8604Y-4.9416
X3.8604Y-5.0416
X3.8604Y-5.1416
X3.8604Y-5.2416
T4
X1.9685Y-3.38
X1.9685Y-3.94
X1.9685Y-4.47
X1.9685Y-5.0
X2.0472Y-3.38
X2.0472Y-3.94
X2.0472Y-4.47
X2.0472Y-5.0
X2.0484Y-2.7787
X2.0484Y-2.8575
X2.0484Y-2.9362
X2.126Y-3.38
X2.126Y-3.94
X2.126Y-4.47
X2.126Y-5.0
X2.9098Y-5.4142
X2.9886Y-5.4142
X3.0673Y-5.4142
T5
X2.3528Y-2.6618
X2.3528Y-2.7602
X2.3528Y-2.8587
X2.3528Y-2.9571
X2.3528Y-3.0555
X5.3224Y-2.7293
X5.4208Y-2.7293
X5.5192Y-2.7293
X5.6176Y-2.7293
X5.9047Y-2.9768
X5.9047Y-3.0752
X5.9047Y-3.1736
X5.9047Y-3.272
X5.9047Y-3.3705
T6
X1.9303Y-4.7902
X2.0303Y-4.7902
X2.1303Y-4.7902
X2.6394Y-2.68
X2.7394Y-2.68
X2.8394Y-2.68
X2.8469Y-5.6051
X2.8469Y-6.4122
X3.0134Y-4.4594
X3.1118Y-4.4594
X3.4793Y-2.6232
X3.5016Y-3.02
X3.5793Y-2.6232
X3.6Y-3.02
X4.0965Y-3.3858
X4.1949Y-3.3858
X4.4587Y-4.4974
X4.5571Y-4.4974
X4.6579Y-5.6051
X4.6579Y-6.4122
X4.8417Y-2.7996
X4.8417Y-2.8996
X4.8417Y-2.9996
X4.8417Y-3.0996
X4.8417Y-3.1996
X4.8417Y-3.2996
X4.8512Y-4.7846
X4.8512Y-4.8846
X4.9402Y-2.67
X4.9642Y-5.7146
X4.9642Y-5.813
X5.0198Y-5.2
X5.0402Y-2.67
X5.1198Y-5.2
X5.46Y-3.67
X5.46Y-3.77
X5.46Y-3.87
X5.46Y-3.97
X5.46Y-4.07
X5.46Y-4.17
X5.4813Y-3.3086
X5.4813Y-3.407
X5.78Y-3.74
X5.78Y-3.84
X5.78Y-3.94
X5.78Y-4.04
X5.78Y-4.14
X5.88Y-3.74
X5.88Y-3.84
X5.88Y-3.94
X5.88Y-4.04
X5.88Y-4.14
T7
X2.35Y-3.637
X2.35Y-4.237
X2.45Y-3.637
X2.45Y-4.237
X2.55Y-3.637
X2.55Y-4.237
X2.65Y-3.637
X2.65Y-4.237
X2.75Y-3.637
X2.75Y-4.237
X2.85Y-3.637
X2.85Y-4.237
X2.95Y-3.637
X2.95Y-4.237
X3.05Y-3.637
X3.05Y-4.237
X3.15Y-3.637
X3.15Y-4.237
X3.25Y-3.637
X3.25Y-4.237
X3.35Y-3.637
X3.35Y-4.237
X3.45Y-3.637
X3.45Y-4.237
X3.55Y-3.637
X3.55Y-4.237
X3.65Y-3.637
X3.65Y-4.237
X3.75Y-3.637
X3.75Y-4.237
X3.85Y-3.637
X3.85Y-4.237
X3.95Y-3.637
X3.95Y-4.237
X4.05Y-3.637
X4.05Y-4.237
X4.15Y-3.637
X4.15Y-4.237
X4.25Y-3.637
X4.25Y-4.237
X4.35Y-3.637
X4.35Y-4.237
X4.45Y-3.637
X4.45Y-4.237
X4.55Y-3.637
X4.55Y-4.237
X4.65Y-3.637
X4.65Y-4.237
X4.8707Y-6.1016
X4.8707Y-6.2016
X4.8707Y-6.3016
X5.36Y-4.93
X5.36Y-5.03
X5.36Y-5.13
T8
X2.7953Y-2.9724
X2.7953Y-4.9016
X5.0787Y-2.9724
X5.0787Y-4.9016
X5.7482Y-4.6483
X5.7482Y-4.9317
T9
X3.212Y-2.7997
X3.212Y-5.0743
X4.662Y-2.7997
X4.662Y-5.0743
T2
G00X6.0061Y-4.5243
M15
G01X5.9628Y-4.5243
M16
G05
G00X6.0061Y-5.0557
M15
G01X5.9628Y-5.0557
M16
G05
M30
